<svg width="150" height="48" viewBox="0 0 150 48" fill="none" xmlns="http://www.w3.org/2000/svg">
<path d="M68.8427 18.4209C69.6537 16.9342 71.7884 16.9342 72.5992 18.4209L79.3786 30.85L81.7009 26.7864C82.5223 25.3492 84.5943 25.3492 85.4157 26.7864L90.2877 35.3119C91.1024 36.7381 90.0726 38.5124 88.43 38.5125H61.4873C59.8633 38.5124 58.8317 36.7745 59.6093 35.3487L68.8427 18.4209Z" fill="#BBBBBB"/>
<path d="M83.5586 10.6983C85.9218 10.6984 87.8372 12.6138 87.8373 14.977C87.8373 17.3402 85.9219 19.2561 83.5586 19.2563C81.1952 19.2563 79.2793 17.3403 79.2793 14.977C79.2794 12.6137 81.1953 10.6983 83.5586 10.6983Z" fill="#BBBBBB"/>
<path d="M32.2002 19.7846C32.795 18.6946 34.3599 18.6946 34.9546 19.7846L39.9265 28.8997L41.6291 25.9198C42.2315 24.8657 43.7518 24.8657 44.3541 25.9198L47.9261 32.1714C48.5237 33.2172 47.7688 34.5187 46.5643 34.5188H26.806C25.6152 34.5186 24.8586 33.2439 25.4288 32.1984L32.2002 19.7846Z" fill="#BBBBBB"/>
<path d="M42.9916 14.1213C44.7248 14.1213 46.1297 15.5263 46.1297 17.2594C46.1297 18.9925 44.7248 20.3975 42.9916 20.3975C41.2585 20.3975 39.8536 18.9925 39.8536 17.2594C39.8536 15.5263 41.2585 14.1213 42.9916 14.1213Z" fill="#BBBBBB"/>
<path d="M108.769 19.7846C109.364 18.6946 110.929 18.6946 111.524 19.7846L116.496 28.8997L118.198 25.9198C118.801 24.8657 120.321 24.8657 120.923 25.9198L124.495 32.1714C125.093 33.2172 124.338 34.5187 123.133 34.5188H103.375C102.184 34.5186 101.428 33.2439 101.998 32.1984L108.769 19.7846Z" fill="#BBBBBB"/>
<path d="M119.561 14.1213C121.294 14.1213 122.699 15.5263 122.699 17.2594C122.699 18.9925 121.294 20.3975 119.561 20.3975C117.828 20.3975 116.423 18.9925 116.423 17.2594C116.423 15.5263 117.828 14.1213 119.561 14.1213Z" fill="#BBBBBB"/>
<path d="M8.10996 21.1489C8.48841 20.4551 9.48445 20.4551 9.86287 21.1489L13.0267 26.9488L14.1103 25.0525C14.4937 24.3819 15.4609 24.3818 15.8442 25.0525L18.1175 29.0309C18.4978 29.6965 18.0169 30.5251 17.2502 30.5251H4.67769C3.91979 30.5251 3.4377 29.7134 3.80063 29.048L8.10996 21.1489Z" fill="#BBBBBB"/>
<path d="M14.977 17.5444C16.0799 17.5444 16.9744 18.439 16.9744 19.5419C16.9743 20.6447 16.0798 21.5387 14.977 21.5387C13.8742 21.5386 12.9802 20.6446 12.9801 19.5419C12.9801 18.4391 13.8741 17.5445 14.977 17.5444Z" fill="#BBBBBB"/>
<path d="M136.143 21.1489C136.522 20.4551 137.518 20.4551 137.896 21.1489L141.06 26.9488L142.144 25.0525C142.527 24.3819 143.494 24.3818 143.878 25.0525L146.151 29.0309C146.531 29.6965 146.05 30.5251 145.284 30.5251H132.711C131.953 30.5251 131.471 29.7134 131.834 29.048L136.143 21.1489Z" fill="#BBBBBB"/>
<path d="M143.01 17.5444C144.113 17.5444 145.008 18.439 145.008 19.5419C145.008 20.6447 144.113 21.5387 143.01 21.5387C141.908 21.5386 141.014 20.6446 141.014 19.5419C141.014 18.4391 141.908 17.5445 143.01 17.5444Z" fill="#BBBBBB"/>
<path fill-rule="evenodd" clip-rule="evenodd" d="M92.1166 0C95.6617 0 98.5356 2.87397 98.5356 6.41896V6.8198C99.1914 6.47305 99.9387 6.27615 100.732 6.27615H125.837C128.437 6.27615 130.544 8.3836 130.544 10.9833V12.5915C130.702 12.5658 130.864 12.5523 131.029 12.5523H147.005C148.659 12.5524 150 13.8934 150 15.5476V31.5236C150 33.1778 148.659 34.5187 147.005 34.5188H131.029C130.864 34.5188 130.702 34.5047 130.544 34.479V36.0879C130.544 38.6876 128.437 40.795 125.837 40.795H100.732C99.9386 40.795 99.1915 40.5975 98.5356 40.2507V40.6522C98.5356 44.1973 95.6617 47.0711 92.1166 47.0711H57.8834C54.3384 47.0711 51.4644 44.1973 51.4644 40.6522V40.2507C50.8085 40.5975 50.0614 40.795 49.2678 40.795H24.1632C21.5635 40.795 19.4561 38.6876 19.4561 36.0879V34.479C19.2982 34.5047 19.1364 34.5188 18.9713 34.5188H2.99527C1.34107 34.5187 9.01194e-05 33.1778 0 31.5236V15.5476C9.03649e-05 13.8934 1.34107 12.5524 2.99527 12.5523H18.9713C19.1363 12.5523 19.2983 12.5658 19.4561 12.5915V10.9833C19.4561 8.3836 21.5635 6.27615 24.1632 6.27615H49.2678C50.0613 6.27615 50.8086 6.47306 51.4644 6.8198V6.41896C51.4644 2.87397 54.3384 0 57.8834 0H92.1166ZM57.8834 4.2793C56.7017 4.2793 55.7437 5.2373 55.7437 6.41896V40.6522C55.7437 41.8339 56.7017 42.7918 57.8834 42.7918H92.1166C93.2983 42.7918 94.2563 41.8339 94.2563 40.6522V6.41896C94.2563 5.2373 93.2983 4.2793 92.1166 4.2793H57.8834ZM24.1632 9.41422C23.2966 9.41422 22.5941 10.1167 22.5941 10.9833V36.0879C22.5941 36.9544 23.2966 37.6569 24.1632 37.6569H49.2678C50.1344 37.6569 50.8368 36.9544 50.8368 36.0879V10.9833C50.8368 10.1167 50.1344 9.41422 49.2678 9.41422H24.1632ZM100.732 9.41422C99.8657 9.41422 99.1632 10.1167 99.1632 10.9833V36.0879C99.1632 36.9544 99.8657 37.6569 100.732 37.6569H125.837C126.703 37.6569 127.406 36.9544 127.406 36.0879V10.9833C127.406 10.1167 126.703 9.41422 125.837 9.41422H100.732ZM2.99527 14.5491C2.44396 14.5492 1.99694 14.9963 1.99685 15.5476V31.5236C1.99694 32.0749 2.44396 32.5219 2.99527 32.522H18.9713C19.1473 32.5219 19.3124 32.4758 19.4561 32.3957V14.6754C19.3124 14.5954 19.1473 14.5492 18.9713 14.5491H2.99527ZM131.029 14.5491C130.853 14.5492 130.688 14.5954 130.544 14.6754V32.3957C130.688 32.4758 130.853 32.5219 131.029 32.522H147.005C147.556 32.5219 148.003 32.0749 148.003 31.5236V15.5476C148.003 14.9963 147.556 14.5492 147.005 14.5491H131.029Z" fill="#BBBBBB"/>
</svg>
