<svg width="369" height="104" viewBox="0 0 369 104" fill="none" xmlns="http://www.w3.org/2000/svg">
<g clip-path="url(#clip0_4231_12185)">
<path d="M365.813 97.7461C367.148 97.7463 368.231 99.0342 368.231 100.623C368.231 102.212 367.148 103.5 365.813 103.5H3.05933C1.72382 103.5 0.641189 102.212 0.641113 100.623C0.641113 99.0341 1.72378 97.7462 3.05933 97.7461H365.813Z" fill="#BBBBBB"/>
<path d="M365.813 0.746094C367.148 0.746308 368.231 2.03419 368.231 3.62305C368.231 5.21183 367.148 6.49979 365.813 6.5H3.05933C1.72382 6.49991 0.641189 5.2119 0.641113 3.62305C0.641113 2.03411 1.72378 0.746183 3.05933 0.746094H365.813Z" fill="#BBBBBB"/>
<g clip-path="url(#clip1_4231_12185)">
<path d="M15.2188 25.5742H-23.2188C-27.1927 25.5742 -30.4258 28.8075 -30.4258 32.7812V71.2188C-30.4258 75.1927 -27.1925 78.4258 -23.2188 78.4258H15.2188C19.1927 78.4258 22.4258 75.1925 22.4258 71.2188V32.7812C22.4258 28.8073 19.1925 25.5742 15.2188 25.5742ZM-4 68.8164C-13.2714 68.8164 -20.8164 61.2714 -20.8164 52C-20.8164 42.7286 -13.2714 35.1836 -4 35.1836C5.27145 35.1836 12.8164 42.7286 12.8164 52C12.8164 61.2714 5.27145 68.8164 -4 68.8164ZM12.8164 39.9883C10.1674 39.9883 8.01172 37.8326 8.01172 35.1836C8.01172 32.5346 10.1674 30.3789 12.8164 30.3789C15.4654 30.3789 17.6211 32.5346 17.6211 35.1836C17.6211 37.8326 15.4654 39.9883 12.8164 39.9883Z" fill="#BBBBBB"/>
<path d="M-4 39.9883C-10.6228 39.9883 -16.0117 45.3772 -16.0117 52C-16.0117 58.6228 -10.6228 64.0117 -4 64.0117C2.62278 64.0117 8.01172 58.6228 8.01172 52C8.01172 45.3772 2.62278 39.9883 -4 39.9883Z" fill="#BBBBBB"/>
<path d="M24.8281 11H-32.8281C-39.4509 11 -45 16.5491 -45 23.1719V80.8281C-45 87.4509 -39.4509 93 -32.8281 93H24.8281C31.4509 93 37 87.4509 37 80.8281V23.1719C37 16.5491 31.4509 11 24.8281 11ZM27.2305 71.2188C27.2305 77.8415 21.8415 83.2305 15.2188 83.2305H-23.2188C-29.8415 83.2305 -35.2305 77.8415 -35.2305 71.2188V32.7812C-35.2305 26.1585 -29.8415 20.7695 -23.2188 20.7695H15.2188C21.8415 20.7695 27.2305 26.1585 27.2305 32.7812V71.2188Z" fill="#BBBBBB"/>
</g>
<g clip-path="url(#clip2_4231_12185)">
<path d="M109.219 25.5742H70.7812C66.8073 25.5742 63.5742 28.8075 63.5742 32.7812V71.2188C63.5742 75.1927 66.8075 78.4258 70.7812 78.4258H109.219C113.193 78.4258 116.426 75.1925 116.426 71.2188V32.7812C116.426 28.8073 113.193 25.5742 109.219 25.5742ZM90 68.8164C80.7286 68.8164 73.1836 61.2714 73.1836 52C73.1836 42.7286 80.7286 35.1836 90 35.1836C99.2714 35.1836 106.816 42.7286 106.816 52C106.816 61.2714 99.2714 68.8164 90 68.8164ZM106.816 39.9883C104.167 39.9883 102.012 37.8326 102.012 35.1836C102.012 32.5346 104.167 30.3789 106.816 30.3789C109.465 30.3789 111.621 32.5346 111.621 35.1836C111.621 37.8326 109.465 39.9883 106.816 39.9883Z" fill="#BBBBBB"/>
<path d="M90 39.9883C83.3772 39.9883 77.9883 45.3772 77.9883 52C77.9883 58.6228 83.3772 64.0117 90 64.0117C96.6228 64.0117 102.012 58.6228 102.012 52C102.012 45.3772 96.6228 39.9883 90 39.9883Z" fill="#BBBBBB"/>
<path d="M118.828 11H61.1719C54.5491 11 49 16.5491 49 23.1719V80.8281C49 87.4509 54.5491 93 61.1719 93H118.828C125.451 93 131 87.4509 131 80.8281V23.1719C131 16.5491 125.451 11 118.828 11ZM121.23 71.2188C121.23 77.8415 115.842 83.2305 109.219 83.2305H70.7812C64.1585 83.2305 58.7695 77.8415 58.7695 71.2188V32.7812C58.7695 26.1585 64.1585 20.7695 70.7812 20.7695H109.219C115.842 20.7695 121.23 26.1585 121.23 32.7812V71.2188Z" fill="#BBBBBB"/>
</g>
<g clip-path="url(#clip3_4231_12185)">
<path d="M203.219 25.5742H164.781C160.807 25.5742 157.574 28.8075 157.574 32.7812V71.2188C157.574 75.1927 160.807 78.4258 164.781 78.4258H203.219C207.193 78.4258 210.426 75.1925 210.426 71.2188V32.7812C210.426 28.8073 207.193 25.5742 203.219 25.5742ZM184 68.8164C174.729 68.8164 167.184 61.2714 167.184 52C167.184 42.7286 174.729 35.1836 184 35.1836C193.271 35.1836 200.816 42.7286 200.816 52C200.816 61.2714 193.271 68.8164 184 68.8164ZM200.816 39.9883C198.167 39.9883 196.012 37.8326 196.012 35.1836C196.012 32.5346 198.167 30.3789 200.816 30.3789C203.465 30.3789 205.621 32.5346 205.621 35.1836C205.621 37.8326 203.465 39.9883 200.816 39.9883Z" fill="#BBBBBB"/>
<path d="M184 39.9883C177.377 39.9883 171.988 45.3772 171.988 52C171.988 58.6228 177.377 64.0117 184 64.0117C190.623 64.0117 196.012 58.6228 196.012 52C196.012 45.3772 190.623 39.9883 184 39.9883Z" fill="#BBBBBB"/>
<path d="M212.828 11H155.172C148.549 11 143 16.5491 143 23.1719V80.8281C143 87.4509 148.549 93 155.172 93H212.828C219.451 93 225 87.4509 225 80.8281V23.1719C225 16.5491 219.451 11 212.828 11ZM215.23 71.2188C215.23 77.8415 209.842 83.2305 203.219 83.2305H164.781C158.158 83.2305 152.77 77.8415 152.77 71.2188V32.7812C152.77 26.1585 158.158 20.7695 164.781 20.7695H203.219C209.842 20.7695 215.23 26.1585 215.23 32.7812V71.2188Z" fill="#BBBBBB"/>
</g>
<g clip-path="url(#clip4_4231_12185)">
<path d="M297.219 25.5742H258.781C254.807 25.5742 251.574 28.8075 251.574 32.7812V71.2188C251.574 75.1927 254.807 78.4258 258.781 78.4258H297.219C301.193 78.4258 304.426 75.1925 304.426 71.2188V32.7812C304.426 28.8073 301.193 25.5742 297.219 25.5742ZM278 68.8164C268.729 68.8164 261.184 61.2714 261.184 52C261.184 42.7286 268.729 35.1836 278 35.1836C287.271 35.1836 294.816 42.7286 294.816 52C294.816 61.2714 287.271 68.8164 278 68.8164ZM294.816 39.9883C292.167 39.9883 290.012 37.8326 290.012 35.1836C290.012 32.5346 292.167 30.3789 294.816 30.3789C297.465 30.3789 299.621 32.5346 299.621 35.1836C299.621 37.8326 297.465 39.9883 294.816 39.9883Z" fill="#BBBBBB"/>
<path d="M278 39.9883C271.377 39.9883 265.988 45.3772 265.988 52C265.988 58.6228 271.377 64.0117 278 64.0117C284.623 64.0117 290.012 58.6228 290.012 52C290.012 45.3772 284.623 39.9883 278 39.9883Z" fill="#BBBBBB"/>
<path d="M306.828 11H249.172C242.549 11 237 16.5491 237 23.1719V80.8281C237 87.4509 242.549 93 249.172 93H306.828C313.451 93 319 87.4509 319 80.8281V23.1719C319 16.5491 313.451 11 306.828 11ZM309.23 71.2188C309.23 77.8415 303.842 83.2305 297.219 83.2305H258.781C252.158 83.2305 246.77 77.8415 246.77 71.2188V32.7812C246.77 26.1585 252.158 20.7695 258.781 20.7695H297.219C303.842 20.7695 309.23 26.1585 309.23 32.7812V71.2188Z" fill="#BBBBBB"/>
</g>
<g clip-path="url(#clip5_4231_12185)">
<path d="M391.219 25.5742H352.781C348.807 25.5742 345.574 28.8075 345.574 32.7812V71.2188C345.574 75.1927 348.807 78.4258 352.781 78.4258H391.219C395.193 78.4258 398.426 75.1925 398.426 71.2188V32.7812C398.426 28.8073 395.193 25.5742 391.219 25.5742ZM372 68.8164C362.729 68.8164 355.184 61.2714 355.184 52C355.184 42.7286 362.729 35.1836 372 35.1836C381.271 35.1836 388.816 42.7286 388.816 52C388.816 61.2714 381.271 68.8164 372 68.8164ZM388.816 39.9883C386.167 39.9883 384.012 37.8326 384.012 35.1836C384.012 32.5346 386.167 30.3789 388.816 30.3789C391.465 30.3789 393.621 32.5346 393.621 35.1836C393.621 37.8326 391.465 39.9883 388.816 39.9883Z" fill="#BBBBBB"/>
<path d="M372 39.9883C365.377 39.9883 359.988 45.3772 359.988 52C359.988 58.6228 365.377 64.0117 372 64.0117C378.623 64.0117 384.012 58.6228 384.012 52C384.012 45.3772 378.623 39.9883 372 39.9883Z" fill="#BBBBBB"/>
<path d="M400.828 11H343.172C336.549 11 331 16.5491 331 23.1719V80.8281C331 87.4509 336.549 93 343.172 93H400.828C407.451 93 413 87.4509 413 80.8281V23.1719C413 16.5491 407.451 11 400.828 11ZM403.23 71.2188C403.23 77.8415 397.842 83.2305 391.219 83.2305H352.781C346.158 83.2305 340.77 77.8415 340.77 71.2188V32.7812C340.77 26.1585 346.158 20.7695 352.781 20.7695H391.219C397.842 20.7695 403.23 26.1585 403.23 32.7812V71.2188Z" fill="#BBBBBB"/>
</g>
</g>
<defs>
<clipPath id="clip0_4231_12185">
<rect width="369" height="104" fill="white"/>
</clipPath>
<clipPath id="clip1_4231_12185">
<rect width="82" height="82" fill="white" transform="translate(-45 11)"/>
</clipPath>
<clipPath id="clip2_4231_12185">
<rect width="82" height="82" fill="white" transform="translate(49 11)"/>
</clipPath>
<clipPath id="clip3_4231_12185">
<rect width="82" height="82" fill="white" transform="translate(143 11)"/>
</clipPath>
<clipPath id="clip4_4231_12185">
<rect width="82" height="82" fill="white" transform="translate(237 11)"/>
</clipPath>
<clipPath id="clip5_4231_12185">
<rect width="82" height="82" fill="white" transform="translate(331 11)"/>
</clipPath>
</defs>
</svg>
