<svg
  width="400"
  height="98"
  viewBox="0 0 400 98"
  fill="none"
  xmlns="http://www.w3.org/2000/svg"
>
  <path
    d="M396.947 91.7481C398.633 91.7481 400 93.1152 400 94.8015C400 96.4879 398.633 97.855 396.947 97.855H3.43511C1.74875 97.855 0.381679 96.4879 0.381679 94.8015C0.381679 93.1152 1.74875 91.7481 3.43511 91.7481H396.947Z"
    fill="#bbb"
  />
  <path
    fill-rule="evenodd"
    clip-rule="evenodd"
    d="M29.7563 47.3108C32.3615 45.8041 35.4983 46.2717 38.2887 47.8861L45.5059 52.0499L45.5093 52.052C48.3009 53.6682 50.2689 56.1544 50.2689 59.1619C50.2689 62.1693 48.3009 64.6556 45.5093 66.2717C45.5082 66.2724 45.5071 66.273 45.5059 66.2736L38.2919 70.4354L38.2921 70.4356C35.5008 72.0516 32.3625 72.5202 29.7563 71.0129C27.152 69.5067 25.9889 66.5533 25.9889 63.3257V54.998C25.9889 51.7704 27.152 48.817 29.7563 47.3108ZM35.6842 52.3924C33.8608 51.3368 32.8006 51.5626 32.3621 51.8162C31.9217 52.0709 31.1935 52.8823 31.1935 54.998V63.3257C31.1935 65.4414 31.9217 66.2528 32.3621 66.5075C32.8006 66.7611 33.8608 66.9869 35.6842 65.9313L35.6878 65.9292L42.905 61.7654C44.7251 60.7106 45.0642 59.6759 45.0643 59.1619C45.0643 58.6478 44.7252 57.6132 42.905 56.5583L35.6878 52.3945C35.6866 52.3938 35.6854 52.3931 35.6842 52.3924Z"
    fill="#bbb"
  />
  <path
    fill-rule="evenodd"
    clip-rule="evenodd"
    d="M65.9265 10.8321C71.6756 10.8321 76.3358 15.4926 76.3359 21.2414V76.7586C76.3358 82.5076 71.6756 87.1679 65.9265 87.168H10.4093C4.66048 87.1679 6.57854e-05 82.5076 0 76.7586V21.2414C7.05778e-05 15.4926 4.66049 10.8321 10.4093 10.8321H65.9265ZM6.93974 76.7586C6.93981 78.6749 8.49313 80.2283 10.4093 80.2284H65.9265C67.8428 80.2283 69.3963 78.6749 69.3963 76.7586V37.8273H6.93974V76.7586ZM10.4093 17.7718C8.49313 17.7719 6.93981 19.3252 6.93974 21.2414V32.6225H23.6988V17.8758C23.6988 17.841 23.6997 17.8063 23.701 17.7718H10.4093ZM28.9036 17.8758V32.6225H47.8486V17.8758C47.8486 17.841 47.8496 17.8063 47.851 17.7718H28.9014C28.9028 17.8063 28.9036 17.841 28.9036 17.8758ZM53.0532 17.8758V32.6225H69.3963V21.2414C69.3962 19.3252 67.8428 17.7719 65.9265 17.7718H53.051C53.0524 17.8063 53.0532 17.841 53.0532 17.8758Z"
    fill="#bbb"
  />
  <path
    d="M109.098 40.7054C110.413 38.2943 113.876 38.2943 115.191 40.7054L126.185 60.8619L129.951 54.272C131.283 51.941 134.644 51.941 135.976 54.272L143.876 68.0976C145.198 70.4105 143.527 73.2886 140.863 73.2886H97.1706C94.5368 73.2886 92.8632 70.4695 94.1244 68.1572L109.098 40.7054Z"
    fill="#bbb"
  />
  <path
    d="M132.963 28.1812C136.796 28.1812 139.903 31.2881 139.903 35.1207C139.903 38.9533 136.796 42.0604 132.963 42.0605C129.131 42.0605 126.024 38.9534 126.024 35.1207C126.024 31.2881 129.131 28.1812 132.963 28.1812Z"
    fill="#bbb"
  />
  <path
    fill-rule="evenodd"
    clip-rule="evenodd"
    d="M146.842 10.8321C152.592 10.8321 157.252 15.4926 157.252 21.2416V76.7584C157.252 82.5076 152.592 87.168 146.842 87.168H91.3256C85.5766 87.168 80.916 82.5076 80.916 76.7584V21.2416C80.916 15.4926 85.5766 10.8321 91.3256 10.8321H146.842ZM91.3256 17.7716C89.4092 17.7716 87.8556 19.3253 87.8556 21.2416V76.7584C87.8556 78.6748 89.4092 80.2284 91.3256 80.2284H146.842C148.759 80.2284 150.312 78.6748 150.312 76.7584V21.2416C150.312 19.3253 148.759 17.7716 146.842 17.7716H91.3256Z"
    fill="#bbb"
  />
  <path
    fill-rule="evenodd"
    clip-rule="evenodd"
    d="M191.588 47.3108C194.194 45.8041 197.33 46.2717 200.121 47.8861L207.338 52.0499L207.341 52.052C210.133 53.6682 212.101 56.1544 212.101 59.1619C212.101 62.1693 210.133 64.6556 207.341 66.2717C207.34 66.2724 207.339 66.273 207.338 66.2736L200.124 70.4354L200.124 70.4356C197.333 72.0516 194.195 72.5202 191.588 71.0129C188.984 69.5067 187.821 66.5533 187.821 63.3257V54.998C187.821 51.7704 188.984 48.817 191.588 47.3108ZM197.516 52.3924C195.693 51.3368 194.633 51.5626 194.194 51.8162C193.754 52.0709 193.026 52.8823 193.026 54.998V63.3257C193.026 65.4414 193.754 66.2528 194.194 66.5075C194.633 66.7611 195.693 66.9869 197.516 65.9313L197.52 65.9292L204.737 61.7654C206.557 60.7106 206.896 59.6759 206.896 59.1619C206.896 58.6478 206.557 57.6132 204.737 56.5583L197.52 52.3945C197.519 52.3938 197.517 52.3931 197.516 52.3924Z"
    fill="#bbb"
  />
  <path
    fill-rule="evenodd"
    clip-rule="evenodd"
    d="M227.759 10.8321C233.508 10.8321 238.168 15.4926 238.168 21.2414V76.7586C238.168 82.5076 233.508 87.1679 227.759 87.168H172.241C166.493 87.1679 161.832 82.5076 161.832 76.7586V21.2414C161.832 15.4926 166.493 10.8321 172.241 10.8321H227.759ZM168.772 76.7586C168.772 78.6749 170.325 80.2283 172.241 80.2284H227.759C229.675 80.2283 231.228 78.6749 231.228 76.7586V37.8273H168.772V76.7586ZM172.241 17.7718C170.325 17.7719 168.772 19.3252 168.772 21.2414V32.6225H185.531V17.8758C185.531 17.841 185.532 17.8063 185.533 17.7718H172.241ZM190.736 17.8758V32.6225H209.681V17.8758C209.681 17.841 209.682 17.8063 209.683 17.7718H190.733C190.735 17.8063 190.736 17.841 190.736 17.8758ZM214.885 17.8758V32.6225H231.228V21.2414C231.228 19.3252 229.675 17.7719 227.759 17.7718H214.883C214.884 17.8063 214.885 17.841 214.885 17.8758Z"
    fill="#bbb"
  />
  <path
    d="M270.93 40.7054C272.245 38.2943 275.708 38.2943 277.023 40.7054L288.017 60.8619L291.783 54.272C293.115 51.941 296.476 51.941 297.808 54.272L305.708 68.0976C307.03 70.4105 305.359 73.2886 302.695 73.2886H259.003C256.369 73.2886 254.695 70.4695 255.956 68.1572L270.93 40.7054Z"
    fill="#bbb"
  />
  <path
    d="M294.795 28.1812C298.628 28.1812 301.735 31.2881 301.735 35.1207C301.735 38.9533 298.628 42.0604 294.795 42.0605C290.963 42.0605 287.856 38.9534 287.856 35.1207C287.856 31.2881 290.963 28.1812 294.795 28.1812Z"
    fill="#bbb"
  />
  <path
    fill-rule="evenodd"
    clip-rule="evenodd"
    d="M308.674 10.8321C314.424 10.8321 319.084 15.4926 319.084 21.2416V76.7584C319.084 82.5076 314.424 87.168 308.674 87.168H253.158C247.409 87.168 242.748 82.5076 242.748 76.7584V21.2416C242.748 15.4926 247.409 10.8321 253.158 10.8321H308.674ZM253.158 17.7716C251.241 17.7716 249.688 19.3253 249.688 21.2416V76.7584C249.688 78.6748 251.241 80.2284 253.158 80.2284H308.674C310.591 80.2284 312.144 78.6748 312.144 76.7584V21.2416C312.144 19.3253 310.591 17.7716 308.674 17.7716H253.158Z"
    fill="#bbb"
  />
  <path
    fill-rule="evenodd"
    clip-rule="evenodd"
    d="M353.42 47.3108C356.026 45.8041 359.162 46.2717 361.953 47.8861L369.17 52.0499L369.173 52.052C371.965 53.6682 373.933 56.1544 373.933 59.1619C373.933 62.1693 371.965 64.6556 369.173 66.2717C369.172 66.2724 369.171 66.273 369.17 66.2736L361.956 70.4354L361.956 70.4356C359.165 72.0516 356.027 72.5202 353.42 71.0129C350.816 69.5067 349.653 66.5533 349.653 63.3257V54.998C349.653 51.7704 350.816 48.817 353.42 47.3108ZM359.348 52.3924C357.525 51.3368 356.465 51.5626 356.026 51.8162C355.586 52.0709 354.858 52.8823 354.858 54.998V63.3257C354.858 65.4414 355.586 66.2528 356.026 66.5075C356.465 66.7611 357.525 66.9869 359.348 65.9313L359.352 65.9292L366.569 61.7654C368.389 60.7106 368.728 59.6759 368.728 59.1619C368.728 58.6478 368.389 57.6132 366.569 56.5583L359.352 52.3945C359.351 52.3938 359.349 52.3931 359.348 52.3924Z"
    fill="#bbb"
  />
  <path
    fill-rule="evenodd"
    clip-rule="evenodd"
    d="M389.591 10.8321C395.34 10.8321 400 15.4926 400 21.2414V76.7586C400 82.5076 395.34 87.1679 389.591 87.168H334.073C328.325 87.1679 323.664 82.5076 323.664 76.7586V21.2414C323.664 15.4926 328.325 10.8321 334.073 10.8321H389.591ZM330.604 76.7586C330.604 78.6749 332.157 80.2283 334.073 80.2284H389.591C391.507 80.2283 393.06 78.6749 393.06 76.7586V37.8273H330.604V76.7586ZM334.073 17.7718C332.157 17.7719 330.604 19.3252 330.604 21.2414V32.6225H347.363V17.8758C347.363 17.841 347.364 17.8063 347.365 17.7718H334.073ZM352.568 17.8758V32.6225H371.513V17.8758C371.513 17.841 371.514 17.8063 371.515 17.7718H352.566C352.567 17.8063 352.568 17.841 352.568 17.8758ZM376.717 17.8758V32.6225H393.06V21.2414C393.06 19.3252 391.507 17.7719 389.591 17.7718H376.715C376.716 17.8063 376.717 17.841 376.717 17.8758Z"
    fill="#bbb"
  />
  <path
    d="M396.565 0.14505C398.251 0.14505 399.618 1.51212 399.618 3.19849C399.618 4.88485 398.251 6.25192 396.565 6.25192H3.05344C1.36707 6.25192 0 4.88485 0 3.19849C0 1.51212 1.36707 0.14505 3.05344 0.14505H396.565Z"
    fill="#bbb"
  />
</svg>
