<svg width="118" height="85" viewBox="0 0 118 85" fill="none" xmlns="http://www.w3.org/2000/svg">
<path d="M76.7061 70C78.915 70.0003 80.7061 71.791 80.7061 74C80.7061 76.209 78.915 77.9997 76.7061 78H40.7061C38.4969 78 36.7061 76.2091 36.7061 74C36.7061 71.7909 38.4969 70 40.7061 70H76.7061Z" fill="#BBBBBB"/>
<path d="M78.7061 60C79.8104 60.0003 80.7061 60.8956 80.7061 62C80.7061 63.1044 79.8104 63.9997 78.7061 64H38.7061C37.6015 64 36.7061 63.1046 36.7061 62C36.7061 60.8954 37.6015 60 38.7061 60H78.7061Z" fill="#BBBBBB"/>
<path d="M78.7061 55C79.8104 55.0003 80.7061 55.8956 80.7061 57C80.7061 58.1044 79.8104 58.9997 78.7061 59H50.7061C49.6015 59 48.7061 58.1046 48.7061 57C48.7061 55.8954 49.6015 55 50.7061 55H78.7061Z" fill="#BBBBBB"/>
<path d="M66.7061 50C67.8104 50.0003 68.7061 50.8956 68.7061 52C68.7061 53.1044 67.8104 53.9997 66.7061 54H38.7061C37.6015 54 36.7061 53.1046 36.7061 52C36.7061 50.8954 37.6015 50 38.7061 50H66.7061Z" fill="#BBBBBB"/>
<path d="M78.7061 45C79.8104 45.0003 80.7061 45.8956 80.7061 47C80.7061 48.1044 79.8104 48.9997 78.7061 49H38.7061C37.6015 49 36.7061 48.1046 36.7061 47C36.7061 45.8954 37.6015 45 38.7061 45H78.7061Z" fill="#BBBBBB"/>
<path d="M54.627 20.6973C55.23 19.5919 56.8169 19.5919 57.4199 20.6973L62.4619 29.9385L64.1875 26.917C64.7982 25.8483 66.3393 25.8485 66.9502 26.917L70.5723 33.2559C71.1782 34.3163 70.4128 35.6366 69.1914 35.6367H49.1582C47.9507 35.6366 47.1835 34.3433 47.7617 33.2832L54.627 20.6973Z" fill="#BBBBBB"/>
<path d="M65.5693 14.9551C67.3266 14.9552 68.751 16.3795 68.751 18.1367C68.7508 19.8938 67.3264 21.3183 65.5693 21.3184C63.8122 21.3183 62.3879 19.8938 62.3877 18.1367C62.3877 16.3795 63.8121 14.9551 65.5693 14.9551Z" fill="#BBBBBB"/>
<path fill-rule="evenodd" clip-rule="evenodd" d="M71.9326 7C74.5685 7 76.7049 9.13674 76.7051 11.7725V37.2275C76.7049 39.8633 74.5685 42 71.9326 42H46.4785C43.8427 42 41.7063 39.8633 41.7061 37.2275V11.7725C41.7063 9.13674 43.8427 7 46.4785 7H71.9326ZM46.4785 10.1816C45.6 10.1816 44.8879 10.894 44.8877 11.7725V37.2275C44.8879 38.106 45.6 38.8184 46.4785 38.8184H71.9326C72.8111 38.8184 73.5232 38.106 73.5234 37.2275V11.7725C73.5232 10.894 72.8111 10.1816 71.9326 10.1816H46.4785Z" fill="#BBBBBB"/>
<path fill-rule="evenodd" clip-rule="evenodd" d="M83.0146 0.0078125C86.1847 0.168673 88.7061 2.78995 88.7061 6V79C88.7061 82.21 86.1847 84.8313 83.0146 84.9922L82.7061 85H34.7061C31.4959 85 28.8745 82.4789 28.7139 79.3086L28.7051 79V6C28.7051 2.68629 31.3923 4.83192e-08 34.7061 0H82.7061L83.0146 0.0078125ZM34.7061 4C33.6015 4 32.7061 4.89543 32.7061 6V79C32.7061 80.1046 33.6015 81 34.7061 81H82.7061C83.8104 80.9997 84.7061 80.1044 84.7061 79V6C84.7061 4.89559 83.8104 4.00026 82.7061 4H34.7061Z" fill="#BBBBBB"/>
<path d="M20.0186 8.00684C22.6292 8.13929 24.7061 10.2978 24.7061 12.9414V73.0586C24.7061 75.7022 22.6292 77.8607 20.0186 77.9932L19.7646 78H0V74.7061H19.7646C20.6741 74.7059 21.4121 73.9681 21.4121 73.0586V12.9414C21.4121 12.0319 20.6741 11.2941 19.7646 11.2939H0V8H19.7646L20.0186 8.00684Z" fill="#BBBBBB"/>
<path d="M117.411 11.2939H97.6465C96.737 11.2941 96 12.0318 96 12.9414V73.0586C96 73.9682 96.737 74.7059 97.6465 74.7061H117.411V78H97.6465C95.0029 77.9999 92.8442 75.9232 92.7119 73.3125L92.7061 73.0586V12.9414C92.7061 10.2126 94.9177 8.00014 97.6465 8H117.411V11.2939Z" fill="#BBBBBB"/>
<path d="M14.8232 65.6475C16.6424 65.6477 18.1172 67.1222 18.1172 68.9414C18.1171 70.7605 16.6423 72.2352 14.8232 72.2354H0V65.6475H14.8232Z" fill="#BBBBBB"/>
<path d="M117.411 72.2354H102.588C100.769 72.2353 99.2941 70.7606 99.2939 68.9414C99.2939 67.1221 100.769 65.6475 102.588 65.6475H117.411V72.2354Z" fill="#BBBBBB"/>
<path d="M16.4707 57.4121C17.38 57.4124 18.1171 58.1492 18.1172 59.0586C18.1172 59.9681 17.3801 60.7058 16.4707 60.7061H0V57.4121H16.4707Z" fill="#BBBBBB"/>
<path d="M117.411 60.7061H100.94C100.031 60.7058 99.2939 59.9681 99.2939 59.0586C99.2941 58.1492 100.031 57.4123 100.94 57.4121H117.411V60.7061Z" fill="#BBBBBB"/>
<path d="M16.4707 53.2939C17.3801 53.2942 18.1172 54.0319 18.1172 54.9414C18.1171 55.8508 17.38 56.5876 16.4707 56.5879H0V53.2939H16.4707Z" fill="#BBBBBB"/>
<path d="M117.411 56.5879H110.823C109.914 56.5879 109.176 55.8509 109.176 54.9414C109.176 54.0318 109.914 53.2939 110.823 53.2939H117.411V56.5879Z" fill="#BBBBBB"/>
<path d="M6.58789 49.1768C7.49727 49.177 8.2352 49.9139 8.23535 50.8232C8.23535 51.7328 7.49737 52.4705 6.58789 52.4707H0V49.1768H6.58789Z" fill="#BBBBBB"/>
<path d="M117.411 52.4707H100.94C100.031 52.4705 99.2939 51.7327 99.2939 50.8232C99.2941 49.9139 100.031 49.177 100.94 49.1768H117.411V52.4707Z" fill="#BBBBBB"/>
<path d="M16.4707 45.0586C17.3801 45.0589 18.1172 45.7966 18.1172 46.7061C18.1171 47.6155 17.3801 48.3523 16.4707 48.3525H0V45.0586H16.4707Z" fill="#BBBBBB"/>
<path d="M117.411 48.3525H100.94C100.031 48.3523 99.294 47.6155 99.2939 46.7061C99.2939 45.7966 100.031 45.0588 100.94 45.0586H117.411V48.3525Z" fill="#BBBBBB"/>
<path d="M10.8936 13.7646C13.0638 13.7652 14.8231 15.5251 14.8232 17.6953V38.6582C14.8229 40.8284 13.0637 42.5874 10.8936 42.5879H0V39.9678H10.8936C11.6165 39.9672 12.2028 39.3812 12.2031 38.6582V17.6953C12.203 16.9722 11.6166 16.3853 10.8936 16.3848H0V13.7646H10.8936Z" fill="#BBBBBB"/>
<path d="M117.411 16.3848H107.342C106.618 16.3849 106.031 16.972 106.031 17.6953V38.6582C106.032 39.3814 106.619 39.9676 107.342 39.9678H117.411V42.5879H107.342C105.171 42.5877 103.411 40.8286 103.411 38.6582V17.6953C103.411 15.5248 105.171 13.7648 107.342 13.7646H117.411V16.3848Z" fill="#BBBBBB"/>
<path d="M3.09277 32.6553L4.51465 30.167C5.01772 29.2872 6.2871 29.287 6.79004 30.167L9.77344 35.3867C10.2722 36.2598 9.64118 37.3471 8.63574 37.3477H0V26.9854L3.09277 32.6553Z" fill="#BBBBBB"/>
<path d="M114.053 25.0449C114.549 24.1346 115.857 24.1346 116.354 25.0449L117.411 26.9844V37.3477H109.549C108.555 37.3473 107.923 36.283 108.398 35.4102L114.053 25.0449Z" fill="#BBBBBB"/>
<path d="M5.65234 20.3164C7.09927 20.3167 8.27246 21.4896 8.27246 22.9365C8.27209 24.3832 7.09904 25.5563 5.65234 25.5566C4.20551 25.5565 3.0326 24.3833 3.03223 22.9365C3.03223 21.4895 4.20528 20.3166 5.65234 20.3164Z" fill="#BBBBBB"/>
</svg>
