<svg width="369" height="104" viewBox="0 0 369 104" fill="none" xmlns="http://www.w3.org/2000/svg">
<g clip-path="url(#clip0_4231_12185)">
<path d="M365.813 97.7461C367.148 97.7463 368.231 99.0342 368.231 100.623C368.231 102.212 367.148 103.5 365.813 103.5H3.05933C1.72382 103.5 0.641189 102.212 0.641113 100.623C0.641113 99.0341 1.72378 97.7462 3.05933 97.7461H365.813Z" fill="#BBBBBB"/>
<path d="M365.813 0.746094C367.148 0.746308 368.231 2.03419 368.231 3.62305C368.231 5.21183 367.148 6.49979 365.813 6.5H3.05933C1.72382 6.49991 0.641189 5.2119 0.641113 3.62305C0.641113 2.03411 1.72378 0.746183 3.05933 0.746094H365.813Z" fill="#BBBBBB"/>
<g clip-path="url(#clip1_4231_12185)">
<path d="M-30.3338 12.3978C-12.8342 10.5308 4.81508 10.5308 22.3147 12.3978C25.7127 12.7567 28.8851 14.2695 31.3029 16.6839C33.7208 19.0984 35.2381 22.2688 35.6018 25.6664C37.4688 43.1659 37.4688 60.8152 35.6018 78.3148C35.2429 81.7129 33.7301 84.8852 31.3156 87.3031C28.9011 89.721 25.7309 91.2382 22.3332 91.6019C4.83364 93.4689 -12.8156 93.4689 -30.3152 91.6019C-33.7133 91.2429 -36.8856 89.7302 -39.3035 87.3158C-41.7214 84.9012 -43.2386 81.731 -43.6023 78.3333C-45.4693 60.8338 -45.4693 43.1845 -43.6023 25.6849C-43.2434 22.2868 -41.7307 19.1145 -39.3162 16.6966C-36.9017 14.2787 -33.7314 12.7615 -30.3338 12.3978ZM-1.79666 26.3753V61.2855C-1.79668 62.9441 -2.28827 64.5656 -3.20975 65.9447C-4.13124 67.3238 -5.44104 68.3988 -6.97342 69.0335C-8.50583 69.6683 -10.1923 69.8347 -11.8191 69.5111C-13.4459 69.1875 -14.9402 68.388 -16.1131 67.2152C-17.2858 66.0424 -18.0844 64.5479 -18.408 62.9212C-18.7315 61.2946 -18.5651 59.6088 -17.9304 58.0765C-17.2958 56.5443 -16.2214 55.2343 -14.8426 54.3128C-13.4634 53.3913 -11.8411 52.8988 -10.1824 52.8988H-6.19022V44.9183H-10.1824C-14.5196 44.9183 -18.68 46.6405 -21.7469 49.7074C-24.8137 52.7742 -26.5359 56.9346 -26.5359 61.2718C-26.5358 65.6088 -24.8136 69.7685 -21.7469 72.8353C-18.68 75.9022 -14.5196 77.6253 -10.1824 77.6253C-5.8491 77.6178 -1.69549 75.8918 1.3674 72.8265C4.43035 69.7609 6.15267 65.6053 6.15646 61.2718V44.3871C8.68659 45.9152 11.5874 46.7204 14.5432 46.7162H18.5637V38.7494H14.5705C12.3465 38.7493 10.2135 37.8659 8.64084 36.2933C7.06809 34.7206 6.18478 32.5868 6.18478 30.3626V26.3753H-1.79666Z" fill="#BBBBBB"/>
</g>
<g clip-path="url(#clip2_4231_12185)">
<path d="M63.6662 12.3978C81.1658 10.5308 98.8151 10.5308 116.315 12.3978C119.713 12.7567 122.885 14.2695 125.303 16.6839C127.721 19.0984 129.238 22.2688 129.602 25.6664C131.469 43.1659 131.469 60.8152 129.602 78.3148C129.243 81.7129 127.73 84.8852 125.316 87.3031C122.901 89.721 119.731 91.2382 116.333 91.6019C98.8336 93.4689 81.1844 93.4689 63.6848 91.6019C60.2867 91.2429 57.1144 89.7302 54.6965 87.3158C52.2786 84.9012 50.7614 81.731 50.3977 78.3333C48.5307 60.8338 48.5307 43.1845 50.3977 25.6849C50.7566 22.2868 52.2693 19.1145 54.6838 16.6966C57.0983 14.2787 60.2686 12.7615 63.6662 12.3978ZM92.2033 26.3753V61.2855C92.2033 62.9441 91.7117 64.5656 90.7903 65.9447C89.8688 67.3238 88.559 68.3988 87.0266 69.0335C85.4942 69.6683 83.8077 69.8347 82.1809 69.5111C80.5541 69.1875 79.0598 68.388 77.8869 67.2152C76.7142 66.0424 75.9156 64.5479 75.592 62.9212C75.2685 61.2946 75.4349 59.6088 76.0696 58.0765C76.7042 56.5443 77.7786 55.2343 79.1574 54.3128C80.5366 53.3913 82.1589 52.8988 83.8176 52.8988H87.8098V44.9183H83.8176C79.4804 44.9183 75.32 46.6405 72.2531 49.7074C69.1863 52.7742 67.4641 56.9346 67.4641 61.2718C67.4642 65.6088 69.1864 69.7685 72.2531 72.8353C75.32 75.9022 79.4804 77.6253 83.8176 77.6253C88.1509 77.6178 92.3045 75.8918 95.3674 72.8265C98.4303 69.7609 100.153 65.6053 100.156 61.2718V44.3871C102.687 45.9152 105.587 46.7204 108.543 46.7162H112.564V38.7494H108.571C106.347 38.7493 104.213 37.8659 102.641 36.2933C101.068 34.7206 100.185 32.5868 100.185 30.3626V26.3753H92.2033Z" fill="#BBBBBB"/>
</g>
<g clip-path="url(#clip3_4231_12185)">
<path d="M157.666 12.3978C175.166 10.5308 192.815 10.5308 210.315 12.3978C213.713 12.7567 216.885 14.2695 219.303 16.6839C221.721 19.0984 223.238 22.2688 223.602 25.6664C225.469 43.1659 225.469 60.8152 223.602 78.3148C223.243 81.7129 221.73 84.8852 219.316 87.3031C216.901 89.721 213.731 91.2382 210.333 91.6019C192.834 93.4689 175.184 93.4689 157.685 91.6019C154.287 91.2429 151.114 89.7302 148.697 87.3158C146.279 84.9012 144.761 81.731 144.398 78.3333C142.531 60.8338 142.531 43.1845 144.398 25.6849C144.757 22.2868 146.269 19.1145 148.684 16.6966C151.098 14.2787 154.269 12.7615 157.666 12.3978ZM186.203 26.3753V61.2855C186.203 62.9441 185.712 64.5656 184.79 65.9447C183.869 67.3238 182.559 68.3988 181.027 69.0335C179.494 69.6683 177.808 69.8347 176.181 69.5111C174.554 69.1875 173.06 68.388 171.887 67.2152C170.714 66.0424 169.916 64.5479 169.592 62.9212C169.269 61.2946 169.435 59.6088 170.07 58.0765C170.704 56.5443 171.779 55.2343 173.157 54.3128C174.537 53.3913 176.159 52.8988 177.818 52.8988H181.81V44.9183H177.818C173.48 44.9183 169.32 46.6405 166.253 49.7074C163.186 52.7742 161.464 56.9346 161.464 61.2718C161.464 65.6088 163.186 69.7685 166.253 72.8353C169.32 75.9022 173.48 77.6253 177.818 77.6253C182.151 77.6178 186.305 75.8918 189.367 72.8265C192.43 69.7609 194.153 65.6053 194.156 61.2718V44.3871C196.687 45.9152 199.587 46.7204 202.543 46.7162H206.564V38.7494H202.571C200.347 38.7493 198.213 37.8659 196.641 36.2933C195.068 34.7206 194.185 32.5868 194.185 30.3626V26.3753H186.203Z" fill="#BBBBBB"/>
</g>
<g clip-path="url(#clip4_4231_12185)">
<path d="M251.666 12.3978C269.166 10.5308 286.815 10.5308 304.315 12.3978C307.713 12.7567 310.885 14.2695 313.303 16.6839C315.721 19.0984 317.238 22.2688 317.602 25.6664C319.469 43.1659 319.469 60.8152 317.602 78.3148C317.243 81.7129 315.73 84.8852 313.316 87.3031C310.901 89.721 307.731 91.2382 304.333 91.6019C286.834 93.4689 269.184 93.4689 251.685 91.6019C248.287 91.2429 245.114 89.7302 242.697 87.3158C240.279 84.9012 238.761 81.731 238.398 78.3333C236.531 60.8338 236.531 43.1845 238.398 25.6849C238.757 22.2868 240.269 19.1145 242.684 16.6966C245.098 14.2787 248.269 12.7615 251.666 12.3978ZM280.203 26.3753V61.2855C280.203 62.9441 279.712 64.5656 278.79 65.9447C277.869 67.3238 276.559 68.3988 275.027 69.0335C273.494 69.6683 271.808 69.8347 270.181 69.5111C268.554 69.1875 267.06 68.388 265.887 67.2152C264.714 66.0424 263.916 64.5479 263.592 62.9212C263.269 61.2946 263.435 59.6088 264.07 58.0765C264.704 56.5443 265.779 55.2343 267.157 54.3128C268.537 53.3913 270.159 52.8988 271.818 52.8988H275.81V44.9183H271.818C267.48 44.9183 263.32 46.6405 260.253 49.7074C257.186 52.7742 255.464 56.9346 255.464 61.2718C255.464 65.6088 257.186 69.7685 260.253 72.8353C263.32 75.9022 267.48 77.6253 271.818 77.6253C276.151 77.6178 280.305 75.8918 283.367 72.8265C286.43 69.7609 288.153 65.6053 288.156 61.2718V44.3871C290.687 45.9152 293.587 46.7204 296.543 46.7162H300.564V38.7494H296.571C294.347 38.7493 292.213 37.8659 290.641 36.2933C289.068 34.7206 288.185 32.5868 288.185 30.3626V26.3753H280.203Z" fill="#BBBBBB"/>
</g>
<g clip-path="url(#clip5_4231_12185)">
<path d="M345.666 12.3978C363.166 10.5308 380.815 10.5308 398.315 12.3978C401.713 12.7567 404.885 14.2695 407.303 16.6839C409.721 19.0984 411.238 22.2688 411.602 25.6664C413.469 43.1659 413.469 60.8152 411.602 78.3148C411.243 81.7129 409.73 84.8852 407.316 87.3031C404.901 89.721 401.731 91.2382 398.333 91.6019C380.834 93.4689 363.184 93.4689 345.685 91.6019C342.287 91.2429 339.114 89.7302 336.697 87.3158C334.279 84.9012 332.761 81.731 332.398 78.3333C330.531 60.8338 330.531 43.1845 332.398 25.6849C332.757 22.2868 334.269 19.1145 336.684 16.6966C339.098 14.2787 342.269 12.7615 345.666 12.3978ZM374.203 26.3753V61.2855C374.203 62.9441 373.712 64.5656 372.79 65.9447C371.869 67.3238 370.559 68.3988 369.027 69.0335C367.494 69.6683 365.808 69.8347 364.181 69.5111C362.554 69.1875 361.06 68.388 359.887 67.2152C358.714 66.0424 357.916 64.5479 357.592 62.9212C357.269 61.2946 357.435 59.6088 358.07 58.0765C358.704 56.5443 359.779 55.2343 361.157 54.3128C362.537 53.3913 364.159 52.8988 365.818 52.8988H369.81V44.9183H365.818C361.48 44.9183 357.32 46.6405 354.253 49.7074C351.186 52.7742 349.464 56.9346 349.464 61.2718C349.464 65.6088 351.186 69.7685 354.253 72.8353C357.32 75.9022 361.48 77.6253 365.818 77.6253C370.151 77.6178 374.305 75.8918 377.367 72.8265C380.43 69.7609 382.153 65.6053 382.156 61.2718V44.3871C384.687 45.9152 387.587 46.7204 390.543 46.7162H394.564V38.7494H390.571C388.347 38.7493 386.213 37.8659 384.641 36.2933C383.068 34.7206 382.185 32.5868 382.185 30.3626V26.3753H374.203Z" fill="#BBBBBB"/>
</g>
</g>
<defs>
<clipPath id="clip0_4231_12185">
<rect width="369" height="104" fill="white"/>
</clipPath>
<clipPath id="clip1_4231_12185">
<rect width="82" height="82" fill="white" transform="translate(-45 11)"/>
</clipPath>
<clipPath id="clip2_4231_12185">
<rect width="82" height="82" fill="white" transform="translate(49 11)"/>
</clipPath>
<clipPath id="clip3_4231_12185">
<rect width="82" height="82" fill="white" transform="translate(143 11)"/>
</clipPath>
<clipPath id="clip4_4231_12185">
<rect width="82" height="82" fill="white" transform="translate(237 11)"/>
</clipPath>
<clipPath id="clip5_4231_12185">
<rect width="82" height="82" fill="white" transform="translate(331 11)"/>
</clipPath>
</defs>
</svg>
