<svg width="442" height="100" viewBox="0 0 442 100" fill="none" xmlns="http://www.w3.org/2000/svg">
<path d="M438.71 93.5484C440.491 93.5484 441.935 94.9926 441.935 96.7742C441.935 98.5558 440.491 100 438.71 100H3.22581C1.44424 100 0 98.5558 0 96.7742C0 94.9926 1.44424 93.5484 3.22581 93.5484H438.71Z" fill="#BBBBBB"/>
<path d="M46.6632 65.4368C46.9004 65.4368 47.0932 65.6296 47.0932 65.8668V68.5925C47.0931 68.8296 46.9003 69.0225 46.6632 69.0225H33.1811C32.9441 69.0223 32.7519 68.8295 32.7519 68.5925V65.8668C32.7519 65.6297 32.944 65.4369 33.1811 65.4368H46.6632Z" fill="#BBBBBB"/>
<path d="M67.3127 62.0503C67.5872 62.0507 67.8094 62.2735 67.8097 62.548V63.9428C67.8095 64.2174 67.5873 64.4401 67.3127 64.4405H13.334C13.0591 64.4405 12.8356 64.2177 12.8355 63.9428V62.548C12.8358 62.2733 13.0592 62.0503 13.334 62.0503H67.3127Z" fill="#BBBBBB"/>
<path d="M67.3127 58.4646C67.5873 58.465 67.8095 58.6884 67.8097 58.9631V60.3579C67.8095 60.6325 67.5873 60.8544 67.3127 60.8548H13.334C13.0591 60.8548 12.8356 60.6328 12.8355 60.3579V58.9631C12.8356 58.6882 13.0591 58.4646 13.334 58.4646H67.3127Z" fill="#BBBBBB"/>
<path d="M62.133 50C62.408 50 62.6315 50.2235 62.6315 50.4985V55.4782C62.6312 55.7529 62.4078 55.9751 62.133 55.9751H19.3092C19.0344 55.9751 18.811 55.7529 18.8106 55.4782V50.4985C18.8106 50.2236 19.0342 50.0001 19.3092 50H62.133Z" fill="#BBBBBB"/>
<path fill-rule="evenodd" clip-rule="evenodd" d="M41.9599 38.6278C42.1198 38.6278 42.2615 38.6812 42.3765 38.7758L42.4828 38.8845L42.4899 38.8932L44.2997 41.3236L44.3092 41.3377C44.4493 41.5495 44.4722 41.7934 44.354 42.0245C44.3003 42.1295 44.2218 42.2233 44.1146 42.2891C44.0075 42.3547 43.8884 42.3811 43.7705 42.3812H37.0141C36.8962 42.3812 36.7769 42.3545 36.6699 42.2891C36.5631 42.2235 36.4845 42.1297 36.4305 42.0253C36.3735 41.9148 36.3453 41.7903 36.3604 41.6598C36.3754 41.5314 36.4299 41.4181 36.503 41.322L37.537 39.9595L37.5425 39.9524C37.6682 39.7971 37.8435 39.6958 38.056 39.6957C38.2046 39.6958 38.3386 39.7426 38.4514 39.8256L38.5577 39.9209L38.5671 39.9327L39.6106 41.1936L41.4362 38.8861L41.4385 38.8837L41.5449 38.7758C41.6596 38.6816 41.8003 38.6279 41.9599 38.6278ZM36.7384 41.9544C36.7407 41.9573 36.7439 41.9595 36.7463 41.9623C36.7282 41.9403 36.7112 41.9155 36.6967 41.8874L36.7384 41.9544ZM44.0879 41.8874L44.117 41.815C44.1186 41.8091 44.118 41.8027 44.1194 41.7969C44.1122 41.8268 44.1032 41.8574 44.0879 41.8874Z" fill="#BBBBBB"/>
<path fill-rule="evenodd" clip-rule="evenodd" d="M46.0457 30.5798C46.5322 30.5799 46.9542 30.7473 47.29 31.083C47.584 31.3771 47.7487 31.737 47.7846 32.1486L47.7917 32.3266V43.7728C47.7915 44.259 47.6251 44.6806 47.29 45.0164C46.9964 45.3105 46.6365 45.4758 46.2245 45.5117L46.0449 45.5181H34.6002C34.1135 45.5179 33.6913 45.3517 33.3559 45.0164C33.0626 44.7228 32.8981 44.3626 32.8613 43.9508L32.8535 43.7713V32.3266C32.8536 31.8397 33.0199 31.4169 33.3559 31.0815C33.6917 30.7466 34.1142 30.5806 34.6002 30.5798H46.0457ZM46.1961 45.2141L46.3245 45.1975C46.3296 45.1966 46.3352 45.1945 46.3403 45.1936C46.2934 45.202 46.2451 45.2099 46.1961 45.2141ZM33.1756 44.0501C33.1762 44.054 33.1772 44.058 33.1779 44.0619C33.1698 44.0166 33.1632 43.9705 33.159 43.9233L33.1756 44.0501ZM34.6002 32.0738C34.5553 32.0739 34.5007 32.0894 34.4309 32.1588C34.3619 32.2275 34.3473 32.281 34.3474 32.3258V43.7728C34.3476 43.8168 34.3631 43.8708 34.4325 43.9406C34.501 44.0094 34.5551 44.025 34.5995 44.0249H46.0457C46.0898 44.0248 46.1442 44.0087 46.2142 43.939C46.283 43.8705 46.2978 43.8175 46.2977 43.7728V32.3266C46.2976 32.2816 46.282 32.2278 46.2127 32.158C46.1439 32.089 46.0905 32.0736 46.0457 32.0738H34.6002Z" fill="#BBBBBB"/>
<path fill-rule="evenodd" clip-rule="evenodd" d="M70.3968 9.67742C76.0567 9.67742 80.6451 14.2659 80.6452 19.9258V80.0742C80.6452 85.7342 76.0567 90.3226 70.3968 90.3226H10.2484C4.58849 90.3225 0 85.7341 0 80.0742V19.9258C0.000106252 14.266 4.58856 9.67753 10.2484 9.67742H70.3968ZM10.2484 16.8481C8.54874 16.8482 7.17075 18.2262 7.17065 19.9258V80.0742C7.17065 81.7739 8.54867 83.1518 10.2484 83.1519H70.3968C72.0966 83.1519 73.4745 81.774 73.4745 80.0742V19.9258C73.4744 18.2261 72.0965 16.8481 70.3968 16.8481H10.2484Z" fill="#BBBBBB"/>
<path d="M136.986 65.4368C137.223 65.4368 137.416 65.6296 137.416 65.8668V68.5925C137.416 68.8296 137.223 69.0225 136.986 69.0225H123.504C123.267 69.0223 123.075 68.8295 123.074 68.5925V65.8668C123.074 65.6297 123.267 65.4369 123.504 65.4368H136.986Z" fill="#BBBBBB"/>
<path d="M157.635 62.0503C157.91 62.0507 158.132 62.2735 158.132 62.548V63.9428C158.132 64.2174 157.91 64.4401 157.635 64.4405H103.657C103.382 64.4405 103.158 64.2177 103.158 63.9428V62.548C103.158 62.2733 103.382 62.0503 103.657 62.0503H157.635Z" fill="#BBBBBB"/>
<path d="M157.635 58.4646C157.91 58.465 158.132 58.6884 158.132 58.9631V60.3579C158.132 60.6325 157.91 60.8544 157.635 60.8548H103.657C103.382 60.8548 103.158 60.6328 103.158 60.3579V58.9631C103.158 58.6882 103.382 58.4646 103.657 58.4646H157.635Z" fill="#BBBBBB"/>
<path d="M152.456 50C152.731 50 152.954 50.2235 152.954 50.4985V55.4782C152.954 55.7529 152.73 55.9751 152.456 55.9751H109.632C109.357 55.9751 109.134 55.7529 109.133 55.4782V50.4985C109.133 50.2236 109.357 50.0001 109.632 50H152.456Z" fill="#BBBBBB"/>
<path fill-rule="evenodd" clip-rule="evenodd" d="M132.282 38.6278C132.442 38.6278 132.584 38.6812 132.699 38.7758L132.805 38.8845L132.812 38.8932L134.622 41.3236L134.632 41.3377C134.772 41.5495 134.795 41.7934 134.677 42.0245C134.623 42.1295 134.544 42.2233 134.437 42.2891C134.33 42.3547 134.211 42.3811 134.093 42.3812H127.337C127.219 42.3812 127.099 42.3545 126.993 42.2891C126.886 42.2235 126.807 42.1297 126.753 42.0253C126.696 41.9148 126.668 41.7903 126.683 41.6598C126.698 41.5314 126.753 41.4181 126.826 41.322L127.86 39.9595L127.865 39.9524C127.991 39.7971 128.166 39.6958 128.379 39.6957C128.527 39.6958 128.661 39.7426 128.774 39.8256L128.88 39.9209L128.89 39.9327L129.933 41.1936L131.759 38.8861L131.761 38.8837L131.867 38.7758C131.982 38.6816 132.123 38.6279 132.282 38.6278ZM127.061 41.9544C127.063 41.9573 127.067 41.9595 127.069 41.9623C127.051 41.9403 127.034 41.9155 127.019 41.8874L127.061 41.9544ZM134.41 41.8874L134.44 41.815C134.441 41.8091 134.441 41.8027 134.442 41.7969C134.435 41.8268 134.426 41.8574 134.41 41.8874Z" fill="#BBBBBB"/>
<path fill-rule="evenodd" clip-rule="evenodd" d="M136.368 30.5798C136.855 30.5799 137.277 30.7473 137.613 31.083C137.907 31.3771 138.071 31.737 138.107 32.1486L138.114 32.3266V43.7728C138.114 44.259 137.948 44.6806 137.613 45.0164C137.319 45.3105 136.959 45.4758 136.547 45.5117L136.368 45.5181H124.923C124.436 45.5179 124.014 45.3517 123.678 45.0164C123.385 44.7228 123.221 44.3626 123.184 43.9508L123.176 43.7713V32.3266C123.176 31.8397 123.342 31.4169 123.678 31.0815C124.014 30.7466 124.437 30.5806 124.923 30.5798H136.368ZM136.519 45.2141L136.647 45.1975C136.652 45.1966 136.658 45.1945 136.663 45.1936C136.616 45.202 136.568 45.2099 136.519 45.2141ZM123.498 44.0501C123.499 44.054 123.5 44.058 123.501 44.0619C123.492 44.0166 123.486 43.9705 123.482 43.9233L123.498 44.0501ZM124.923 32.0738C124.878 32.0739 124.823 32.0894 124.753 32.1588C124.685 32.2275 124.67 32.281 124.67 32.3258V43.7728C124.67 43.8168 124.686 43.8708 124.755 43.9406C124.824 44.0094 124.878 44.025 124.922 44.0249H136.368C136.412 44.0248 136.467 44.0087 136.537 43.939C136.606 43.8705 136.62 43.8175 136.62 43.7728V32.3266C136.62 32.2816 136.605 32.2278 136.535 32.158C136.466 32.089 136.413 32.0736 136.368 32.0738H124.923Z" fill="#BBBBBB"/>
<path fill-rule="evenodd" clip-rule="evenodd" d="M160.719 9.67742C166.379 9.67742 170.968 14.2659 170.968 19.9258V80.0742C170.968 85.7342 166.379 90.3226 160.719 90.3226H100.571C94.9111 90.3225 90.3226 85.7341 90.3226 80.0742V19.9258C90.3227 14.266 94.9111 9.67753 100.571 9.67742H160.719ZM100.571 16.8481C98.8713 16.8482 97.4933 18.2262 97.4932 19.9258V80.0742C97.4932 81.7739 98.8713 83.1518 100.571 83.1519H160.719C162.419 83.1519 163.797 81.774 163.797 80.0742V19.9258C163.797 18.2261 162.419 16.8481 160.719 16.8481H100.571Z" fill="#BBBBBB"/>
<path d="M227.308 65.4368C227.546 65.4368 227.738 65.6296 227.738 65.8668V68.5925C227.738 68.8296 227.545 69.0225 227.308 69.0225H213.826C213.589 69.0223 213.397 68.8295 213.397 68.5925V65.8668C213.397 65.6297 213.589 65.4369 213.826 65.4368H227.308Z" fill="#BBBBBB"/>
<path d="M247.958 62.0503C248.232 62.0507 248.455 62.2735 248.455 62.548V63.9428C248.455 64.2174 248.232 64.4401 247.958 64.4405H193.979C193.704 64.4405 193.481 64.2177 193.481 63.9428V62.548C193.481 62.2733 193.704 62.0503 193.979 62.0503H247.958Z" fill="#BBBBBB"/>
<path d="M247.958 58.4646C248.232 58.465 248.455 58.6884 248.455 58.9631V60.3579C248.455 60.6325 248.232 60.8544 247.958 60.8548H193.979C193.704 60.8548 193.481 60.6328 193.481 60.3579V58.9631C193.481 58.6882 193.704 58.4646 193.979 58.4646H247.958Z" fill="#BBBBBB"/>
<path d="M242.778 50C243.053 50 243.277 50.2235 243.277 50.4985V55.4782C243.276 55.7529 243.053 55.9751 242.778 55.9751H199.954C199.68 55.9751 199.456 55.7529 199.456 55.4782V50.4985C199.456 50.2236 199.679 50.0001 199.954 50H242.778Z" fill="#BBBBBB"/>
<path fill-rule="evenodd" clip-rule="evenodd" d="M222.605 38.6278C222.765 38.6278 222.907 38.6812 223.022 38.7758L223.128 38.8845L223.135 38.8932L224.945 41.3236L224.954 41.3377C225.094 41.5495 225.117 41.7934 224.999 42.0245C224.945 42.1295 224.867 42.2233 224.76 42.2891C224.653 42.3547 224.534 42.3811 224.416 42.3812H217.659C217.541 42.3812 217.422 42.3545 217.315 42.2891C217.208 42.2235 217.13 42.1297 217.076 42.0253C217.019 41.9148 216.99 41.7903 217.006 41.6598C217.021 41.5314 217.075 41.4181 217.148 41.322L218.182 39.9595L218.188 39.9524C218.313 39.7971 218.489 39.6958 218.701 39.6957C218.85 39.6958 218.984 39.7426 219.097 39.8256L219.203 39.9209L219.212 39.9327L220.256 41.1936L222.081 38.8861L222.084 38.8837L222.19 38.7758C222.305 38.6816 222.445 38.6279 222.605 38.6278ZM217.384 41.9544C217.386 41.9573 217.389 41.9595 217.391 41.9623C217.373 41.9403 217.356 41.9155 217.342 41.8874L217.384 41.9544ZM224.733 41.8874L224.762 41.815C224.764 41.8091 224.763 41.8027 224.765 41.7969C224.757 41.8268 224.748 41.8574 224.733 41.8874Z" fill="#BBBBBB"/>
<path fill-rule="evenodd" clip-rule="evenodd" d="M226.691 30.5798C227.177 30.5799 227.599 30.7473 227.935 31.083C228.229 31.3771 228.394 31.737 228.43 32.1486L228.437 32.3266V43.7728C228.437 44.259 228.27 44.6806 227.935 45.0164C227.642 45.3105 227.282 45.4758 226.87 45.5117L226.69 45.5181H215.245C214.759 45.5179 214.337 45.3517 214.001 45.0164C213.708 44.7228 213.543 44.3626 213.506 43.9508L213.499 43.7713V32.3266C213.499 31.8397 213.665 31.4169 214.001 31.0815C214.337 30.7466 214.759 30.5806 215.245 30.5798H226.691ZM226.841 45.2141L226.97 45.1975C226.975 45.1966 226.98 45.1945 226.985 45.1936C226.939 45.202 226.89 45.2099 226.841 45.2141ZM213.821 44.0501C213.821 44.054 213.822 44.058 213.823 44.0619C213.815 44.0166 213.808 43.9705 213.804 43.9233L213.821 44.0501ZM215.245 32.0738C215.2 32.0739 215.146 32.0894 215.076 32.1588C215.007 32.2275 214.992 32.281 214.993 32.3258V43.7728C214.993 43.8168 215.008 43.8708 215.078 43.9406C215.146 44.0094 215.2 44.025 215.245 44.0249H226.691C226.735 44.0248 226.789 44.0087 226.859 43.939C226.928 43.8705 226.943 43.8175 226.943 43.7728V32.3266C226.943 32.2816 226.927 32.2278 226.858 32.158C226.789 32.089 226.736 32.0736 226.691 32.0738H215.245Z" fill="#BBBBBB"/>
<path fill-rule="evenodd" clip-rule="evenodd" d="M251.042 9.67742C256.702 9.67742 261.29 14.2659 261.29 19.9258V80.0742C261.29 85.7342 256.702 90.3226 251.042 90.3226H190.894C185.234 90.3225 180.645 85.7341 180.645 80.0742V19.9258C180.645 14.266 185.234 9.67753 190.894 9.67742H251.042ZM190.894 16.8481C189.194 16.8482 187.816 18.2262 187.816 19.9258V80.0742C187.816 81.7739 189.194 83.1518 190.894 83.1519H251.042C252.742 83.1519 254.12 81.774 254.12 80.0742V19.9258C254.12 18.2261 252.742 16.8481 251.042 16.8481H190.894Z" fill="#BBBBBB"/>
<path d="M317.631 65.4368C317.868 65.4368 318.061 65.6296 318.061 65.8668V68.5925C318.061 68.8296 317.868 69.0225 317.631 69.0225H304.149C303.912 69.0223 303.72 68.8295 303.72 68.5925V65.8668C303.72 65.6297 303.912 65.4369 304.149 65.4368H317.631Z" fill="#BBBBBB"/>
<path d="M338.28 62.0503C338.555 62.0507 338.777 62.2735 338.777 62.548V63.9428C338.777 64.2174 338.555 64.4401 338.28 64.4405H284.302C284.027 64.4405 283.803 64.2177 283.803 63.9428V62.548C283.804 62.2733 284.027 62.0503 284.302 62.0503H338.28Z" fill="#BBBBBB"/>
<path d="M338.28 58.4646C338.555 58.465 338.777 58.6884 338.777 58.9631V60.3579C338.777 60.6325 338.555 60.8544 338.28 60.8548H284.302C284.027 60.8548 283.803 60.6328 283.803 60.3579V58.9631C283.803 58.6882 284.027 58.4646 284.302 58.4646H338.28Z" fill="#BBBBBB"/>
<path d="M333.101 50C333.376 50 333.599 50.2235 333.599 50.4985V55.4782C333.599 55.7529 333.376 55.9751 333.101 55.9751H290.277C290.002 55.9751 289.779 55.7529 289.778 55.4782V50.4985C289.778 50.2236 290.002 50.0001 290.277 50H333.101Z" fill="#BBBBBB"/>
<path fill-rule="evenodd" clip-rule="evenodd" d="M312.928 38.6278C313.088 38.6278 313.229 38.6812 313.344 38.7758L313.451 38.8845L313.458 38.8932L315.267 41.3236L315.277 41.3377C315.417 41.5495 315.44 41.7934 315.322 42.0245C315.268 42.1295 315.19 42.2233 315.082 42.2891C314.975 42.3547 314.856 42.3811 314.738 42.3812H307.982C307.864 42.3812 307.745 42.3545 307.638 42.2891C307.531 42.2235 307.452 42.1297 307.398 42.0253C307.341 41.9148 307.313 41.7903 307.328 41.6598C307.343 41.5314 307.398 41.4181 307.471 41.322L308.505 39.9595L308.51 39.9524C308.636 39.7971 308.811 39.6958 309.024 39.6957C309.172 39.6958 309.306 39.7426 309.419 39.8256L309.525 39.9209L309.535 39.9327L310.578 41.1936L312.404 38.8861L312.406 38.8837L312.513 38.7758C312.627 38.6816 312.768 38.6279 312.928 38.6278ZM307.706 41.9544C307.708 41.9573 307.712 41.9595 307.714 41.9623C307.696 41.9403 307.679 41.9155 307.664 41.8874L307.706 41.9544ZM315.056 41.8874L315.085 41.815C315.086 41.8091 315.086 41.8027 315.087 41.7969C315.08 41.8268 315.071 41.8574 315.056 41.8874Z" fill="#BBBBBB"/>
<path fill-rule="evenodd" clip-rule="evenodd" d="M317.013 30.5798C317.5 30.5799 317.922 30.7473 318.258 31.083C318.552 31.3771 318.716 31.737 318.752 32.1486L318.759 32.3266V43.7728C318.759 44.259 318.593 44.6806 318.258 45.0164C317.964 45.3105 317.604 45.4758 317.192 45.5117L317.013 45.5181H305.568C305.081 45.5179 304.659 45.3517 304.324 45.0164C304.03 44.7228 303.866 44.3626 303.829 43.9508L303.821 43.7713V32.3266C303.821 31.8397 303.988 31.4169 304.324 31.0815C304.659 30.7466 305.082 30.5806 305.568 30.5798H317.013ZM317.164 45.2141L317.292 45.1975C317.297 45.1966 317.303 45.1945 317.308 45.1936C317.261 45.202 317.213 45.2099 317.164 45.2141ZM304.143 44.0501C304.144 44.054 304.145 44.058 304.146 44.0619C304.138 44.0166 304.131 43.9705 304.127 43.9233L304.143 44.0501ZM305.568 32.0738C305.523 32.0739 305.468 32.0894 305.399 32.1588C305.33 32.2275 305.315 32.281 305.315 32.3258V43.7728C305.315 43.8168 305.331 43.8708 305.4 43.9406C305.469 44.0094 305.523 44.025 305.567 44.0249H317.013C317.058 44.0248 317.112 44.0087 317.182 43.939C317.251 43.8705 317.266 43.8175 317.265 43.7728V32.3266C317.265 32.2816 317.25 32.2278 317.18 32.158C317.112 32.089 317.058 32.0736 317.013 32.0738H305.568Z" fill="#BBBBBB"/>
<path fill-rule="evenodd" clip-rule="evenodd" d="M341.365 9.67742C347.024 9.67742 351.613 14.2659 351.613 19.9258V80.0742C351.613 85.7342 347.024 90.3226 341.365 90.3226H281.216C275.556 90.3225 270.968 85.7341 270.968 80.0742V19.9258C270.968 14.266 275.556 9.67753 281.216 9.67742H341.365ZM281.216 16.8481C279.516 16.8482 278.139 18.2262 278.138 19.9258V80.0742C278.138 81.7739 279.516 83.1518 281.216 83.1519H341.365C343.064 83.1519 344.442 81.774 344.442 80.0742V19.9258C344.442 18.2261 343.064 16.8481 341.365 16.8481H281.216Z" fill="#BBBBBB"/>
<path d="M407.953 65.4368C408.191 65.4368 408.383 65.6296 408.383 65.8668V68.5925C408.383 68.8296 408.191 69.0225 407.953 69.0225H394.471C394.234 69.0223 394.042 68.8295 394.042 68.5925V65.8668C394.042 65.6297 394.234 65.4369 394.471 65.4368H407.953Z" fill="#BBBBBB"/>
<path d="M428.603 62.0503C428.878 62.0507 429.1 62.2735 429.1 62.548V63.9428C429.1 64.2174 428.878 64.4401 428.603 64.4405H374.624C374.349 64.4405 374.126 64.2177 374.126 63.9428V62.548C374.126 62.2733 374.349 62.0503 374.624 62.0503H428.603Z" fill="#BBBBBB"/>
<path d="M428.603 58.4646C428.878 58.465 429.1 58.6884 429.1 58.9631V60.3579C429.1 60.6325 428.878 60.8544 428.603 60.8548H374.624C374.349 60.8548 374.126 60.6328 374.126 60.3579V58.9631C374.126 58.6882 374.349 58.4646 374.624 58.4646H428.603Z" fill="#BBBBBB"/>
<path d="M423.423 50C423.698 50 423.922 50.2235 423.922 50.4985V55.4782C423.922 55.7529 423.698 55.9751 423.423 55.9751H380.599C380.325 55.9751 380.101 55.7529 380.101 55.4782V50.4985C380.101 50.2236 380.325 50.0001 380.599 50H423.423Z" fill="#BBBBBB"/>
<path fill-rule="evenodd" clip-rule="evenodd" d="M403.25 38.6278C403.41 38.6278 403.552 38.6812 403.667 38.7758L403.773 38.8845L403.78 38.8932L405.59 41.3236L405.599 41.3377C405.74 41.5495 405.763 41.7934 405.644 42.0245C405.591 42.1295 405.512 42.2233 405.405 42.2891C405.298 42.3547 405.179 42.3811 405.061 42.3812H398.304C398.187 42.3812 398.067 42.3545 397.96 42.2891C397.853 42.2235 397.775 42.1297 397.721 42.0253C397.664 41.9148 397.636 41.7903 397.651 41.6598C397.666 41.5314 397.72 41.4181 397.793 41.322L398.827 39.9595L398.833 39.9524C398.959 39.7971 399.134 39.6958 399.346 39.6957C399.495 39.6958 399.629 39.7426 399.742 39.8256L399.848 39.9209L399.857 39.9327L400.901 41.1936L402.727 38.8861L402.729 38.8837L402.835 38.7758C402.95 38.6816 403.091 38.6279 403.25 38.6278ZM398.029 41.9544C398.031 41.9573 398.034 41.9595 398.037 41.9623C398.019 41.9403 398.001 41.9155 397.987 41.8874L398.029 41.9544ZM405.378 41.8874L405.407 41.815C405.409 41.8091 405.408 41.8027 405.41 41.7969C405.402 41.8268 405.393 41.8574 405.378 41.8874Z" fill="#BBBBBB"/>
<path fill-rule="evenodd" clip-rule="evenodd" d="M407.336 30.5798C407.822 30.5799 408.245 30.7473 408.58 31.083C408.874 31.3771 409.039 31.737 409.075 32.1486L409.082 32.3266V43.7728C409.082 44.259 408.915 44.6806 408.58 45.0164C408.287 45.3105 407.927 45.4758 407.515 45.5117L407.335 45.5181H395.891C395.404 45.5179 394.982 45.3517 394.646 45.0164C394.353 44.7228 394.188 44.3626 394.152 43.9508L394.144 43.7713V32.3266C394.144 31.8397 394.31 31.4169 394.646 31.0815C394.982 30.7466 395.405 30.5806 395.891 30.5798H407.336ZM407.486 45.2141L407.615 45.1975C407.62 45.1966 407.625 45.1945 407.631 45.1936C407.584 45.202 407.535 45.2099 407.486 45.2141ZM394.466 44.0501C394.467 44.054 394.468 44.058 394.468 44.0619C394.46 44.0166 394.454 43.9705 394.449 43.9233L394.466 44.0501ZM395.891 32.0738C395.846 32.0739 395.791 32.0894 395.721 32.1588C395.652 32.2275 395.638 32.281 395.638 32.3258V43.7728C395.638 43.8168 395.653 43.8708 395.723 43.9406C395.791 44.0094 395.845 44.025 395.89 44.0249H407.336C407.38 44.0248 407.434 44.0087 407.505 43.939C407.573 43.8705 407.588 43.8175 407.588 43.7728V32.3266C407.588 32.2816 407.572 32.2278 407.503 32.158C407.434 32.089 407.381 32.0736 407.336 32.0738H395.891Z" fill="#BBBBBB"/>
<path fill-rule="evenodd" clip-rule="evenodd" d="M431.687 9.67742C437.347 9.67742 441.935 14.2659 441.935 19.9258V80.0742C441.935 85.7342 437.347 90.3226 431.687 90.3226H371.539C365.879 90.3225 361.29 85.7341 361.29 80.0742V19.9258C361.29 14.266 365.879 9.67753 371.539 9.67742H431.687ZM371.539 16.8481C369.839 16.8482 368.461 18.2262 368.461 19.9258V80.0742C368.461 81.7739 369.839 83.1518 371.539 83.1519H431.687C433.387 83.1519 434.765 81.774 434.765 80.0742V19.9258C434.765 18.2261 433.387 16.8481 431.687 16.8481H371.539Z" fill="#BBBBBB"/>
<path d="M438.71 0C440.491 0 441.935 1.44424 441.935 3.22581C441.935 5.00737 440.491 6.45161 438.71 6.45161H3.22581C1.44424 6.45161 0 5.00737 0 3.22581C0 1.44424 1.44424 0 3.22581 0H438.71Z" fill="#BBBBBB"/>
</svg>
