<svg width="639" height="133" viewBox="0 0 639 133" fill="none" xmlns="http://www.w3.org/2000/svg">
<path d="M634.5 126C636.433 126 638 127.567 638 129.5C638 131.433 636.433 133 634.5 133H4.5C2.567 133 1 131.433 1 129.5C1 127.567 2.567 126 4.5 126H634.5Z" fill="#BBBBBB"/>
<path fill-rule="evenodd" clip-rule="evenodd" d="M94.4443 71.5557C103.649 71.5557 111.111 79.0179 111.111 88.2227V104.889C111.111 114.093 103.649 121.556 94.4443 121.556H16.667C7.46224 121.556 0 114.093 0 104.889V88.2227C0 79.0179 7.46224 71.5557 16.667 71.5557H94.4443ZM16.667 82.667C13.5987 82.667 11.1113 85.1544 11.1113 88.2227V104.889C11.1113 107.957 13.5987 110.444 16.667 110.444H94.4443C97.5126 110.444 100 107.957 100 104.889V88.2227C100 85.1544 97.5126 82.667 94.4443 82.667H16.667Z" fill="#BBBBBB"/>
<path fill-rule="evenodd" clip-rule="evenodd" d="M226.444 71.5557C235.649 71.5557 243.111 79.0179 243.111 88.2227V104.889C243.111 114.093 235.649 121.556 226.444 121.556H148.667C139.462 121.556 132 114.093 132 104.889V88.2227C132 79.0179 139.462 71.5557 148.667 71.5557H226.444ZM148.667 82.667C145.599 82.667 143.111 85.1544 143.111 88.2227V104.889C143.111 107.957 145.599 110.444 148.667 110.444H226.444C229.513 110.444 232 107.957 232 104.889V88.2227C232 85.1544 229.513 82.667 226.444 82.667H148.667Z" fill="#BBBBBB"/>
<path fill-rule="evenodd" clip-rule="evenodd" d="M358.444 71.5557C367.649 71.5557 375.111 79.0179 375.111 88.2227V104.889C375.111 114.093 367.649 121.556 358.444 121.556H280.667C271.462 121.556 264 114.093 264 104.889V88.2227C264 79.0179 271.462 71.5557 280.667 71.5557H358.444ZM280.667 82.667C277.599 82.667 275.111 85.1544 275.111 88.2227V104.889C275.111 107.957 277.599 110.444 280.667 110.444H358.444C361.513 110.444 364 107.957 364 104.889V88.2227C364 85.1544 361.513 82.667 358.444 82.667H280.667Z" fill="#BBBBBB"/>
<path fill-rule="evenodd" clip-rule="evenodd" d="M490.444 71.5557C499.649 71.5557 507.111 79.0179 507.111 88.2227V104.889C507.111 114.093 499.649 121.556 490.444 121.556H412.667C403.462 121.556 396 114.093 396 104.889V88.2227C396 79.0179 403.462 71.5557 412.667 71.5557H490.444ZM412.667 82.667C409.599 82.667 407.111 85.1544 407.111 88.2227V104.889C407.111 107.957 409.599 110.444 412.667 110.444H490.444C493.513 110.444 496 107.957 496 104.889V88.2227C496 85.1544 493.513 82.667 490.444 82.667H412.667Z" fill="#BBBBBB"/>
<path fill-rule="evenodd" clip-rule="evenodd" d="M621.444 71.5557C630.649 71.5557 638.111 79.0179 638.111 88.2227V104.889C638.111 114.093 630.649 121.556 621.444 121.556H543.667C534.462 121.556 527 114.093 527 104.889V88.2227C527 79.0179 534.462 71.5557 543.667 71.5557H621.444ZM543.667 82.667C540.599 82.667 538.111 85.1544 538.111 88.2227V104.889C538.111 107.957 540.599 110.444 543.667 110.444H621.444C624.513 110.444 627 107.957 627 104.889V88.2227C627 85.1544 624.513 82.667 621.444 82.667H543.667Z" fill="#BBBBBB"/>
<path fill-rule="evenodd" clip-rule="evenodd" d="M83.333 10.4443C98.6743 10.4443 111.111 22.8814 111.111 38.2227C111.111 53.5637 98.6741 66 83.333 66C67.9921 65.9998 55.5559 53.5636 55.5557 38.2227C55.5557 22.8816 67.992 10.4446 83.333 10.4443ZM83.333 21.5557C74.1285 21.5559 66.667 29.0181 66.667 38.2227C66.6672 47.4271 74.1286 54.8884 83.333 54.8887C92.5376 54.8887 99.9998 47.4272 100 38.2227C100 29.0179 92.5378 21.5557 83.333 21.5557Z" fill="#BBBBBB"/>
<path fill-rule="evenodd" clip-rule="evenodd" d="M215.333 10.4443C230.674 10.4443 243.111 22.8814 243.111 38.2227C243.111 53.5637 230.674 66 215.333 66C199.992 65.9998 187.556 53.5636 187.556 38.2227C187.556 22.8816 199.992 10.4446 215.333 10.4443ZM215.333 21.5557C206.128 21.5559 198.667 29.0181 198.667 38.2227C198.667 47.4271 206.129 54.8884 215.333 54.8887C224.538 54.8887 232 47.4272 232 38.2227C232 29.0179 224.538 21.5557 215.333 21.5557Z" fill="#BBBBBB"/>
<path fill-rule="evenodd" clip-rule="evenodd" d="M347.333 10.4443C362.674 10.4443 375.111 22.8814 375.111 38.2227C375.111 53.5637 362.674 66 347.333 66C331.992 65.9998 319.556 53.5636 319.556 38.2227C319.556 22.8816 331.992 10.4446 347.333 10.4443ZM347.333 21.5557C338.128 21.5559 330.667 29.0181 330.667 38.2227C330.667 47.4271 338.129 54.8884 347.333 54.8887C356.538 54.8887 364 47.4272 364 38.2227C364 29.0179 356.538 21.5557 347.333 21.5557Z" fill="#BBBBBB"/>
<path fill-rule="evenodd" clip-rule="evenodd" d="M479.333 10.4443C494.674 10.4443 507.111 22.8814 507.111 38.2227C507.111 53.5637 494.674 66 479.333 66C463.992 65.9998 451.556 53.5636 451.556 38.2227C451.556 22.8816 463.992 10.4446 479.333 10.4443ZM479.333 21.5557C470.128 21.5559 462.667 29.0181 462.667 38.2227C462.667 47.4271 470.129 54.8884 479.333 54.8887C488.538 54.8887 496 47.4272 496 38.2227C496 29.0179 488.538 21.5557 479.333 21.5557Z" fill="#BBBBBB"/>
<path fill-rule="evenodd" clip-rule="evenodd" d="M610.333 10.4443C625.674 10.4443 638.111 22.8814 638.111 38.2227C638.111 53.5637 625.674 66 610.333 66C594.992 65.9998 582.556 53.5636 582.556 38.2227C582.556 22.8816 594.992 10.4446 610.333 10.4443ZM610.333 21.5557C601.128 21.5559 593.667 29.0181 593.667 38.2227C593.667 47.4271 601.129 54.8884 610.333 54.8887C619.538 54.8887 627 47.4272 627 38.2227C627 29.0179 619.538 21.5557 610.333 21.5557Z" fill="#BBBBBB"/>
<path d="M44.4443 13.2227C47.5124 13.2227 49.9998 15.7093 50 18.7773C50 21.8456 47.5126 24.333 44.4443 24.333H16.667C13.5988 24.333 11.1114 26.8205 11.1113 29.8887V46.5557C11.1114 49.6238 13.5988 52.1113 16.667 52.1113H44.4443C47.5126 52.1113 50 54.5987 50 57.667C49.9998 60.7351 47.5125 63.2227 44.4443 63.2227H16.667C7.46224 63.2227 5.86076e-05 55.7602 0 46.5557V29.8887C0.000117054 20.684 7.46232 13.2227 16.667 13.2227H44.4443Z" fill="#BBBBBB"/>
<path d="M176.444 13.2227C179.512 13.2227 182 15.7093 182 18.7773C182 21.8456 179.513 24.333 176.444 24.333H148.667C145.599 24.333 143.111 26.8205 143.111 29.8887V46.5557C143.111 49.6238 145.599 52.1113 148.667 52.1113H176.444C179.513 52.1113 182 54.5987 182 57.667C182 60.7351 179.512 63.2227 176.444 63.2227H148.667C139.462 63.2227 132 55.7602 132 46.5557V29.8887C132 20.684 139.462 13.2227 148.667 13.2227H176.444Z" fill="#BBBBBB"/>
<path d="M308.444 13.2227C311.512 13.2227 314 15.7093 314 18.7773C314 21.8456 311.513 24.333 308.444 24.333H280.667C277.599 24.333 275.111 26.8205 275.111 29.8887V46.5557C275.111 49.6238 277.599 52.1113 280.667 52.1113H308.444C311.513 52.1113 314 54.5987 314 57.667C314 60.7351 311.512 63.2227 308.444 63.2227H280.667C271.462 63.2227 264 55.7602 264 46.5557V29.8887C264 20.684 271.462 13.2227 280.667 13.2227H308.444Z" fill="#BBBBBB"/>
<path d="M440.444 13.2227C443.512 13.2227 446 15.7093 446 18.7773C446 21.8456 443.513 24.333 440.444 24.333H412.667C409.599 24.333 407.111 26.8205 407.111 29.8887V46.5557C407.111 49.6238 409.599 52.1113 412.667 52.1113H440.444C443.513 52.1113 446 54.5987 446 57.667C446 60.7351 443.512 63.2227 440.444 63.2227H412.667C403.462 63.2227 396 55.7602 396 46.5557V29.8887C396 20.684 403.462 13.2227 412.667 13.2227H440.444Z" fill="#BBBBBB"/>
<path d="M571.444 13.2227C574.512 13.2227 577 15.7093 577 18.7773C577 21.8456 574.513 24.333 571.444 24.333H543.667C540.599 24.333 538.111 26.8205 538.111 29.8887V46.5557C538.111 49.6238 540.599 52.1113 543.667 52.1113H571.444C574.513 52.1113 577 54.5987 577 57.667C577 60.7351 574.512 63.2227 571.444 63.2227H543.667C534.462 63.2227 527 55.7602 527 46.5557V29.8887C527 20.684 534.462 13.2227 543.667 13.2227H571.444Z" fill="#BBBBBB"/>
<path d="M634.5 0C636.433 0 638 1.567 638 3.5C638 5.433 636.433 7 634.5 7H4.5C2.567 7 1 5.433 1 3.5C1 1.567 2.567 0 4.5 0H634.5Z" fill="#BBBBBB"/>
</svg>
