<svg width="100" height="100" viewBox="0 0 100 100" fill="none" xmlns="http://www.w3.org/2000/svg">
<path d="M4.19531 57.6445L9.05957 53.3896C10.7829 74.4475 28.4177 91 49.9199 91C69.6978 91 86.203 76.9956 90.0645 58.3623L94.8535 53.2773L99.3574 57.5176C95.7313 81.5652 74.9789 100 49.9199 100C23.2614 100 1.47607 79.1369 0 52.8477L4.19531 57.6445Z" fill="#BBBBBB"/>
<path d="M60.9688 59C61.5496 59.0001 61.8398 59.3199 61.8398 59.959V79.5371H68.2559C69.1274 79.5372 69.5634 79.9147 69.5635 80.6699V82.8672C69.5633 83.6224 69.1273 84 68.2559 84H50.334C49.4624 84 49.0265 83.6224 49.0264 82.8672V80.6699C49.0265 79.9146 49.4624 79.5371 50.334 79.5371H56.749V59.959C56.749 59.3198 57.04 59 57.6211 59H60.9688Z" fill="#BBBBBB"/>
<path d="M45.7627 59.0068C45.9984 59.0069 46.2538 59.074 46.4424 59.2812C46.6237 59.4808 46.6758 59.7369 46.6758 59.9668V70.0059H49.665C49.9528 70.0059 50.252 70.0669 50.4824 70.2666C50.725 70.4769 50.8114 70.7697 50.8115 71.0586V72.2354C50.8115 72.5243 50.7251 72.818 50.4824 73.0283C50.252 73.2279 49.9527 73.289 49.665 73.2891H40.0664C39.7787 73.289 39.4795 73.2279 39.249 73.0283C39.0064 72.818 38.92 72.5243 38.9199 72.2354V71.0586C38.92 70.7697 39.0064 70.4769 39.249 70.2666C39.4795 70.0669 39.7787 70.0059 40.0664 70.0059H43.0557V59.9668C43.0557 59.7369 43.1078 59.4808 43.2891 59.2812C43.4778 59.0738 43.7339 59.0068 43.9697 59.0068H45.7627Z" fill="#BBBBBB"/>
<path d="M34.9199 59C35.9808 59 36.9979 59.4217 37.748 60.1719C38.4982 60.922 38.9199 61.9391 38.9199 63C38.9199 64.0609 38.4982 65.078 37.748 65.8281C36.9979 66.5783 35.9808 67 34.9199 67C33.8591 67 32.8419 66.5783 32.0918 65.8281C31.3417 65.078 30.9199 64.0609 30.9199 63C30.9199 61.9391 31.3417 60.922 32.0918 60.1719C32.8419 59.4217 33.8591 59 34.9199 59Z" fill="#BBBBBB"/>
<path d="M49.9199 0C76.5176 0 98.2631 20.7681 99.8281 46.9727L94.5137 41.9688L90.7236 45.9922C88.7092 25.2295 71.2113 9 49.9199 9C29.9291 9 13.283 23.3078 9.65625 42.2412L4.95117 46.3555L0.650391 41.4375C4.71174 17.9028 25.2251 0 49.9199 0Z" fill="#BBBBBB"/>
<path d="M50.1494 16C51.0209 16 51.4569 16.3776 51.457 17.1328V19.3301C51.4569 20.0854 51.021 20.4629 50.1494 20.4629H43.7334V40.041C43.7334 40.6802 43.4433 40.9999 42.8623 41H39.5146C38.9336 41 38.6436 40.6802 38.6436 40.041V20.4629H32.2275C31.3559 20.4629 30.92 20.0854 30.9199 19.3301V17.1328C30.9201 16.3776 31.356 16 32.2275 16H50.1494Z" fill="#BBBBBB"/>
<path d="M65.5635 33C66.6243 33.0001 67.6415 33.4218 68.3916 34.1719C69.1417 34.922 69.5635 35.9392 69.5635 37C69.5635 38.0608 69.1417 39.078 68.3916 39.8281C67.6415 40.5782 66.6243 40.9999 65.5635 41C64.5026 41 63.4845 40.5783 62.7344 39.8281C61.9845 39.078 61.5635 38.0607 61.5635 37C61.5635 35.9393 61.9845 34.922 62.7344 34.1719C63.4845 33.4217 64.5026 33 65.5635 33Z" fill="#BBBBBB"/>
<path d="M60.417 26.7109C60.7046 26.711 61.004 26.772 61.2344 26.9717C61.477 27.182 61.5634 27.4757 61.5635 27.7646V28.9414C61.5634 29.2302 61.4768 29.5232 61.2344 29.7334C61.004 29.9331 60.7047 29.9941 60.417 29.9941H57.4268V40.0332C57.4267 40.2631 57.3756 40.5192 57.1943 40.7188C57.0056 40.9262 56.7495 40.9931 56.5137 40.9932H54.7207C54.485 40.9931 54.2296 40.926 54.041 40.7188C53.8597 40.5192 53.8076 40.2631 53.8076 40.0332V29.9941H50.8184C50.5306 29.9941 50.2315 29.9331 50.001 29.7334C49.7584 29.5231 49.672 29.2303 49.6719 28.9414V27.7646C49.6719 27.4757 49.7583 27.182 50.001 26.9717C50.2314 26.7721 50.5307 26.7109 50.8184 26.7109H60.417Z" fill="#BBBBBB"/>
</svg>
