<svg width="430" height="101" viewBox="0 0 430 101" fill="none" xmlns="http://www.w3.org/2000/svg">
<path d="M425.888 94.8641C427.447 94.8641 428.71 96.1275 428.71 97.6864C428.71 99.2452 427.446 100.509 425.888 100.509H4.11135C2.55282 100.508 1.28911 99.245 1.28899 97.6864C1.28899 96.1277 2.55274 94.8644 4.11135 94.8641H425.888Z" fill="#BBBBBB"/>
<path d="M46.4505 73.8958C47.7867 73.8958 48.8702 74.9793 48.8702 76.3155C48.87 77.6515 47.7866 78.7343 46.4505 78.7343H14.9991C13.663 78.7343 12.5796 77.6515 12.5794 76.3155C12.5794 74.9793 13.6629 73.8958 14.9991 73.8958H46.4505Z" fill="#BBBBBB"/>
<path d="M58.5481 60.9929C59.884 60.9931 60.9668 62.0757 60.9668 63.4117C60.9668 64.7477 59.8841 65.8312 58.5481 65.8314H14.9991C13.6629 65.8314 12.5794 64.7479 12.5794 63.4117C12.5794 62.0756 13.663 60.9929 14.9991 60.9929H58.5481Z" fill="#BBBBBB"/>
<path d="M66.6125 53.7347C67.9485 53.7349 69.0312 54.8175 69.0313 56.1535C69.0313 57.4896 67.9486 58.5731 66.6125 58.5732H14.9991C13.6629 58.5732 12.5794 57.4897 12.5794 56.1535C12.5795 54.8175 13.663 53.7348 14.9991 53.7347H66.6125Z" fill="#BBBBBB"/>
<path d="M66.6125 45.6694C67.9485 45.6695 69.0312 46.753 69.0313 48.0891C69.0313 49.4252 67.9486 50.5086 66.6125 50.5088H14.9991C13.6629 50.5088 12.5794 49.4253 12.5794 48.0891C12.5794 46.753 13.6629 45.6694 14.9991 45.6694H66.6125Z" fill="#BBBBBB"/>
<path d="M66.6125 37.605C67.9486 37.6051 69.0313 38.6886 69.0313 40.0247C69.0313 41.3607 67.9485 42.4442 66.6125 42.4444H14.9991C13.6629 42.4443 12.5794 41.3608 12.5794 40.0247C12.5794 38.6885 13.6629 37.605 14.9991 37.605H66.6125Z" fill="#BBBBBB"/>
<path fill-rule="evenodd" clip-rule="evenodd" d="M70.1315 10.1857C76.2049 10.186 81.1288 15.1098 81.1288 21.1831V79.8336C81.1288 85.9071 76.205 90.8307 70.1315 90.8309H11.4801C5.40666 90.8308 0.482727 85.9072 0.482727 79.8336V21.1831C0.48278 15.1097 5.4067 10.1858 11.4801 10.1857H70.1315ZM11.4801 17.5167C9.45573 17.5168 7.81466 19.1587 7.81461 21.1831V79.8336C7.81461 81.8581 9.45569 83.4998 11.4801 83.5H70.1315C72.1558 83.4997 73.797 81.858 73.797 79.8336V21.1831C73.7969 19.1588 72.1558 17.5169 70.1315 17.5167H11.4801Z" fill="#BBBBBB"/>
<path d="M133.548 73.8958C134.884 73.8958 135.967 74.9793 135.967 76.3155C135.967 77.6515 134.884 78.7343 133.548 78.7343H102.096C100.76 78.7342 99.6767 77.6515 99.6765 76.3155C99.6765 74.9794 100.76 73.8959 102.096 73.8958H133.548Z" fill="#BBBBBB"/>
<path d="M145.645 60.9929C146.981 60.9931 148.064 62.0757 148.064 63.4117C148.064 64.7478 146.981 65.8312 145.645 65.8314H102.096C100.76 65.8313 99.6765 64.7478 99.6765 63.4117C99.6766 62.0756 100.76 60.993 102.096 60.9929H145.645Z" fill="#BBBBBB"/>
<path d="M153.71 53.7347C155.046 53.7349 156.128 54.8175 156.128 56.1535C156.128 57.4896 155.046 58.5731 153.71 58.5732H102.096C100.76 58.5732 99.6765 57.4897 99.6765 56.1535C99.6766 54.8175 100.76 53.7348 102.096 53.7347H153.71Z" fill="#BBBBBB"/>
<path d="M153.71 45.6694C155.046 45.6695 156.128 46.753 156.128 48.0891C156.128 49.4252 155.046 50.5087 153.71 50.5088H102.096C100.76 50.5087 99.6765 49.4252 99.6765 48.0891C99.6765 46.753 100.76 45.6694 102.096 45.6694H153.71Z" fill="#BBBBBB"/>
<path d="M153.71 37.605C155.046 37.6051 156.128 38.6886 156.128 40.0247C156.128 41.3608 155.046 42.4442 153.71 42.4444H102.096C100.76 42.4443 99.6765 41.3608 99.6765 40.0247C99.6765 38.6885 100.76 37.605 102.096 37.605H153.71Z" fill="#BBBBBB"/>
<path fill-rule="evenodd" clip-rule="evenodd" d="M157.229 10.1857C163.302 10.1859 168.226 15.1098 168.226 21.1831V79.8336C168.226 85.9071 163.302 90.8307 157.229 90.8309H98.5772C92.5038 90.8308 87.5798 85.9072 87.5798 79.8336V21.1831C87.5799 15.1097 92.5038 10.1859 98.5772 10.1857H157.229ZM98.5772 17.5167C96.5528 17.5168 94.9118 19.1587 94.9117 21.1831V79.8336C94.9117 81.858 96.5528 83.4998 98.5772 83.5H157.229C159.253 83.4997 160.894 81.858 160.894 79.8336V21.1831C160.894 19.1588 159.253 17.5169 157.229 17.5167H98.5772Z" fill="#BBBBBB"/>
<path d="M220.645 73.8958C221.981 73.8958 223.064 74.9793 223.064 76.3155C223.064 77.6515 221.981 78.7343 220.645 78.7343H189.193C187.857 78.7342 186.775 77.6515 186.774 76.3155C186.774 74.9794 187.857 73.8959 189.193 73.8958H220.645Z" fill="#BBBBBB"/>
<path d="M232.742 60.9929C234.078 60.9931 235.161 62.0757 235.161 63.4117C235.161 64.7478 234.078 65.8312 232.742 65.8314H189.193C187.857 65.8313 186.774 64.7478 186.774 63.4117C186.775 62.0756 187.857 60.993 189.193 60.9929H232.742Z" fill="#BBBBBB"/>
<path d="M240.807 53.7347C242.143 53.7348 243.225 54.8175 243.225 56.1535C243.225 57.4896 242.143 58.5731 240.807 58.5732H189.193C187.857 58.5731 186.774 57.4896 186.774 56.1535C186.775 54.8175 187.857 53.7348 189.193 53.7347H240.807Z" fill="#BBBBBB"/>
<path d="M240.807 45.6694C242.143 45.6695 243.225 46.753 243.225 48.0891C243.225 49.4252 242.143 50.5087 240.807 50.5088H189.193C187.857 50.5087 186.774 49.4252 186.774 48.0891C186.775 46.753 187.857 45.6695 189.193 45.6694H240.807Z" fill="#BBBBBB"/>
<path d="M240.807 37.605C242.143 37.6051 243.225 38.6885 243.225 40.0247C243.225 41.3608 242.143 42.4443 240.807 42.4444H189.193C187.857 42.4443 186.774 41.3608 186.774 40.0247C186.774 38.6885 187.857 37.605 189.193 37.605H240.807Z" fill="#BBBBBB"/>
<path fill-rule="evenodd" clip-rule="evenodd" d="M244.326 10.1857C250.399 10.1859 255.323 15.1097 255.323 21.1831V79.8336C255.323 85.9072 250.399 90.8307 244.326 90.8309H185.674C179.601 90.8307 174.677 85.9072 174.677 79.8336V21.1831C174.677 15.1097 179.601 10.1859 185.674 10.1857H244.326ZM185.674 17.5167C183.65 17.5169 182.009 19.1588 182.009 21.1831V79.8336C182.009 81.858 183.65 83.4998 185.674 83.5H244.326C246.35 83.4998 247.991 81.858 247.991 79.8336V21.1831C247.991 19.1588 246.35 17.5169 244.326 17.5167H185.674Z" fill="#BBBBBB"/>
<path d="M307.743 73.8958C309.079 73.896 310.162 74.9795 310.162 76.3155C310.161 77.6514 309.079 78.7341 307.743 78.7343H276.29C274.954 78.7342 273.872 77.6514 273.872 76.3155C273.872 74.9794 274.954 73.8959 276.29 73.8958H307.743Z" fill="#BBBBBB"/>
<path d="M319.839 60.9929C321.175 60.993 322.258 62.0756 322.258 63.4117C322.258 64.7478 321.175 65.8313 319.839 65.8314H276.29C274.954 65.8313 273.872 64.7478 273.872 63.4117C273.872 62.0757 274.954 60.993 276.29 60.9929H319.839Z" fill="#BBBBBB"/>
<path d="M327.904 53.7347C329.24 53.7348 330.323 54.8175 330.323 56.1535C330.323 57.4897 329.24 58.5732 327.904 58.5732H276.29C274.954 58.5731 273.872 57.4896 273.872 56.1535C273.872 54.8175 274.954 53.7349 276.29 53.7347H327.904Z" fill="#BBBBBB"/>
<path d="M327.904 45.6694C329.24 45.6694 330.323 46.753 330.323 48.0891C330.323 49.4252 329.24 50.5088 327.904 50.5088H276.29C274.954 50.5087 273.872 49.4252 273.872 48.0891C273.872 46.753 274.954 45.6695 276.29 45.6694H327.904Z" fill="#BBBBBB"/>
<path d="M327.904 37.605C329.24 37.605 330.323 38.6885 330.323 40.0247C330.323 41.3608 329.24 42.4443 327.904 42.4444H276.29C274.954 42.4442 273.872 41.3608 273.872 40.0247C273.872 38.6886 274.954 37.6051 276.29 37.605H327.904Z" fill="#BBBBBB"/>
<path fill-rule="evenodd" clip-rule="evenodd" d="M331.423 10.1857C337.496 10.1859 342.42 15.1097 342.42 21.1831V79.8336C342.42 85.9072 337.496 90.8308 331.423 90.8309H272.771C266.698 90.8307 261.774 85.9071 261.774 79.8336V21.1831C261.774 15.1098 266.698 10.186 272.771 10.1857H331.423ZM272.771 17.5167C270.747 17.5169 269.106 19.1588 269.106 21.1831V79.8336C269.106 81.858 270.747 83.4997 272.771 83.5H331.423C333.447 83.4998 335.088 81.858 335.088 79.8336V21.1831C335.088 19.1587 333.447 17.5168 331.423 17.5167H272.771Z" fill="#BBBBBB"/>
<path d="M394.84 73.8958C396.176 73.896 397.259 74.9794 397.259 76.3155C397.258 77.6514 396.176 78.7341 394.84 78.7343H363.387C362.052 78.7341 360.969 77.6514 360.969 76.3155C360.969 74.9794 362.051 73.896 363.387 73.8958H394.84Z" fill="#BBBBBB"/>
<path d="M406.936 60.9929C408.273 60.993 409.355 62.0756 409.355 63.4117C409.355 64.7478 408.273 65.8313 406.936 65.8314H363.387C362.051 65.8312 360.969 64.7478 360.969 63.4117C360.969 62.0757 362.051 60.9931 363.387 60.9929H406.936Z" fill="#BBBBBB"/>
<path d="M415.001 53.7347C416.337 53.7347 417.42 54.8174 417.421 56.1535C417.421 57.4897 416.337 58.5732 415.001 58.5732H363.387C362.051 58.5731 360.969 57.4896 360.969 56.1535C360.969 54.8175 362.051 53.7349 363.387 53.7347H415.001Z" fill="#BBBBBB"/>
<path d="M415.001 45.6694C416.337 45.6694 417.421 46.753 417.421 48.0891C417.421 49.4253 416.337 50.5088 415.001 50.5088H363.387C362.051 50.5086 360.969 49.4252 360.969 48.0891C360.969 46.7531 362.051 45.6696 363.387 45.6694H415.001Z" fill="#BBBBBB"/>
<path d="M415.001 37.605C416.337 37.605 417.421 38.6885 417.421 40.0247C417.421 41.3608 416.337 42.4444 415.001 42.4444H363.387C362.051 42.4442 360.969 41.3607 360.969 40.0247C360.969 38.6886 362.051 37.6051 363.387 37.605H415.001Z" fill="#BBBBBB"/>
<path fill-rule="evenodd" clip-rule="evenodd" d="M418.52 10.1857C424.593 10.1858 429.517 15.1097 429.517 21.1831V79.8336C429.517 85.9072 424.593 90.8308 418.52 90.8309H359.869C353.796 90.8309 348.871 85.9073 348.871 79.8336V21.1831C348.871 15.1096 353.796 10.1857 359.869 10.1857H418.52ZM359.869 17.5167C357.845 17.5167 356.203 19.1586 356.203 21.1831V79.8336C356.203 81.8581 357.845 83.5 359.869 83.5H418.52C420.544 83.4999 422.185 81.8581 422.185 79.8336V21.1831C422.185 19.1587 420.544 17.5168 418.52 17.5167H359.869Z" fill="#BBBBBB"/>
<path d="M425.888 0.508789C427.447 0.508789 428.71 1.77228 428.71 3.33115C428.71 4.88992 427.446 6.15352 425.888 6.15352H4.11135C2.55282 6.15321 1.28911 4.88973 1.28899 3.33115C1.28899 1.77247 2.55274 0.509099 4.11135 0.508789H425.888Z" fill="#BBBBBB"/>
</svg>
