<svg width="400" height="100" viewBox="0 0 400 100" fill="none" xmlns="http://www.w3.org/2000/svg">
<path d="M395.45 94.2148C397.344 94.2151 398.88 95.5101 398.88 97.1074C398.88 98.7048 397.344 99.9998 395.45 100H3.43036C1.53587 100 0 98.7049 0 97.1074C1.51278e-05 95.5099 1.53588 94.2149 3.43036 94.2148H395.45Z" fill="#BBBBBB"/>
<path d="M55.7996 76.7383C58.3468 76.7383 60.4123 78.4791 60.4124 80.627C60.4124 82.7749 58.3469 84.5166 55.7996 84.5166H14.2901C11.7428 84.5166 9.67729 82.7749 9.67729 80.627C9.67743 78.4791 11.7429 76.7383 14.2901 76.7383H55.7996Z" fill="#BBBBBB"/>
<path d="M58.1054 67.0156C59.3791 67.0156 60.4124 67.886 60.4124 68.96C60.4123 70.0338 59.379 70.9043 58.1054 70.9043H11.9843C10.7107 70.9043 9.67744 70.0338 9.67729 68.96C9.67729 67.886 10.7106 67.0156 11.9843 67.0156H58.1054Z" fill="#BBBBBB"/>
<path d="M58.1054 62.1533C59.3791 62.1533 60.4124 63.0247 60.4124 64.0986C60.4122 65.1724 59.3789 66.043 58.1054 66.043H25.8204C24.5469 66.043 23.5148 65.1724 23.5146 64.0986C23.5146 63.0247 24.5468 62.1533 25.8204 62.1533H58.1054Z" fill="#BBBBBB"/>
<path d="M44.2693 57.292C45.5429 57.292 46.5751 58.1634 46.5751 59.2373C46.5748 60.311 45.5427 61.1816 44.2693 61.1816H11.9843C10.7108 61.1816 9.67758 60.3111 9.67729 59.2373C9.67729 58.1633 10.7106 57.292 11.9843 57.292H44.2693Z" fill="#BBBBBB"/>
<path d="M58.1054 52.4307C59.3789 52.4307 60.4121 53.3012 60.4124 54.375C60.4124 55.449 59.3791 56.3203 58.1054 56.3203H11.9843C10.7106 56.3203 9.67729 55.449 9.67729 54.375C9.67756 53.3012 10.7108 52.4307 11.9843 52.4307H58.1054Z" fill="#BBBBBB"/>
<path d="M30.3429 28.8018C31.0382 27.7271 32.8672 27.7271 33.5624 28.8018L39.3751 37.7871L41.3659 34.8486C42.0702 33.8099 43.8476 33.8099 44.5519 34.8486L48.7281 41.0117C49.4267 42.0427 48.5438 43.3268 47.1357 43.3271H24.0357C22.6437 43.3268 21.7593 42.0697 22.4259 41.0391L30.3429 28.8018Z" fill="#BBBBBB"/>
<path d="M42.9583 23.2188C44.9846 23.2188 46.6273 24.6039 46.6273 26.3125C46.6267 28.0207 44.9843 29.4053 42.9583 29.4053C40.9326 29.405 39.2899 28.0205 39.2894 26.3125C39.2894 24.6041 40.9323 23.219 42.9583 23.2188Z" fill="#BBBBBB"/>
<path fill-rule="evenodd" clip-rule="evenodd" d="M50.2973 15.4844C53.3361 15.4848 55.7993 17.5617 55.7996 20.124V44.874C55.7992 47.4364 53.3361 49.5132 50.2973 49.5137H20.9458C17.907 49.5135 15.4428 47.4365 15.4424 44.874V20.124C15.4427 17.5615 17.9069 15.4846 20.9458 15.4844H50.2973ZM20.9458 18.5771C19.9331 18.5774 19.1117 19.2701 19.1114 20.124V44.874C19.1118 45.7279 19.9332 46.4207 20.9458 46.4209H50.2973C51.3098 46.4205 52.1303 45.7278 52.1307 44.874V20.124C52.1303 19.2702 51.3099 18.5776 50.2973 18.5771H20.9458Z" fill="#BBBBBB"/>
<path fill-rule="evenodd" clip-rule="evenodd" d="M63.0738 8.68555C66.7293 8.84171 69.6369 11.3905 69.6369 14.5117V85.4883C69.6369 88.6095 66.7293 91.1583 63.0738 91.3145L62.7182 91.3223H7.37146C3.67009 91.3223 0.64753 88.8713 0.462092 85.7891L0.452827 85.4883V14.5117C0.452827 11.2898 3.55059 8.67774 7.37146 8.67773H62.7182L63.0738 8.68555ZM7.37146 12.5674C6.09784 12.5674 5.06564 13.4378 5.06564 14.5117V85.4883C5.06564 86.5622 6.09784 87.4336 7.37146 87.4336H62.7182C63.9918 87.4335 65.0241 86.5622 65.0241 85.4883V14.5117C65.0241 13.4378 63.9918 12.5674 62.7182 12.5674H7.37146Z" fill="#BBBBBB"/>
<path d="M138.391 76.7383C140.938 76.7385 143.003 78.4793 143.003 80.627C143.003 82.7747 140.938 84.5164 138.391 84.5166H96.8806C94.3334 84.5165 92.2689 82.7748 92.2689 80.627C92.2691 78.4792 94.3335 76.7384 96.8806 76.7383H138.391Z" fill="#BBBBBB"/>
<path d="M140.697 67.0156C141.971 67.0157 143.003 67.8861 143.003 68.96C143.003 70.0337 141.971 70.9042 140.697 70.9043H94.5748C93.3012 70.9043 92.2691 70.0338 92.2689 68.96C92.2689 67.886 93.3011 67.0156 94.5748 67.0156H140.697Z" fill="#BBBBBB"/>
<path d="M140.697 62.1533C141.971 62.1534 143.003 63.0247 143.003 64.0986C143.003 65.1724 141.97 66.0429 140.697 66.043H108.411C107.138 66.0428 106.105 65.1723 106.105 64.0986C106.105 63.0248 107.137 62.1535 108.411 62.1533H140.697Z" fill="#BBBBBB"/>
<path d="M126.86 57.292C128.133 57.292 129.167 58.1633 129.167 59.2373C129.167 60.3111 128.133 61.1816 126.86 61.1816H94.5748C93.3013 61.1816 92.2692 60.3111 92.2689 59.2373C92.2689 58.1633 93.3011 57.292 94.5748 57.292H126.86Z" fill="#BBBBBB"/>
<path d="M140.697 52.4307C141.97 52.4308 143.003 53.3013 143.003 54.375C143.003 55.4489 141.971 56.3202 140.697 56.3203H94.5748C93.3011 56.3203 92.2689 55.449 92.2689 54.375C92.2692 53.3012 93.3013 52.4307 94.5748 52.4307H140.697Z" fill="#BBBBBB"/>
<path d="M112.933 28.8018C113.629 27.727 115.459 27.727 116.154 28.8018L121.967 37.7871L123.958 34.8486C124.662 33.8102 126.438 33.8101 127.142 34.8486L131.32 41.0117C132.018 42.0426 131.135 43.3267 129.727 43.3271H106.626C105.234 43.3265 104.35 42.0696 105.016 41.0391L112.933 28.8018Z" fill="#BBBBBB"/>
<path d="M125.55 23.2188C127.576 23.219 129.218 24.6041 129.218 26.3125C129.217 28.0206 127.576 29.4051 125.55 29.4053C123.524 29.4051 121.882 28.0206 121.881 26.3125C121.881 24.604 123.524 23.2189 125.55 23.2188Z" fill="#BBBBBB"/>
<path fill-rule="evenodd" clip-rule="evenodd" d="M132.888 15.4844C135.927 15.4846 138.391 17.5615 138.391 20.124V44.874C138.391 47.4365 135.927 49.5135 132.888 49.5137H103.536C100.498 49.5133 98.0345 47.4364 98.0341 44.874V20.124C98.0344 17.5616 100.498 15.4848 103.536 15.4844H132.888ZM103.536 18.5771C102.524 18.5775 101.702 19.2702 101.702 20.124V44.874C101.702 45.7278 102.524 46.4205 103.536 46.4209H132.888C133.901 46.4207 134.722 45.7279 134.722 44.874V20.124C134.722 19.2701 133.901 18.5774 132.888 18.5771H103.536Z" fill="#BBBBBB"/>
<path fill-rule="evenodd" clip-rule="evenodd" d="M145.665 8.68555C149.321 8.84194 152.227 11.3906 152.227 14.5117V85.4883C152.227 88.6094 149.321 91.1581 145.665 91.3145L145.309 91.3223H89.962C86.2608 91.322 83.238 88.8712 83.0526 85.7891L83.0445 85.4883V14.5117C83.0445 11.29 86.1413 8.67796 89.962 8.67773H145.309L145.665 8.68555ZM89.962 12.5674C88.6886 12.5676 87.6561 13.4379 87.6561 14.5117V85.4883C87.6561 86.5621 88.6886 87.4334 89.962 87.4336H145.309C146.582 87.4336 147.616 86.5622 147.616 85.4883V14.5117C147.616 13.4378 146.582 12.5674 145.309 12.5674H89.962Z" fill="#BBBBBB"/>
<path d="M220.982 76.7383C223.529 76.7383 225.593 78.4791 225.593 80.627C225.593 82.7749 223.529 84.5166 220.982 84.5166H179.472C176.925 84.5166 174.859 82.7749 174.859 80.627C174.86 78.4791 176.925 76.7383 179.472 76.7383H220.982Z" fill="#BBBBBB"/>
<path d="M223.288 67.0156C224.561 67.0156 225.593 67.886 225.593 68.96C225.593 70.0338 224.561 70.9043 223.288 70.9043H177.165C175.892 70.9041 174.86 70.0337 174.859 68.96C174.859 67.8861 175.892 67.0158 177.165 67.0156H223.288Z" fill="#BBBBBB"/>
<path d="M223.288 62.1533C224.561 62.1533 225.593 63.0247 225.593 64.0986C225.593 65.1724 224.561 66.043 223.288 66.043H191.003C189.729 66.043 188.697 65.1724 188.697 64.0986C188.697 63.0247 189.729 62.1533 191.003 62.1533H223.288Z" fill="#BBBBBB"/>
<path d="M209.451 57.292C210.725 57.2921 211.757 58.1634 211.757 59.2373C211.757 60.311 210.725 61.1815 209.451 61.1816H177.165C175.892 61.1815 174.86 60.3109 174.859 59.2373C174.859 58.1635 175.892 57.2922 177.165 57.292H209.451Z" fill="#BBBBBB"/>
<path d="M223.288 52.4307C224.561 52.4307 225.593 53.3012 225.593 54.375C225.593 55.449 224.561 56.3203 223.288 56.3203H177.165C175.892 56.3201 174.859 55.4489 174.859 54.375C174.86 53.3013 175.892 52.4308 177.165 52.4307H223.288Z" fill="#BBBBBB"/>
<path d="M195.525 28.8018C196.22 27.7271 198.049 27.7271 198.745 28.8018L204.557 37.7871L206.548 34.8486C207.252 33.8099 209.03 33.8098 209.734 34.8486L213.91 41.0117C214.609 42.0427 213.726 43.3268 212.318 43.3271H189.218C187.826 43.3268 186.941 42.0696 187.607 41.0391L195.525 28.8018Z" fill="#BBBBBB"/>
<path d="M208.14 23.2188C210.167 23.2188 211.809 24.6039 211.809 26.3125C211.809 28.0207 210.166 29.4053 208.14 29.4053C206.115 29.4051 204.472 28.0206 204.472 26.3125C204.472 24.6041 206.114 23.2189 208.14 23.2188Z" fill="#BBBBBB"/>
<path fill-rule="evenodd" clip-rule="evenodd" d="M215.478 15.4844C218.517 15.4846 220.981 17.5615 220.982 20.124V44.874C220.981 47.4365 218.517 49.5135 215.478 49.5137H186.128C183.089 49.5135 180.625 47.4365 180.625 44.874V20.124C180.625 17.5615 183.089 15.4846 186.128 15.4844H215.478ZM186.128 18.5771C185.115 18.5774 184.294 19.2701 184.294 20.124V44.874C184.294 45.7279 185.115 46.4207 186.128 46.4209H215.478C216.491 46.4207 217.312 45.7279 217.313 44.874V20.124C217.312 19.2701 216.491 18.5774 215.478 18.5771H186.128Z" fill="#BBBBBB"/>
<path fill-rule="evenodd" clip-rule="evenodd" d="M228.256 8.68555C231.911 8.84174 234.818 11.3905 234.818 14.5117V85.4883C234.818 88.6095 231.911 91.1583 228.256 91.3145L227.9 91.3223H172.554C168.852 91.3223 165.83 88.8713 165.644 85.7891L165.635 85.4883V14.5117C165.635 11.2898 168.733 8.67773 172.554 8.67773H227.9L228.256 8.68555ZM172.554 12.5674C171.28 12.5674 170.248 13.4378 170.248 14.5117V85.4883C170.248 86.5622 171.28 87.4336 172.554 87.4336H227.9C229.174 87.4334 230.206 86.5621 230.206 85.4883V14.5117C230.206 13.4379 229.174 12.5675 227.9 12.5674H172.554Z" fill="#BBBBBB"/>
<path d="M303.572 76.7383C306.119 76.7383 308.185 78.4791 308.185 80.627C308.185 82.7749 306.119 84.5166 303.572 84.5166H262.063C259.515 84.5166 257.45 82.7749 257.45 80.627C257.45 78.4791 259.516 76.7383 262.063 76.7383H303.572Z" fill="#BBBBBB"/>
<path d="M305.879 67.0156C307.153 67.0158 308.185 67.8861 308.185 68.96C308.185 70.0337 307.153 70.9041 305.879 70.9043H259.757C258.483 70.9043 257.45 70.0338 257.45 68.96C257.45 67.886 258.483 67.0156 259.757 67.0156H305.879Z" fill="#BBBBBB"/>
<path d="M305.879 62.1533C307.153 62.1535 308.185 63.0248 308.185 64.0986C308.185 65.1723 307.153 66.0428 305.879 66.043H273.593C272.32 66.0429 271.287 65.1724 271.287 64.0986C271.287 63.0247 272.32 62.1534 273.593 62.1533H305.879Z" fill="#BBBBBB"/>
<path d="M292.042 57.292C293.316 57.292 294.348 58.1633 294.348 59.2373C294.347 60.3111 293.315 61.1816 292.042 61.1816H259.757C258.483 61.1816 257.45 60.3111 257.45 59.2373C257.45 58.1633 258.483 57.292 259.757 57.292H292.042Z" fill="#BBBBBB"/>
<path d="M305.879 52.4307C307.152 52.4309 308.185 53.3014 308.185 54.375C308.185 55.4488 307.153 56.3201 305.879 56.3203H259.757C258.483 56.3203 257.45 55.449 257.45 54.375C257.45 53.3012 258.483 52.4307 259.757 52.4307H305.879Z" fill="#BBBBBB"/>
<path d="M278.116 28.8018C278.811 27.727 280.641 27.727 281.336 28.8018L287.149 37.7871L289.14 34.8486C289.844 33.8102 291.62 33.8101 292.325 34.8486L296.501 41.0117C297.199 42.0426 296.317 43.3265 294.909 43.3271H271.808C270.416 43.3267 269.532 42.0696 270.199 41.0391L278.116 28.8018Z" fill="#BBBBBB"/>
<path d="M290.731 23.2188C292.757 23.2188 294.4 24.6039 294.4 26.3125C294.399 28.0207 292.757 29.4053 290.731 29.4053C288.705 29.4049 287.064 28.0204 287.063 26.3125C287.063 24.6042 288.705 23.2192 290.731 23.2188Z" fill="#BBBBBB"/>
<path fill-rule="evenodd" clip-rule="evenodd" d="M298.07 15.4844C301.109 15.4847 303.572 17.5616 303.572 20.124V44.874C303.572 47.4365 301.109 49.5134 298.07 49.5137H268.718C265.68 49.5134 263.217 47.4365 263.216 44.874V20.124C263.217 17.5616 265.68 15.4847 268.718 15.4844H298.07ZM268.718 18.5771C267.706 18.5774 266.884 19.2702 266.884 20.124V44.874C266.884 45.7279 267.706 46.4206 268.718 46.4209H298.07C299.083 46.4206 299.904 45.7279 299.904 44.874V20.124C299.904 19.2702 299.083 18.5775 298.07 18.5771H268.718Z" fill="#BBBBBB"/>
<path fill-rule="evenodd" clip-rule="evenodd" d="M310.846 8.68555C314.502 8.84171 317.41 11.3905 317.41 14.5117V85.4883C317.41 88.6095 314.502 91.1583 310.846 91.3145L310.491 91.3223H255.144C251.443 91.3221 248.42 88.8712 248.235 85.7891L248.227 85.4883V14.5117C248.227 11.2899 251.323 8.67787 255.144 8.67773H310.491L310.846 8.68555ZM255.144 12.5674C253.871 12.5675 252.838 13.4378 252.838 14.5117V85.4883C252.838 86.5622 253.871 87.4335 255.144 87.4336H310.491C311.765 87.4336 312.797 86.5622 312.797 85.4883V14.5117C312.797 13.4378 311.765 12.5674 310.491 12.5674H255.144Z" fill="#BBBBBB"/>
<path d="M386.164 76.7383C388.711 76.7384 390.775 78.4792 390.776 80.627C390.776 82.7748 388.711 84.5165 386.164 84.5166H344.653C342.106 84.5164 340.042 82.7747 340.042 80.627C340.042 78.4793 342.106 76.7385 344.653 76.7383H386.164Z" fill="#BBBBBB"/>
<path d="M388.47 67.0156C389.743 67.0156 390.776 67.886 390.776 68.96C390.775 70.0338 389.743 70.9043 388.47 70.9043H342.347C341.074 70.9042 340.042 70.0338 340.042 68.96C340.042 67.8861 341.074 67.0157 342.347 67.0156H388.47Z" fill="#BBBBBB"/>
<path d="M388.47 62.1533C389.743 62.1533 390.776 63.0247 390.776 64.0986C390.775 65.1724 389.743 66.043 388.47 66.043H356.185C354.911 66.043 353.878 65.1724 353.878 64.0986C353.878 63.0247 354.911 62.1533 356.185 62.1533H388.47Z" fill="#BBBBBB"/>
<path d="M374.634 57.292C375.907 57.2922 376.939 58.1635 376.939 59.2373C376.939 60.3109 375.907 61.1814 374.634 61.1816H342.347C341.074 61.1816 340.042 60.311 340.042 59.2373C340.042 58.1634 341.074 57.2921 342.347 57.292H374.634Z" fill="#BBBBBB"/>
<path d="M388.47 52.4307C389.743 52.4307 390.775 53.3012 390.776 54.375C390.776 55.449 389.743 56.3203 388.47 56.3203H342.347C341.074 56.3202 340.042 55.4489 340.042 54.375C340.042 53.3013 341.074 52.4307 342.347 52.4307H388.47Z" fill="#BBBBBB"/>
<path d="M360.706 28.8018C361.401 27.727 363.231 27.727 363.927 28.8018L369.739 37.7871L371.73 34.8486C372.435 33.81 374.212 33.8098 374.916 34.8486L379.092 41.0117C379.791 42.0427 378.908 43.3268 377.5 43.3271H354.4C353.008 43.3268 352.123 42.0696 352.789 41.0391L360.706 28.8018Z" fill="#BBBBBB"/>
<path d="M373.323 23.2188C375.349 23.2188 376.992 24.604 376.992 26.3125C376.991 28.0206 375.348 29.4052 373.323 29.4053C371.297 29.4051 369.654 28.0206 369.654 26.3125C369.654 24.604 371.297 23.2189 373.323 23.2188Z" fill="#BBBBBB"/>
<path fill-rule="evenodd" clip-rule="evenodd" d="M380.66 15.4844C383.7 15.4846 386.164 17.5615 386.164 20.124V44.874C386.163 47.4365 383.699 49.5135 380.66 49.5137H351.31C348.271 49.5135 345.807 47.4365 345.807 44.874V20.124C345.807 17.5615 348.271 15.4846 351.31 15.4844H380.66ZM351.31 18.5771C350.297 18.5774 349.476 19.2701 349.476 20.124V44.874C349.476 45.7279 350.297 46.4207 351.31 46.4209H380.66C381.673 46.4207 382.495 45.7279 382.495 44.874V20.124C382.495 19.2701 381.673 18.5774 380.66 18.5771H351.31Z" fill="#BBBBBB"/>
<path fill-rule="evenodd" clip-rule="evenodd" d="M393.438 8.68555C397.093 8.84182 400 11.3905 400 14.5117V85.4883C400 88.6094 397.093 91.1582 393.438 91.3145L393.083 91.3223H337.736C334.034 91.3223 331.012 88.8713 330.826 85.7891L330.817 85.4883V14.5117C330.817 11.2898 333.915 8.67773 337.736 8.67773H393.083L393.438 8.68555ZM337.736 12.5674C336.462 12.5674 335.429 13.4378 335.429 14.5117V85.4883C335.429 86.5622 336.462 87.4336 337.736 87.4336H393.083C394.356 87.4333 395.388 86.5621 395.388 85.4883V14.5117C395.388 13.4379 394.356 12.5676 393.083 12.5674H337.736Z" fill="#BBBBBB"/>
<path d="M395.45 0C397.344 0.000214373 398.88 1.2953 398.88 2.89258C398.88 4.48996 397.344 5.78494 395.45 5.78516H3.43036C1.53587 5.78513 0 4.49007 0 2.89258C0.000150504 1.29519 1.53597 3.09291e-05 3.43036 0H395.45Z" fill="#BBBBBB"/>
</svg>
