<svg width="100" height="67" viewBox="0 0 100 67" fill="none" xmlns="http://www.w3.org/2000/svg">
<path fill-rule="evenodd" clip-rule="evenodd" d="M76.1748 36.8271C76.4996 36.8271 76.8113 36.9559 77.041 37.1855C77.2707 37.4152 77.4003 37.7269 77.4004 38.0518V49.0771C77.4003 49.402 77.2707 49.7137 77.041 49.9434C76.8113 50.173 76.4996 50.3018 76.1748 50.3018H61.4756C61.1509 50.3018 60.8391 50.1729 60.6094 49.9434C60.3797 49.7137 60.25 49.402 60.25 49.0771V38.0518C60.2501 37.7269 60.3797 37.4152 60.6094 37.1855C60.8391 36.9561 61.1509 36.8271 61.4756 36.8271H76.1748ZM66.375 45.4023L65.1504 44.1768L62.7002 46.627V47.8525H74.9502V44.1768L71.2754 40.502L66.375 45.4023ZM63.9248 39.2773C63.6 39.2774 63.2883 39.4061 63.0586 39.6357C62.8289 39.8655 62.7002 40.1771 62.7002 40.502C62.7002 40.7442 62.7717 40.9812 62.9062 41.1826C63.0408 41.384 63.2323 41.5411 63.4561 41.6338C63.6799 41.7265 63.9265 41.7513 64.1641 41.7041C64.4016 41.6568 64.6197 41.5394 64.791 41.3682C64.9622 41.1969 65.0796 40.9787 65.127 40.7412C65.1742 40.5037 65.1493 40.257 65.0566 40.0332C64.9639 39.8094 64.8069 39.618 64.6055 39.4834C64.404 39.3488 64.1671 39.2773 63.9248 39.2773Z" fill="#BBBBBB"/>
<path fill-rule="evenodd" clip-rule="evenodd" d="M83.5254 30.7021C83.85 30.7023 84.162 30.831 84.3916 31.0605C84.6211 31.2902 84.7499 31.6021 84.75 31.9268V44.1768C84.75 44.5015 84.6211 44.8133 84.3916 45.043C84.162 45.2726 83.8501 45.4022 83.5254 45.4023H78.625V33.1523H71.2754V35.6025H65.1504V31.9268C65.1504 31.6019 65.2791 31.2902 65.5088 31.0605C65.7385 30.8309 66.0502 30.7021 66.375 30.7021H83.5254ZM81.1133 41.1143C81.0219 41.1143 80.9347 41.1512 80.8701 41.2158C80.8055 41.2804 80.7686 41.3676 80.7686 41.459V42.6074C80.7686 42.6988 80.8055 42.787 80.8701 42.8516C80.9347 42.9159 81.0221 42.9521 81.1133 42.9521H82.2617C82.3531 42.9521 82.4412 42.9162 82.5059 42.8516C82.5705 42.787 82.6064 42.6988 82.6064 42.6074V41.459C82.6064 41.3678 82.5702 41.2804 82.5059 41.2158C82.4412 41.1512 82.3531 41.1143 82.2617 41.1143H81.1133ZM81.1133 37.1338C81.022 37.1338 80.9347 37.1698 80.8701 37.2344C80.8056 37.2989 80.7686 37.3862 80.7686 37.4775V38.626C80.7686 38.7173 80.8056 38.8055 80.8701 38.8701C80.9347 38.9344 81.0221 38.9707 81.1133 38.9707H82.2617C82.3531 38.9707 82.4412 38.9347 82.5059 38.8701C82.5704 38.8055 82.6064 38.7173 82.6064 38.626V37.4775C82.6064 37.3865 82.5701 37.2989 82.5059 37.2344C82.4413 37.1698 82.353 37.1338 82.2617 37.1338H81.1133ZM67.6387 33.1523C67.5473 33.1524 67.4591 33.1883 67.3945 33.2529C67.33 33.3175 67.2939 33.4057 67.2939 33.4971V34.6455C67.2941 34.7367 67.3301 34.8242 67.3945 34.8887C67.4591 34.9533 67.5473 34.9892 67.6387 34.9893H68.7871C68.8783 34.9891 68.9658 34.9531 69.0303 34.8887C69.0948 34.8242 69.1317 34.7367 69.1318 34.6455V33.4971C69.1318 33.4057 69.0949 33.3175 69.0303 33.2529C68.9658 33.1884 68.8783 33.1525 68.7871 33.1523H67.6387ZM81.1133 33.1523C81.022 33.1523 80.9347 33.1885 80.8701 33.2529C80.8055 33.3175 80.7686 33.4057 80.7686 33.4971V34.6455C80.7687 34.7367 80.8056 34.8242 80.8701 34.8887C80.9347 34.9531 81.022 34.9893 81.1133 34.9893H82.2617C82.3531 34.9893 82.4413 34.9533 82.5059 34.8887C82.5702 34.8242 82.6063 34.7366 82.6064 34.6455V33.4971C82.6064 33.4058 82.5703 33.3175 82.5059 33.2529C82.4412 33.1883 82.3531 33.1523 82.2617 33.1523H81.1133Z" fill="#BBBBBB"/>
<path fill-rule="evenodd" clip-rule="evenodd" d="M85.2275 23.002C87.8633 23.0022 90 25.1397 90 27.7754V53.2295C89.9997 55.8651 87.8631 58.0017 85.2275 58.002H59.7734C57.1377 58.002 55.0003 55.8652 55 53.2295V27.7754C55 25.1395 57.1375 23.002 59.7734 23.002H85.2275ZM59.7734 26.1836C58.8948 26.1836 58.1816 26.8968 58.1816 27.7754V53.2295C58.1819 54.1079 58.895 54.8203 59.7734 54.8203H85.2275C86.1058 54.82 86.8181 54.1078 86.8184 53.2295V27.7754C86.8184 26.8969 86.106 26.1839 85.2275 26.1836H59.7734Z" fill="#BBBBBB"/>
<path d="M31.7881 48.8271C33.562 48.8274 35 50.2661 35 52.04C34.9996 53.8137 33.5618 55.2517 31.7881 55.252H13.2129C11.439 55.252 10.0004 53.8139 10 52.04C10 50.2659 11.4388 48.8271 13.2129 48.8271H31.7881Z" fill="#BBBBBB"/>
<path d="M44.0859 42.252C44.7761 42.2522 45.3359 42.8118 45.3359 43.502C45.3358 44.1921 44.776 44.7517 44.0859 44.752H11.25C10.5597 44.752 10.0001 44.1922 10 43.502C10 42.8116 10.5596 42.252 11.25 42.252H44.0859Z" fill="#BBBBBB"/>
<path d="M44.0859 39.002C44.7762 39.0021 45.3359 39.5617 45.3359 40.252C45.3358 40.9421 44.7761 41.5018 44.0859 41.502H20.8877C20.1974 41.502 19.6378 40.9422 19.6377 40.252C19.6377 39.5616 20.1973 39.002 20.8877 39.002H44.0859Z" fill="#BBBBBB"/>
<path d="M34.4492 35.752C35.1393 35.7522 35.6992 36.3118 35.6992 37.002C35.6991 37.692 35.1393 38.2517 34.4492 38.252H11.25C10.5597 38.252 10.0001 37.6922 10 37.002C10 36.3116 10.5596 35.752 11.25 35.752H34.4492Z" fill="#BBBBBB"/>
<path d="M44.0859 32.502C44.7761 32.5022 45.3359 33.0618 45.3359 33.752C45.3358 34.4421 44.776 35.0017 44.0859 35.002H11.25C10.5597 35.002 10.0001 34.4422 10 33.752C10 33.0616 10.5596 32.502 11.25 32.502H44.0859Z" fill="#BBBBBB"/>
<path d="M43.0859 25.502C44.3284 25.5022 45.3359 26.5095 45.3359 27.752C45.3358 28.9943 44.3283 30.0017 43.0859 30.002H12.25C11.0074 30.002 10.0001 28.9945 10 27.752C10 26.5093 11.0074 25.502 12.25 25.502H43.0859Z" fill="#BBBBBB"/>
<path fill-rule="evenodd" clip-rule="evenodd" d="M73.1133 0C75.0603 0.00020243 76.673 1.73569 76.9561 4H80.0527C82.4785 4 84.4958 5.94022 84.918 8.5H85.9932C88.8904 8.50022 91.3079 10.6457 91.874 13.5H92.9326C96.7135 13.5 99.8017 16.4693 99.9912 20.2031L100 20.5674V59.4365L99.9912 59.7998C99.8021 63.534 96.7138 66.5039 92.9326 66.5039H7.06738L6.70312 66.4941C3.08959 66.3108 0.19182 63.4134 0.00878906 59.7998L0 59.4365V20.5674L0.00878906 20.2031C0.198319 16.4693 3.28645 13.5 7.06738 13.5H7.12598C7.69214 10.6457 10.1096 8.50022 13.0068 8.5H15.082C15.5042 5.94022 17.5215 4 19.9473 4H22.0439C22.327 1.73569 23.9397 0.000203138 25.8867 0H73.1133ZM7.06738 17.5C5.37351 17.5 4.0001 18.8735 4 20.5674V59.4365C4.00007 61.1304 5.37349 62.5039 7.06738 62.5039H92.9326C94.6265 62.5039 95.9999 61.1304 96 59.4365V20.5674C95.9999 18.8735 94.6265 17.5 92.9326 17.5H7.06738ZM13.0068 12.0557C12.0106 12.0558 11.1458 12.6409 10.707 13.5H88.293C87.8542 12.6409 86.9894 12.0558 85.9932 12.0557H13.0068ZM19.9473 7.11133C19.0821 7.11133 18.338 7.68066 17.998 8.5H82.002C81.662 7.68066 80.9179 7.11133 80.0527 7.11133H19.9473ZM25.8867 2.66699C25.1619 2.66717 24.5462 3.22201 24.3076 4H74.6924C74.4538 3.22201 73.8381 2.66717 73.1133 2.66699H25.8867Z" fill="#BBBBBB"/>
</svg>
