<svg width="407" height="100" viewBox="0 0 407 100" fill="none" xmlns="http://www.w3.org/2000/svg">
<path d="M55.3044 35.6276H70.3939M61.3402 47.6992H70.3939M267.765 35.6276H282.854M273.801 47.6992H282.854M139.625 35.6276H124.535M133.589 47.6992H124.535M352.085 35.6276H336.995M346.049 47.6992H336.995M4.7243 96.71H403.088M4.7243 4H403.088M4 20.5381V62.7888C4 66.1085 6.71611 68.8246 10.0358 68.8246H60.7366L82.7673 86.932V20.5381C82.7673 17.2184 80.0512 14.5023 76.7315 14.5023H10.0358C6.71611 14.5023 4 17.2184 4 20.5381ZM31.1611 26.2721L35.688 35.9294L46.2507 37.4384L38.7059 44.6813L40.5166 54.9422L31.1611 50.1135L21.8056 54.9422L23.6164 44.6813L16.0716 37.4384L26.6343 35.9294L31.1611 26.2721ZM216.46 20.5381V62.7888C216.46 66.1085 219.177 68.8246 222.496 68.8246H273.197L295.228 86.932V20.5381C295.228 17.2184 292.512 14.5023 289.192 14.5023H222.496C219.177 14.5023 216.46 17.2184 216.46 20.5381ZM243.622 26.2721L248.148 35.9294L258.711 37.4384L251.166 44.6813L252.977 54.9422L243.622 50.1135L234.266 54.9422L236.077 44.6813L228.532 37.4384L239.095 35.9294L243.622 26.2721ZM190.929 20.5381V62.7888C190.929 66.1085 188.213 68.8246 184.893 68.8246H134.192L112.162 86.932V20.5381C112.162 17.2184 114.878 14.5023 118.198 14.5023H184.893C188.213 14.5023 190.929 17.2184 190.929 20.5381ZM163.768 26.2721L159.241 35.9294L148.678 37.4384L156.223 44.6813L154.412 54.9422L163.768 50.1135L173.123 54.9422L171.313 44.6813L178.857 37.4384L168.295 35.9294L163.768 26.2721ZM403.389 20.5381V62.7888C403.389 66.1085 400.673 68.8246 397.354 68.8246H346.653L324.622 86.932V20.5381C324.622 17.2184 327.338 14.5023 330.658 14.5023H397.354C400.673 14.5023 403.389 17.2184 403.389 20.5381ZM376.228 26.2721L371.701 35.9294L361.139 37.4384L368.683 44.6813L366.873 54.9422L376.228 50.1135L385.584 54.9422L383.773 44.6813L391.318 37.4384L380.755 35.9294L376.228 26.2721Z" stroke="#BBBBBB" stroke-width="6.5" stroke-linecap="round"/>
</svg>
