<svg width="439" height="104" viewBox="0 0 439 104" fill="none" xmlns="http://www.w3.org/2000/svg">
<path d="M435.208 97.7461C436.797 97.7463 438.085 99.0342 438.085 100.623C438.085 102.212 436.797 103.5 435.208 103.5H3.63965C2.05079 103.5 0.762785 102.212 0.762695 100.623C0.762695 99.0341 2.05074 97.7462 3.63965 97.7461H435.208Z" fill="#BBBBBB"/>
<path d="M31.1113 42.7793C32.5277 40.1833 36.2557 40.1832 37.6719 42.7793L49.5107 64.4854L53.5664 57.3887C55.0009 54.8789 58.6202 54.8789 60.0547 57.3887L68.5625 72.2773C69.9855 74.7681 68.1862 77.8672 65.3174 77.8672H18.2666C15.4305 77.8672 13.6284 74.8318 14.9863 72.3418L31.1113 42.7793Z" fill="#BBBBBB"/>
<path d="M56.8105 29.293C60.9378 29.293 64.2831 32.6385 64.2832 36.7656C64.2832 40.8928 60.9378 44.2392 56.8105 44.2393C52.6832 44.2392 49.3379 40.8928 49.3379 36.7656C49.338 32.6385 52.6833 29.293 56.8105 29.293Z" fill="#BBBBBB"/>
<path fill-rule="evenodd" clip-rule="evenodd" d="M71.7568 10.6104C77.9476 10.6105 82.9656 15.6288 82.9658 21.8193V81.6045C82.9655 87.7952 77.9475 92.8133 71.7568 92.8135H11.9727C5.782 92.8135 0.762972 87.7953 0.762695 81.6045V21.8193C0.762919 15.6287 5.78197 10.6104 11.9727 10.6104H71.7568ZM11.9727 18.083C9.90921 18.083 8.23558 19.7559 8.23535 21.8193V81.6045C8.23563 83.6679 9.90924 85.3408 11.9727 85.3408H71.7568C73.8202 85.3406 75.4929 83.6678 75.4932 81.6045V21.8193C75.4929 19.756 73.8202 18.0832 71.7568 18.083H11.9727Z" fill="#BBBBBB"/>
<path d="M119.891 42.7793C121.307 40.1833 125.035 40.1833 126.451 42.7793L138.291 64.4854L142.346 57.3887C143.78 54.8788 147.399 54.879 148.834 57.3887L157.342 72.2773C158.765 74.768 156.966 77.867 154.098 77.8672H107.046C104.21 77.8669 102.408 74.8316 103.766 72.3418L119.891 42.7793Z" fill="#BBBBBB"/>
<path d="M145.59 29.293C149.717 29.293 153.063 32.6385 153.063 36.7656C153.063 40.8928 149.717 44.2393 145.59 44.2393C141.463 44.2391 138.117 40.8928 138.117 36.7656C138.117 32.6386 141.463 29.2931 145.59 29.293Z" fill="#BBBBBB"/>
<path fill-rule="evenodd" clip-rule="evenodd" d="M160.536 10.6104C166.727 10.6104 171.746 15.6287 171.746 21.8193V81.6045C171.746 87.7953 166.727 92.8135 160.536 92.8135H100.752C94.5613 92.8135 89.5423 87.7953 89.542 81.6045V21.8193C89.5422 15.6287 94.5613 10.6104 100.752 10.6104H160.536ZM100.752 18.083C98.6885 18.083 97.0158 19.7559 97.0156 21.8193V81.6045C97.0159 83.6679 98.6885 85.3408 100.752 85.3408H160.536C162.6 85.3408 164.272 83.6679 164.272 81.6045V21.8193C164.272 19.7559 162.6 18.083 160.536 18.083H100.752Z" fill="#BBBBBB"/>
<path d="M208.671 42.7793C210.087 40.1834 213.815 40.1831 215.231 42.7793L227.07 64.4854L231.126 57.3887C232.561 54.879 236.18 54.8788 237.614 57.3887L246.121 72.2773C247.544 74.7681 245.746 77.8672 242.877 77.8672H195.826C192.99 77.8672 191.188 74.8318 192.546 72.3418L208.671 42.7793Z" fill="#BBBBBB"/>
<path d="M234.37 29.293C238.497 29.2932 241.843 32.6386 241.843 36.7656C241.843 40.8927 238.497 44.2391 234.37 44.2393C230.243 44.2392 226.897 40.8928 226.896 36.7656C226.897 32.6385 230.243 29.293 234.37 29.293Z" fill="#BBBBBB"/>
<path fill-rule="evenodd" clip-rule="evenodd" d="M249.315 10.6104C255.506 10.6104 260.525 15.6287 260.525 21.8193V81.6045C260.525 87.7953 255.506 92.8135 249.315 92.8135H189.531C183.341 92.8133 178.323 87.7952 178.322 81.6045V21.8193C178.322 15.6288 183.341 10.6105 189.531 10.6104H249.315ZM189.531 18.083C187.468 18.0832 185.795 19.756 185.795 21.8193V81.6045C185.795 83.6678 187.468 85.3406 189.531 85.3408H249.315C251.379 85.3408 253.052 83.6679 253.053 81.6045V21.8193C253.053 19.7559 251.379 18.083 249.315 18.083H189.531Z" fill="#BBBBBB"/>
<path d="M297.45 42.7793C298.866 40.1833 302.595 40.1833 304.011 42.7793L315.851 64.4854L319.905 57.3887C321.34 54.8789 324.959 54.8789 326.394 57.3887L334.901 72.2773C336.324 74.7681 334.525 77.8672 331.656 77.8672H284.605C281.769 77.8671 279.967 74.8317 281.325 72.3418L297.45 42.7793Z" fill="#BBBBBB"/>
<path d="M323.149 29.293C327.277 29.293 330.622 32.6385 330.622 36.7656C330.622 40.8928 327.277 44.2393 323.149 44.2393C319.022 44.2392 315.677 40.8928 315.677 36.7656C315.677 32.6385 319.022 29.293 323.149 29.293Z" fill="#BBBBBB"/>
<path fill-rule="evenodd" clip-rule="evenodd" d="M338.096 10.6104C344.287 10.6105 349.304 15.6287 349.305 21.8193V81.6045C349.304 87.7952 344.286 92.8134 338.096 92.8135H278.312C272.121 92.8135 267.102 87.7953 267.102 81.6045V21.8193C267.102 15.6287 272.121 10.6104 278.312 10.6104H338.096ZM278.312 18.083C276.248 18.083 274.575 19.7559 274.575 21.8193V81.6045C274.575 83.6679 276.248 85.3408 278.312 85.3408H338.096C340.159 85.3407 341.832 83.6679 341.832 81.6045V21.8193C341.832 19.756 340.159 18.0831 338.096 18.083H278.312Z" fill="#BBBBBB"/>
<path d="M386.229 42.7793C387.646 40.1832 391.374 40.1834 392.79 42.7793L404.63 64.4854L408.686 57.3887C410.12 54.8792 413.738 54.8791 415.173 57.3887L423.681 72.2773C425.104 74.7681 423.305 77.8671 420.437 77.8672H373.385C370.549 77.8669 368.747 74.8317 370.105 72.3418L386.229 42.7793Z" fill="#BBBBBB"/>
<path d="M411.929 29.293C416.056 29.293 419.402 32.6385 419.402 36.7656C419.402 40.8928 416.056 44.2393 411.929 44.2393C407.802 44.239 404.456 40.8927 404.456 36.7656C404.456 32.6386 407.802 29.2932 411.929 29.293Z" fill="#BBBBBB"/>
<path fill-rule="evenodd" clip-rule="evenodd" d="M426.875 10.6104C433.066 10.6104 438.085 15.6287 438.085 21.8193V81.6045C438.085 87.7953 433.066 92.8135 426.875 92.8135H367.091C360.9 92.8134 355.882 87.7953 355.882 81.6045V21.8193C355.882 15.6287 360.9 10.6104 367.091 10.6104H426.875ZM367.091 18.083C365.027 18.0831 363.355 19.756 363.354 21.8193V81.6045C363.355 83.6679 365.027 85.3408 367.091 85.3408H426.875C428.938 85.3408 430.611 83.6679 430.611 81.6045V21.8193C430.611 19.7559 428.939 18.083 426.875 18.083H367.091Z" fill="#BBBBBB"/>
<path d="M435.208 0.746094C436.797 0.746308 438.085 2.03419 438.085 3.62305C438.085 5.21183 436.797 6.49979 435.208 6.5H3.63965C2.05079 6.49991 0.762785 5.2119 0.762695 3.62305C0.762695 2.03411 2.05074 0.746183 3.63965 0.746094H435.208Z" fill="#BBBBBB"/>
</svg>
