<svg width="434" height="100" viewBox="0 0 434 100" fill="none" xmlns="http://www.w3.org/2000/svg">
<path d="M430.319 94.3548C431.878 94.3548 433.141 95.6186 433.141 97.1774C433.141 98.7363 431.878 100 430.319 100H3.70588C2.14701 100 0.883301 98.7363 0.883301 97.1774C0.883301 95.6186 2.14701 94.3548 3.70588 94.3548H430.319Z" fill="#BBBBBB"/>
<path d="M94.2821 70.1637C88.2256 80.7894 77.4974 88.4071 64.7009 90.2399L64.0897 90.3226C70.4488 84.4206 75.3608 78.0471 78.6988 71.3387L94.2821 70.1637Z" fill="#BBBBBB"/>
<path d="M410.48 70.1637C404.327 80.9581 393.353 88.648 380.287 90.3226C386.646 84.4207 391.558 78.047 394.896 71.3387L410.48 70.1637Z" fill="#BBBBBB"/>
<path d="M252.381 70.1637C246.229 80.958 235.255 88.6471 222.189 90.3218C228.548 84.42 233.459 78.0469 236.797 71.3387L252.381 70.1637Z" fill="#BBBBBB"/>
<path d="M39.0126 70.9103L39.3165 71.545C42.5025 78.0953 47.1656 84.3613 53.2074 90.2076C40.1342 88.2445 29.264 80.2651 23.3608 69.2296L39.0126 70.9103Z" fill="#BBBBBB"/>
<path d="M197.111 70.9103C200.301 77.6906 205.069 84.1727 211.306 90.2076C198.233 88.2444 187.363 80.265 181.46 69.2296L197.111 70.9103Z" fill="#BBBBBB"/>
<path d="M355.21 70.9103L355.514 71.545C358.7 78.0953 363.363 84.3613 369.405 90.2076C356.332 88.2445 345.462 80.2651 339.558 69.2296L355.21 70.9103Z" fill="#BBBBBB"/>
<path d="M60.3772 71.1402L75.2879 71.3025C71.8094 77.8237 66.7357 84.0283 60.1748 89.7429L60.3772 71.1402Z" fill="#BBBBBB"/>
<path d="M233.387 71.3025C229.909 77.8237 224.835 84.0283 218.274 89.7429L218.476 71.1402L233.387 71.3025Z" fill="#BBBBBB"/>
<path d="M391.485 71.3025C388.007 77.8237 382.933 84.0283 376.372 89.7429L376.575 71.1402L391.485 71.3025Z" fill="#BBBBBB"/>
<path d="M57.327 71.1119L57.1254 89.6925C50.6942 83.8481 45.7643 77.5392 42.4156 70.9496L57.327 71.1119Z" fill="#BBBBBB"/>
<path d="M215.426 71.1119L215.224 89.6925C208.793 83.8482 203.863 77.5391 200.515 70.9496L215.426 71.1119Z" fill="#BBBBBB"/>
<path d="M373.525 71.1119L373.323 89.6925C366.892 83.8481 361.962 77.5392 358.613 70.9496L373.525 71.1119Z" fill="#BBBBBB"/>
<path d="M105.324 35.2972C108.55 35.3297 111.171 36.2048 113.17 37.9261C115.179 39.6471 116.277 41.9375 116.464 44.836L110.606 44.7644C110.52 43.3887 109.932 42.3048 108.849 41.4945C107.757 40.6918 106.332 40.267 104.567 40.2525C103.044 40.231 101.842 40.5585 100.981 41.196C100.106 41.855 99.6628 42.8167 99.6555 44.0012C99.6446 44.8686 100.095 45.5416 100.991 46.0134C101.87 46.503 103.753 47.0689 106.634 47.7602C110.815 48.729 113.595 49.8453 114.999 51.0876C116.396 52.3154 117.088 54.2814 117.045 56.9675C117.016 59.6754 115.936 61.8043 113.783 63.3742C111.636 64.9513 108.759 65.6967 105.119 65.6604C101.486 65.6246 98.6445 64.7567 96.6101 63.0355C94.5792 61.3288 93.5021 58.9233 93.3976 55.8121L99.1916 55.8728C99.242 57.4175 99.7748 58.5879 100.819 59.4128C101.848 60.2518 103.307 60.6733 105.169 60.6949C107.095 60.7165 108.59 60.421 109.677 59.816C110.761 59.2039 111.312 58.3609 111.323 57.2628C111.334 56.1681 110.952 55.3764 110.188 54.8576C109.432 54.3534 107.823 53.7878 105.346 53.2116C100.794 52.1494 97.7473 51.0115 96.2171 49.8197C94.7084 48.6207 93.9663 46.7771 93.9914 44.2816C94.0205 41.5017 95.0541 39.2698 97.092 37.6528C99.1338 36.054 101.881 35.2577 105.324 35.2972Z" fill="#BBBBBB"/>
<path d="M263.422 35.2972C266.648 35.3297 269.27 36.2049 271.268 37.9261C273.277 39.6472 274.376 41.9375 274.563 44.836L268.705 44.7644C268.618 43.3888 268.031 42.3047 266.948 41.4945C265.856 40.6917 264.43 40.2669 262.666 40.2525C261.143 40.231 259.94 40.5585 259.079 41.196C258.204 41.855 257.761 42.8168 257.754 44.0012C257.743 44.8687 258.194 45.5416 259.09 46.0134C259.969 46.503 261.852 47.0689 264.732 47.7602C268.652 48.6685 271.34 49.7062 272.818 50.8561L273.098 51.0876C274.495 52.3154 275.186 54.2814 275.143 56.9675C275.114 59.6754 274.034 61.8043 271.881 63.3742C269.735 64.9512 266.857 65.6967 263.217 65.6604C259.584 65.6246 256.743 64.7568 254.708 63.0355C252.678 61.3288 251.601 58.9233 251.497 55.8121L257.29 55.8728C257.34 57.4176 257.874 58.5879 258.918 59.4128C259.948 60.2517 261.406 60.6733 263.268 60.6949C265.194 60.7165 266.688 60.4209 267.775 59.816C268.86 59.2039 269.411 58.3609 269.421 57.2628C269.432 56.1681 269.051 55.3764 268.287 54.8576C267.531 54.3534 265.921 53.7878 263.444 53.2116C258.892 52.1495 255.846 51.0115 254.315 49.8197C252.807 48.6207 252.065 46.777 252.091 44.2816C252.12 41.5018 253.153 39.2697 255.19 37.6528C257.232 36.0541 259.98 35.2578 263.422 35.2972Z" fill="#BBBBBB"/>
<path d="M421.521 35.2972C424.747 35.3297 427.369 36.2048 429.367 37.9261C431.376 39.6471 432.474 41.9376 432.662 44.836L426.803 44.7644C426.717 43.3887 426.13 42.3048 425.046 41.4945C423.955 40.6917 422.529 40.2669 420.764 40.2525C419.241 40.2311 418.039 40.5586 417.179 41.196C416.304 41.855 415.86 42.8167 415.853 44.0012C415.842 44.8686 416.292 45.5416 417.189 46.0134C418.067 46.503 419.951 47.0689 422.832 47.7602C427.012 48.729 429.793 49.8453 431.197 51.0876C432.594 52.3154 433.285 54.2815 433.242 56.9675C433.214 59.6754 432.133 61.8043 429.98 63.3742C427.834 64.9513 424.956 65.6967 421.316 65.6604C417.683 65.6246 414.842 64.7566 412.808 63.0355C410.777 61.3288 409.7 58.9233 409.595 55.8121L415.389 55.8728C415.44 57.4175 415.972 58.5879 417.016 59.4128C418.046 60.2517 419.504 60.6733 421.366 60.6949C423.292 60.7165 424.787 60.421 425.875 59.816C426.959 59.2039 427.509 58.3609 427.52 57.2628C427.531 56.1681 427.149 55.3764 426.386 54.8576C425.63 54.3534 424.02 53.7878 421.542 53.2116C416.991 52.1495 413.945 51.0114 412.415 49.8197C410.906 48.6207 410.164 46.7771 410.189 44.2816C410.218 41.5017 411.252 39.2698 413.29 37.6528C415.331 36.054 418.079 35.2577 421.521 35.2972Z" fill="#BBBBBB"/>
<path d="M61.0718 35.5996L65.6593 56.7296L69.9987 35.6894L76.4047 35.765L80.3511 56.7154L85.356 35.8619L91.4382 35.9273L83.113 64.6445L80.2613 64.6154L77.3875 64.576L73.0056 41.8473L68.2417 64.4823L65.379 64.446L62.5233 64.4169L54.8171 35.5272L61.0718 35.5996Z" fill="#BBBBBB"/>
<path d="M219.171 35.5996L223.758 56.7296L228.097 35.6894L234.504 35.765L238.449 56.7131L243.455 35.8619L249.537 35.9273L241.211 64.6445L238.36 64.6154L235.487 64.576L231.104 41.8473L226.34 64.4823L223.477 64.446L220.622 64.4169L212.916 35.5272L219.171 35.5996Z" fill="#BBBBBB"/>
<path d="M377.269 35.5996L381.857 56.7296L386.196 35.6894L392.602 35.765L396.549 56.7154L401.554 35.8619L407.636 35.9273L399.311 64.6445L396.459 64.6154L393.585 64.576L389.203 41.8473L384.439 64.4823L381.577 64.446L378.721 64.4169L371.015 35.5272L377.269 35.5996Z" fill="#BBBBBB"/>
<path d="M51.6661 35.4957L51.6338 38.045L51.6086 40.6124L36.4278 40.4462L36.3585 46.5537L50.4423 46.7017L50.3919 51.6562L36.3089 51.505L36.2294 59.0206L52.0701 59.1899L52.0449 61.7424L52.0158 64.3027L30.155 64.0727L30.4645 35.2689L51.6661 35.4957Z" fill="#BBBBBB"/>
<path d="M209.765 35.4957L209.733 38.045L209.708 40.6124L194.526 40.4462L194.458 46.5537L208.541 46.7017L208.49 51.6562L194.407 51.505L194.328 59.0206L210.169 59.1899L210.143 61.7424L210.115 64.3027L188.253 64.0727L188.563 35.2689L209.765 35.4957Z" fill="#BBBBBB"/>
<path d="M367.864 35.4957L367.831 38.045L367.806 40.6124L352.625 40.4462L352.556 46.5537L366.64 46.7017L366.589 51.6562L352.506 51.505L352.427 59.0206L368.268 59.1899L368.242 61.7424L368.213 64.3027L346.353 64.0727L346.662 35.2689L367.864 35.4957Z" fill="#BBBBBB"/>
<path d="M7.50896 35.0232L18.8371 55.379L19.0568 35.146L21.855 35.1822L24.6846 35.2074L24.6854 35.2067L24.3791 64.0105L18.3803 63.942L6.72377 43.0562L6.5009 63.8121L3.69958 63.7869L0.883301 63.7475L1.19281 34.9546L7.50896 35.0232Z" fill="#BBBBBB"/>
<path d="M165.607 35.0232L176.935 55.379L177.155 35.146L179.953 35.1822L182.784 35.2074L182.785 35.2067L182.478 64.0105L176.479 63.942L164.823 43.0562L164.599 63.8121L161.798 63.7869L158.982 63.7475L159.291 34.9546L165.607 35.0232Z" fill="#BBBBBB"/>
<path d="M323.707 35.0232L335.035 55.379L335.254 35.146L338.053 35.1822L340.883 35.2067L340.577 64.0105L334.578 63.942L322.921 43.0562L322.698 63.8121L319.896 63.7869L317.081 63.7475L317.39 34.9546L323.707 35.0232Z" fill="#BBBBBB"/>
<path d="M138.014 41.9355C140.153 41.9355 142.204 42.7851 143.717 44.2973C145.229 45.8097 146.078 47.8612 146.078 50C146.078 52.1388 145.229 54.1903 143.717 55.7027C142.204 57.2149 140.153 58.0645 138.014 58.0645C135.875 58.0644 133.824 57.2148 132.312 55.7027C130.8 54.1903 129.949 52.1388 129.949 50C129.949 47.8612 130.8 45.8097 132.312 44.2973C133.824 42.7852 135.875 41.9356 138.014 41.9355Z" fill="#BBBBBB"/>
<path d="M296.113 41.9355C298.252 41.9355 300.303 42.785 301.816 44.2973C303.328 45.8097 304.178 47.8612 304.178 50C304.178 52.1388 303.328 54.1903 301.816 55.7027C300.303 57.215 298.252 58.0645 296.113 58.0645C293.974 58.0645 291.923 57.215 290.41 55.7027C288.898 54.1903 288.049 52.1388 288.049 50C288.049 47.8612 288.898 45.8097 290.41 44.2973C291.923 42.785 293.974 41.9355 296.113 41.9355Z" fill="#BBBBBB"/>
<path d="M52.9703 10.12C46.8631 15.9895 42.1674 22.3131 39.0165 28.9567L23.6955 30.4656C29.6281 19.8119 40.2343 12.1157 52.9703 10.12Z" fill="#BBBBBB"/>
<path d="M211.069 10.12C204.961 15.9895 200.266 22.3131 197.115 28.9567L181.795 30.4656C187.635 19.9784 198.002 12.3569 210.473 10.2177L211.069 10.12Z" fill="#BBBBBB"/>
<path d="M369.166 10.12C363.059 15.9893 358.365 22.3133 355.214 28.9567L339.893 30.4656C345.825 19.8122 356.431 12.116 369.166 10.12Z" fill="#BBBBBB"/>
<path d="M63.8724 9.9381C76.4075 11.4187 87.1892 18.6233 93.63 29.0409L93.934 29.5394L79.5982 29.3882C76.5842 22.6764 72.0297 16.2555 63.8724 9.9381Z" fill="#BBBBBB"/>
<path d="M221.971 9.9381C234.506 11.4187 245.288 18.6232 251.729 29.0409L252.032 29.5394L237.697 29.3882C234.683 22.6763 230.128 16.2556 221.971 9.9381Z" fill="#BBBBBB"/>
<path d="M380.07 9.9381C392.804 11.4423 403.729 18.8534 410.132 29.5394L395.796 29.3882C392.782 22.6764 388.227 16.2555 380.07 9.9381Z" fill="#BBBBBB"/>
<path d="M61.0797 9.71286C67.8064 15.8416 72.8766 22.4246 76.2109 29.3528L60.8277 29.1906L61.0364 9.71286H61.0797Z" fill="#BBBBBB"/>
<path d="M219.178 9.71286C225.905 15.8416 230.975 22.4246 234.309 29.3528L218.926 29.1906L219.135 9.71286H219.178Z" fill="#BBBBBB"/>
<path d="M377.277 9.71286C384.004 15.8416 389.073 22.4246 392.408 29.3528L377.025 29.1906L377.234 9.71286H377.277Z" fill="#BBBBBB"/>
<path d="M57.7736 29.1583L42.4014 28.9858C45.8765 22.1333 51.0906 15.6584 57.9429 9.67742H57.9862L57.7736 29.1583Z" fill="#BBBBBB"/>
<path d="M215.873 29.1583L200.5 28.9858C203.975 22.1334 209.189 15.6583 216.041 9.67742H216.085L215.873 29.1583Z" fill="#BBBBBB"/>
<path d="M373.971 29.1583L358.599 28.9858C362.074 22.1333 367.288 15.6584 374.14 9.67742H374.184L373.971 29.1583Z" fill="#BBBBBB"/>
<path d="M430.319 0C431.878 0 433.141 1.26371 433.141 2.82258C433.141 4.38145 431.878 5.64516 430.319 5.64516H3.70588C2.14701 5.64516 0.883301 4.38145 0.883301 2.82258C0.883301 1.26371 2.14701 0 3.70588 0H430.319Z" fill="#BBBBBB"/>
</svg>
