<svg width="589" height="100" viewBox="0 0 589 100" fill="none" xmlns="http://www.w3.org/2000/svg">
<g opacity="0.99">
<path d="M584.5 93C586.433 93 588 94.567 588 96.5C588 98.433 586.433 100 584.5 100H3.5C1.567 100 0 98.433 0 96.5C0 94.567 1.567 93 3.5 93H584.5Z" fill="#BBBBBB"/>
<path d="M87.1445 13.0098C89.7593 13.0098 91.0672 14.1431 91.0674 16.4092V23C91.0672 25.266 89.7593 26.3994 87.1445 26.3994H67.8975V85.1338C67.8974 87.0513 67.0255 88.0098 65.2822 88.0098H55.2402C53.4972 88.0096 52.6261 87.0511 52.626 85.1338V26.3994H33.3789C30.764 26.3994 29.4562 25.2661 29.4561 23V16.4092C29.4562 14.1431 30.764 13.0098 33.3789 13.0098H87.1445Z" fill="#BBBBBB"/>
<path d="M229.953 13.0098C232.568 13.0098 233.876 14.1431 233.876 16.4092V23C233.876 25.266 232.568 26.3994 229.953 26.3994H210.706V85.1338C210.706 87.0513 209.834 88.0098 208.091 88.0098H198.049C196.306 88.0096 195.435 87.0511 195.435 85.1338V26.3994H176.188C173.573 26.3994 172.265 25.2661 172.265 23V16.4092C172.265 14.1431 173.573 13.0098 176.188 13.0098H229.953Z" fill="#BBBBBB"/>
<path d="M372.762 13.0098C375.376 13.0098 376.684 14.1431 376.685 16.4092V23C376.684 25.266 375.376 26.3994 372.762 26.3994H353.515V85.1338C353.515 87.0513 352.643 88.0098 350.899 88.0098H340.857C339.114 88.0096 338.243 87.0511 338.243 85.1338V26.3994H318.996C316.381 26.3994 315.073 25.2661 315.073 23V16.4092C315.073 14.1431 316.381 13.0098 318.996 13.0098H372.762Z" fill="#BBBBBB"/>
<path d="M515.57 13.0098C518.185 13.0098 519.493 14.1431 519.493 16.4092V23C519.493 25.266 518.185 26.3993 515.57 26.3994H496.323V85.1338C496.323 87.0513 495.451 88.0098 493.708 88.0098H483.666C481.923 88.0097 481.051 87.0511 481.051 85.1338V26.3994H461.805C459.19 26.3994 457.882 25.2661 457.882 23V16.4092C457.882 14.1431 459.19 13.0098 461.805 13.0098H515.57Z" fill="#BBBBBB"/>
<path d="M117.946 45.1436C118.809 45.1436 119.707 45.3267 120.398 45.9258C121.126 46.5567 121.386 47.4358 121.386 48.3027V51.833C121.386 52.7 121.126 53.579 120.398 54.21C119.707 54.8092 118.81 54.9921 117.946 54.9922H108.978V85.1104C108.977 85.7999 108.823 86.5667 108.279 87.165C107.713 87.7878 106.945 87.9892 106.237 87.9893H100.859C100.152 87.9892 99.3845 87.7878 98.8184 87.165C98.2746 86.5667 98.1202 85.8 98.1201 85.1104V54.9922H89.1514C88.288 54.9922 87.3898 54.8092 86.6982 54.21C85.9704 53.579 85.711 52.6999 85.7109 51.833V48.3027C85.7111 47.4359 85.9704 46.5567 86.6982 45.9258C87.3897 45.3266 88.288 45.1436 89.1514 45.1436H117.946Z" fill="#BBBBBB"/>
<path d="M260.755 45.1436C261.618 45.1436 262.516 45.3267 263.207 45.9258C263.935 46.5567 264.194 47.4358 264.194 48.3027V51.833C264.194 52.7 263.935 53.579 263.207 54.21C262.516 54.8092 261.618 54.9921 260.755 54.9922H251.786V85.1104C251.786 85.7999 251.631 86.5667 251.088 87.165C250.522 87.7878 249.754 87.9892 249.046 87.9893H243.668C242.96 87.9892 242.193 87.7878 241.627 87.165C241.083 86.5667 240.929 85.8 240.929 85.1104V54.9922H231.96C231.097 54.9922 230.198 54.8092 229.507 54.21C228.779 53.579 228.52 52.6999 228.52 51.833V48.3027C228.52 47.4359 228.779 46.5567 229.507 45.9258C230.198 45.3266 231.097 45.1436 231.96 45.1436H260.755Z" fill="#BBBBBB"/>
<path d="M403.563 45.1436C404.427 45.1436 405.324 45.3267 406.016 45.9258C406.744 46.5567 407.003 47.4358 407.003 48.3027V51.833C407.003 52.7 406.744 53.579 406.016 54.21C405.324 54.8092 404.427 54.9921 403.563 54.9922H394.595V85.1104C394.595 85.7999 394.44 86.5667 393.896 87.165C393.33 87.7878 392.562 87.9892 391.854 87.9893H386.477C385.769 87.9892 385.002 87.7878 384.436 87.165C383.892 86.5667 383.737 85.8 383.737 85.1104V54.9922H374.769C373.905 54.9922 373.007 54.8093 372.315 54.21C371.588 53.579 371.328 52.6999 371.328 51.833V48.3027C371.328 47.4359 371.588 46.5567 372.315 45.9258C373.007 45.3266 373.905 45.1436 374.769 45.1436H403.563Z" fill="#BBBBBB"/>
<path d="M546.372 45.1436C547.235 45.1436 548.133 45.3267 548.824 45.9258C549.552 46.5567 549.811 47.4358 549.812 48.3027V51.833C549.811 52.7 549.552 53.579 548.824 54.21C548.133 54.8092 547.235 54.9921 546.372 54.9922H537.403V85.1104C537.403 85.7999 537.249 86.5667 536.705 87.165C536.139 87.7878 535.371 87.9892 534.663 87.9893H529.285C528.577 87.9892 527.81 87.7877 527.244 87.165C526.7 86.5667 526.546 85.8 526.546 85.1104V54.9922H517.577C516.714 54.9922 515.816 54.8093 515.124 54.21C514.396 53.579 514.137 52.7 514.137 51.833V48.3027C514.137 47.4358 514.396 46.5567 515.124 45.9258C515.816 45.3266 516.714 45.1436 517.577 45.1436H546.372Z" fill="#BBBBBB"/>
<path d="M10.7109 39.7881C13.5517 39.7881 16.2774 40.916 18.2861 42.9248C20.2949 44.9336 21.4229 47.6592 21.4229 50.5C21.4227 53.3406 20.2947 56.0656 18.2861 58.0742C16.2774 60.083 13.5517 61.2109 10.7109 61.2109C7.87028 61.2108 5.14539 60.0829 3.13672 58.0742C1.12807 56.0656 0.00012338 53.3406 0 50.5C0 47.6592 1.12796 44.9336 3.13672 42.9248C5.14538 40.9162 7.87029 39.7882 10.7109 39.7881Z" fill="#BBBBBB"/>
<path d="M153.52 39.7881C156.36 39.7881 159.086 40.916 161.095 42.9248C163.103 44.9336 164.231 47.6592 164.231 50.5C164.231 53.3406 163.103 56.0656 161.095 58.0742C159.086 60.083 156.36 61.2109 153.52 61.2109C150.679 61.2108 147.954 60.0829 145.945 58.0742C143.937 56.0656 142.809 53.3406 142.809 50.5C142.809 47.6592 143.937 44.9336 145.945 42.9248C147.954 40.9162 150.679 39.7882 153.52 39.7881Z" fill="#BBBBBB"/>
<path d="M296.328 39.7881C299.169 39.7881 301.895 40.916 303.903 42.9248C305.912 44.9336 307.04 47.6592 307.04 50.5C307.04 53.3406 305.912 56.0656 303.903 58.0742C301.895 60.083 299.169 61.2109 296.328 61.2109C293.487 61.2109 290.763 60.0829 288.754 58.0742C286.745 56.0656 285.617 53.3406 285.617 50.5C285.617 47.6592 286.745 44.9336 288.754 42.9248C290.763 40.9162 293.487 39.7882 296.328 39.7881Z" fill="#BBBBBB"/>
<path d="M439.137 39.7881C441.978 39.7881 444.703 40.916 446.712 42.9248C448.721 44.9336 449.849 47.6592 449.849 50.5C449.849 53.3406 448.72 56.0656 446.712 58.0742C444.703 60.083 441.978 61.2109 439.137 61.2109C436.296 61.2109 433.571 60.0829 431.562 58.0742C429.554 56.0656 428.426 53.3406 428.426 50.5C428.426 47.6592 429.554 44.9336 431.562 42.9248C433.571 40.9162 436.296 39.7882 439.137 39.7881Z" fill="#BBBBBB"/>
<path d="M577.74 39.7881C580.581 39.7881 583.307 40.916 585.315 42.9248C587.324 44.9336 588.452 47.6592 588.452 50.5C588.452 53.3406 587.324 56.0656 585.315 58.0742C583.307 60.083 580.581 61.2109 577.74 61.2109C574.9 61.2108 572.175 60.0829 570.166 58.0742C568.157 56.0656 567.029 53.3406 567.029 50.5C567.029 47.6592 568.157 44.9336 570.166 42.9248C572.175 40.9162 574.9 39.7882 577.74 39.7881Z" fill="#BBBBBB"/>
<path d="M584.5 0C586.433 0 588 1.567 588 3.5C588 5.433 586.433 7 584.5 7H3.5C1.567 7 0 5.433 0 3.5C0 1.567 1.567 0 3.5 0H584.5Z" fill="#BBBBBB"/>
</g>
</svg>
