<svg width="90" height="497" viewBox="0 0 90 497" fill="none" xmlns="http://www.w3.org/2000/svg">
<path d="M44 480.078C46.1217 480.078 48.1569 480.921 49.6572 482.421C51.1575 483.921 52 485.956 52 488.078C52 490.2 51.1575 492.235 49.6572 493.735C48.1569 495.236 46.1217 496.078 44 496.078C41.8783 496.078 39.8431 495.236 38.3428 493.735C36.8425 492.235 36 490.2 36 488.078C36 485.956 36.8425 483.921 38.3428 482.421C39.8431 480.921 41.8783 480.078 44 480.078Z" fill="#BBBBBB"/>
<path d="M3.5 0C5.433 0 7 1.567 7 3.5V492.5C7 494.433 5.433 496 3.5 496C1.567 496 0 494.433 0 492.5V3.5C0 1.567 1.567 0 3.5 0Z" fill="#BBBBBB"/>
<path d="M86.1602 0C88.0932 0 89.6602 1.567 89.6602 3.5V492.5C89.6602 494.433 88.0932 496 86.1602 496C84.2272 496 82.6602 494.433 82.6602 492.5V3.5C82.6602 1.567 84.2272 0 86.1602 0Z" fill="#BBBBBB"/>
<path d="M53.0859 412.062C55.0391 412.062 56.0156 412.909 56.0156 414.602V419.523C56.0156 421.216 55.0391 422.062 53.0859 422.062H38.7109V465.93C38.7109 467.362 38.0599 468.078 36.7578 468.078H29.2578C27.9557 468.078 27.3047 467.362 27.3047 465.93V422.062H12.9297C10.9766 422.062 10 421.216 10 419.523V414.602C10 412.909 10.9766 412.062 12.9297 412.062H53.0859Z" fill="#BBBBBB"/>
<path d="M76.0908 436.062C76.7357 436.062 77.4064 436.199 77.9229 436.646C78.4666 437.118 78.6601 437.774 78.6602 438.422V441.059C78.6601 441.706 78.4666 442.363 77.9229 442.834C77.4064 443.282 76.7357 443.418 76.0908 443.418H69.3926V465.912C69.3925 466.427 69.2772 467 68.8711 467.447C68.4482 467.912 67.8744 468.062 67.3457 468.062H63.3291C62.8005 468.062 62.2275 467.912 61.8047 467.447C61.3985 467 61.2832 466.427 61.2832 465.912V443.418H54.585C53.9401 443.418 53.2694 443.282 52.7529 442.834C52.2092 442.363 52.0157 441.706 52.0156 441.059V438.422C52.0157 437.774 52.2092 437.118 52.7529 436.646C53.2694 436.199 53.9402 436.062 54.585 436.062H76.0908Z" fill="#BBBBBB"/>
<path d="M44 384.062C46.1217 384.063 48.1569 384.905 49.6572 386.405C51.1575 387.906 52 389.941 52 392.062C52 394.184 51.1575 396.219 49.6572 397.72C48.1569 399.22 46.1217 400.062 44 400.062C41.8783 400.062 39.8431 399.22 38.3428 397.72C36.8425 396.219 36 394.184 36 392.062C36 389.941 36.8425 387.906 38.3428 386.405C39.8431 384.905 41.8783 384.062 44 384.062Z" fill="#BBBBBB"/>
<path d="M53.0859 316.047C55.0391 316.047 56.0156 316.893 56.0156 318.586V323.508C56.0156 325.201 55.0391 326.047 53.0859 326.047H38.7109V369.914C38.7109 371.346 38.0599 372.062 36.7578 372.062H29.2578C27.9557 372.062 27.3047 371.346 27.3047 369.914V326.047H12.9297C10.9766 326.047 10 325.201 10 323.508V318.586C10 316.893 10.9766 316.047 12.9297 316.047H53.0859Z" fill="#BBBBBB"/>
<path d="M76.0908 340.047C76.7357 340.047 77.4064 340.183 77.9229 340.631C78.4666 341.102 78.6601 341.759 78.6602 342.406V345.043C78.6601 345.691 78.4666 346.347 77.9229 346.818C77.4064 347.266 76.7357 347.402 76.0908 347.402H69.3926V369.896C69.3925 370.412 69.2772 370.985 68.8711 371.432C68.4482 371.897 67.8744 372.047 67.3457 372.047H63.3291C62.8005 372.047 62.2275 371.897 61.8047 371.432C61.3985 370.985 61.2832 370.412 61.2832 369.896V347.402H54.585C53.9401 347.402 53.2694 347.266 52.7529 346.818C52.2092 346.347 52.0157 345.691 52.0156 345.043V342.406C52.0157 341.759 52.2092 341.102 52.7529 340.631C53.2694 340.183 53.9402 340.047 54.585 340.047H76.0908Z" fill="#BBBBBB"/>
<path d="M44 288.047C46.1217 288.047 48.1569 288.889 49.6572 290.39C51.1575 291.89 52 293.925 52 296.047C52 298.169 51.1575 300.204 49.6572 301.704C48.1569 303.204 46.1217 304.047 44 304.047C41.8783 304.047 39.8431 303.204 38.3428 301.704C36.8425 300.204 36 298.169 36 296.047C36 293.925 36.8425 291.89 38.3428 290.39C39.8431 288.889 41.8783 288.047 44 288.047Z" fill="#BBBBBB"/>
<path d="M53.0859 220.031C55.0391 220.031 56.0156 220.878 56.0156 222.57V227.492C56.0156 229.185 55.0391 230.031 53.0859 230.031H38.7109V273.898C38.7109 275.331 38.0599 276.047 36.7578 276.047H29.2578C27.9557 276.047 27.3047 275.331 27.3047 273.898V230.031H12.9297C10.9766 230.031 10 229.185 10 227.492V222.57C10 220.878 10.9766 220.031 12.9297 220.031H53.0859Z" fill="#BBBBBB"/>
<path d="M76.0908 244.031C76.7357 244.031 77.4064 244.168 77.9229 244.615C78.4666 245.086 78.6601 245.743 78.6602 246.391V249.027C78.6601 249.675 78.4666 250.331 77.9229 250.803C77.4064 251.25 76.7357 251.387 76.0908 251.387H69.3926V273.881C69.3925 274.396 69.2772 274.969 68.8711 275.416C68.4482 275.881 67.8744 276.031 67.3457 276.031H63.3291C62.8005 276.031 62.2275 275.881 61.8047 275.416C61.3985 274.969 61.2832 274.396 61.2832 273.881V251.387H54.585C53.9401 251.387 53.2694 251.25 52.7529 250.803C52.2092 250.331 52.0157 249.675 52.0156 249.027V246.391C52.0157 245.743 52.2092 245.086 52.7529 244.615C53.2694 244.168 53.9402 244.031 54.585 244.031H76.0908Z" fill="#BBBBBB"/>
<path d="M44 192.031C46.1217 192.031 48.1569 192.874 49.6572 194.374C51.1575 195.874 52 197.91 52 200.031C52 202.153 51.1575 204.188 49.6572 205.688C48.1569 207.189 46.1217 208.031 44 208.031C41.8783 208.031 39.8431 207.189 38.3428 205.688C36.8425 204.188 36 202.153 36 200.031C36 197.91 36.8425 195.874 38.3428 194.374C39.8431 192.874 41.8783 192.031 44 192.031Z" fill="#BBBBBB"/>
<path d="M53.0859 124.016C55.0391 124.016 56.0156 124.862 56.0156 126.555V131.477C56.0156 133.169 55.0391 134.016 53.0859 134.016H38.7109V177.883C38.7109 179.315 38.0599 180.031 36.7578 180.031H29.2578C27.9557 180.031 27.3047 179.315 27.3047 177.883V134.016H12.9297C10.9766 134.016 10 133.169 10 131.477V126.555C10 124.862 10.9766 124.016 12.9297 124.016H53.0859Z" fill="#BBBBBB"/>
<path d="M76.0908 148.016C76.7357 148.016 77.4064 148.152 77.9229 148.6C78.4666 149.071 78.6601 149.727 78.6602 150.375V153.012C78.6601 153.659 78.4666 154.316 77.9229 154.787C77.4064 155.235 76.7357 155.371 76.0908 155.371H69.3926V177.865C69.3925 178.38 69.2772 178.953 68.8711 179.4C68.4482 179.866 67.8744 180.016 67.3457 180.016H63.3291C62.8005 180.016 62.2275 179.866 61.8047 179.4C61.3985 178.953 61.2832 178.38 61.2832 177.865V155.371H54.585C53.9401 155.371 53.2694 155.235 52.7529 154.787C52.2092 154.316 52.0157 153.659 52.0156 153.012V150.375C52.0157 149.727 52.2092 149.071 52.7529 148.6C53.2694 148.152 53.9402 148.016 54.585 148.016H76.0908Z" fill="#BBBBBB"/>
<path d="M44 96.0156C46.1217 96.0156 48.1569 96.8581 49.6572 98.3584C51.1575 99.8587 52 101.894 52 104.016C52 106.137 51.1575 108.173 49.6572 109.673C48.1569 111.173 46.1217 112.016 44 112.016C41.8783 112.016 39.8431 111.173 38.3428 109.673C36.8425 108.173 36 106.137 36 104.016C36 101.894 36.8425 99.8587 38.3428 98.3584C39.8431 96.8581 41.8783 96.0156 44 96.0156Z" fill="#BBBBBB"/>
<path d="M53.0859 28C55.0391 28 56.0156 28.8464 56.0156 30.5391V35.4609C56.0156 37.1536 55.0391 38 53.0859 38H38.7109V81.8672C38.7109 83.2995 38.0599 84.0156 36.7578 84.0156H29.2578C27.9557 84.0156 27.3047 83.2995 27.3047 81.8672V38H12.9297C10.9766 38 10 37.1536 10 35.4609V30.5391C10 28.8464 10.9766 28 12.9297 28H53.0859Z" fill="#BBBBBB"/>
<path d="M76.0908 52C76.7357 52 77.4064 52.1364 77.9229 52.584C78.4666 53.0552 78.6601 53.7119 78.6602 54.3594V56.9961C78.6601 57.6436 78.4666 58.3002 77.9229 58.7715C77.4064 59.2191 76.7357 59.3555 76.0908 59.3555H69.3926V81.8496C69.3925 82.3648 69.2772 82.9378 68.8711 83.3848C68.4482 83.85 67.8744 84 67.3457 84H63.3291C62.8005 83.9999 62.2275 83.8499 61.8047 83.3848C61.3985 82.9377 61.2832 82.3648 61.2832 81.8496V59.3555H54.585C53.9401 59.3555 53.2694 59.2191 52.7529 58.7715C52.2092 58.3002 52.0157 57.6437 52.0156 56.9961V54.3594C52.0157 53.7119 52.2092 53.0552 52.7529 52.584C53.2694 52.1364 53.9402 52 54.585 52H76.0908Z" fill="#BBBBBB"/>
<path d="M44 0C46.1217 0 48.1569 0.842482 49.6572 2.34277C51.1575 3.84306 52 5.87827 52 8C52 10.1217 51.1575 12.1569 49.6572 13.6572C48.1569 15.1575 46.1217 16 44 16C41.8783 16 39.8431 15.1575 38.3428 13.6572C36.8425 12.1569 36 10.1217 36 8C36 5.87827 36.8425 3.84306 38.3428 2.34277C39.8431 0.842482 41.8783 0 44 0Z" fill="#BBBBBB"/>
</svg>
