<svg width="464" height="107" viewBox="0 0 464 107" fill="none" xmlns="http://www.w3.org/2000/svg">
<path d="M460.261 100.413C461.941 100.413 463.303 101.775 463.304 103.456C463.304 105.137 461.942 106.5 460.261 106.5H3.73926C2.05856 106.5 0.695312 105.137 0.695312 103.456C0.695565 101.776 2.05871 100.413 3.73926 100.413H460.261Z" fill="#BBBBBB"/>
<path fill-rule="evenodd" clip-rule="evenodd" d="M37.0771 51.6436C39.9982 49.9545 43.5161 50.48 46.6445 52.291L54.7305 56.9561L54.7344 56.958C57.8632 58.7695 60.0692 61.5569 60.0693 64.9277C60.0691 68.2983 57.8629 71.085 54.7344 72.8965L54.7305 72.8984L46.6406 77.5654L46.6396 77.5645C43.5121 79.3738 39.9971 79.8994 37.0771 78.2109C34.1583 76.5227 32.8546 73.2123 32.8545 69.5947V60.2598C32.8546 56.6422 34.1583 53.3318 37.0771 51.6436ZM43.7217 57.3398C41.6788 56.1571 40.4899 56.4093 39.998 56.6934C39.5045 56.9789 38.6886 57.8888 38.6885 60.2598V69.5947C38.6886 71.9659 39.5045 72.8757 39.998 73.1611C40.4898 73.4453 41.6785 73.6975 43.7217 72.5146L43.7256 72.5127L51.8145 67.8447C53.8538 66.6628 54.2351 65.5041 54.2354 64.9277C54.2353 64.3512 53.8545 63.1897 51.8115 62.0068L43.7256 57.3418L43.7217 57.3398Z" fill="#BBBBBB"/>
<path fill-rule="evenodd" clip-rule="evenodd" d="M75.7939 9.97852C82.3428 9.97852 87.6522 15.2873 87.6523 21.8359V85.0771C87.6521 91.626 82.3428 96.9346 75.7939 96.9346H12.5537C6.00503 96.9346 0.695523 91.626 0.695312 85.0771V21.8359C0.695493 15.2873 6.00501 9.97852 12.5537 9.97852H75.7939ZM8.60059 85.0771C8.6008 87.26 10.3709 89.0293 12.5537 89.0293H75.7939C77.9768 89.0293 79.7469 87.26 79.7471 85.0771V39.2979H8.60059V85.0771ZM12.5537 17.8838C10.3709 17.8838 8.60077 19.6532 8.60059 21.8359V33.4639H28.0713V17.8838H12.5537ZM33.9043 33.4639H55.1396V17.8838H33.9043V33.4639ZM60.9736 33.4639H79.7471V21.8359C79.7469 19.6532 77.9768 17.8838 75.7939 17.8838H60.9736V33.4639Z" fill="#BBBBBB"/>
<path fill-rule="evenodd" clip-rule="evenodd" d="M130.99 51.6436C133.911 49.9545 137.429 50.48 140.558 52.291L148.644 56.9561L148.647 56.958C151.776 58.7695 153.982 61.557 153.982 64.9277C153.982 68.2983 151.776 71.085 148.647 72.8965L148.644 72.8984L140.554 77.5654L140.553 77.5645C137.425 79.3738 133.91 79.8995 130.99 78.2109C128.071 76.5227 126.768 73.2123 126.768 69.5947V60.2598C126.768 56.6422 128.071 53.3318 130.99 51.6436ZM137.635 57.3398C135.592 56.1572 134.403 56.4093 133.911 56.6934C133.418 56.9789 132.602 57.8888 132.602 60.2598V69.5947C132.602 71.9659 133.418 72.8757 133.911 73.1611C134.403 73.4453 135.592 73.6974 137.635 72.5146L137.639 72.5127L145.728 67.8447C147.767 66.6628 148.148 65.5041 148.148 64.9277C148.148 64.3512 147.768 63.1897 145.725 62.0068L137.639 57.3418L137.635 57.3398Z" fill="#BBBBBB"/>
<path fill-rule="evenodd" clip-rule="evenodd" d="M169.707 9.97852C176.256 9.97852 181.565 15.2873 181.565 21.8359V85.0771C181.565 91.626 176.256 96.9346 169.707 96.9346H106.467C99.9181 96.9346 94.6086 91.626 94.6084 85.0771V21.8359C94.6086 15.2873 99.9181 9.97852 106.467 9.97852H169.707ZM102.514 85.0771C102.514 87.26 104.284 89.0293 106.467 89.0293H169.707C171.89 89.0293 173.66 87.26 173.66 85.0771V39.2979H102.514V85.0771ZM106.467 17.8838C104.284 17.8838 102.514 19.6532 102.514 21.8359V33.4639H121.983V17.8838H106.467ZM127.817 33.4639H149.053V17.8838H127.817V33.4639ZM154.887 33.4639H173.66V21.8359C173.66 19.6532 171.89 17.8838 169.707 17.8838H154.887V33.4639Z" fill="#BBBBBB"/>
<path fill-rule="evenodd" clip-rule="evenodd" d="M224.903 51.6436C227.824 49.9545 231.342 50.48 234.471 52.291L242.557 56.9561L242.561 56.958C245.689 58.7695 247.895 61.557 247.896 64.9277C247.895 68.2983 245.689 71.085 242.561 72.8965L242.557 72.8984L234.467 77.5654L234.466 77.5645C231.338 79.3738 227.823 79.8995 224.903 78.2109C221.984 76.5227 220.681 73.2123 220.681 69.5947V60.2598C220.681 56.6422 221.984 53.3317 224.903 51.6436ZM231.548 57.3398C229.504 56.1568 228.315 56.4092 227.823 56.6934C227.33 56.979 226.515 57.8892 226.515 60.2598V69.5947C226.515 71.9654 227.33 72.8755 227.823 73.1611C228.315 73.4454 229.504 73.6977 231.548 72.5146L231.552 72.5127L239.641 67.8447C241.68 66.6628 242.061 65.5041 242.062 64.9277C242.061 64.3512 241.681 63.1897 239.638 62.0068L231.552 57.3418L231.548 57.3398Z" fill="#BBBBBB"/>
<path fill-rule="evenodd" clip-rule="evenodd" d="M263.62 9.97852C270.169 9.97852 275.478 15.2873 275.479 21.8359V85.0771C275.478 91.626 270.169 96.9346 263.62 96.9346H200.38C193.831 96.9346 188.522 91.626 188.521 85.0771V21.8359C188.522 15.2873 193.831 9.97852 200.38 9.97852H263.62ZM196.427 85.0771C196.427 87.26 198.197 89.0293 200.38 89.0293H263.62C265.803 89.0293 267.573 87.26 267.573 85.0771V39.2979H196.427V85.0771ZM200.38 17.8838C198.197 17.8838 196.427 19.6532 196.427 21.8359V33.4639H215.896V17.8838H200.38ZM221.73 33.4639H242.966V17.8838H221.73V33.4639ZM248.8 33.4639H267.573V21.8359C267.573 19.6532 265.803 17.8838 263.62 17.8838H248.8V33.4639Z" fill="#BBBBBB"/>
<path fill-rule="evenodd" clip-rule="evenodd" d="M318.816 51.6436C321.737 49.9545 325.255 50.48 328.384 52.291L336.47 56.9561L336.474 56.958C339.602 58.7695 341.808 61.557 341.808 64.9277C341.807 68.2983 339.602 71.085 336.474 72.8965L336.47 72.8984L328.38 77.5654L328.379 77.5645C325.251 79.3738 321.736 79.8995 318.816 78.2109C315.897 76.5227 314.594 73.2124 314.594 69.5947V60.2598C314.594 56.6422 315.897 53.3317 318.816 51.6436ZM325.46 57.3398C323.417 56.1571 322.228 56.4092 321.736 56.6934C321.243 56.979 320.428 57.8891 320.428 60.2598V69.5947C320.428 71.9655 321.243 72.8755 321.736 73.1611C322.228 73.4453 323.416 73.6976 325.46 72.5146L325.465 72.5127L333.554 67.8447C335.593 66.6628 335.974 65.5041 335.975 64.9277C335.975 64.3512 335.594 63.1897 333.551 62.0068L325.465 57.3418L325.46 57.3398Z" fill="#BBBBBB"/>
<path fill-rule="evenodd" clip-rule="evenodd" d="M357.533 9.97852C364.082 9.97852 369.391 15.2873 369.392 21.8359V85.0771C369.391 91.626 364.082 96.9346 357.533 96.9346H294.293C287.744 96.9346 282.435 91.626 282.435 85.0771V21.8359C282.435 15.2873 287.744 9.97852 294.293 9.97852H357.533ZM290.34 85.0771C290.34 87.26 292.11 89.0293 294.293 89.0293H357.533C359.716 89.0293 361.486 87.26 361.486 85.0771V39.2979H290.34V85.0771ZM294.293 17.8838C292.11 17.8838 290.34 19.6532 290.34 21.8359V33.4639H309.81V17.8838H294.293ZM315.644 33.4639H336.879V17.8838H315.644V33.4639ZM342.713 33.4639H361.486V21.8359C361.486 19.6532 359.716 17.8838 357.533 17.8838H342.713V33.4639Z" fill="#BBBBBB"/>
<path fill-rule="evenodd" clip-rule="evenodd" d="M412.729 51.6436C415.65 49.9545 419.168 50.48 422.296 52.291L430.382 56.9561L430.387 56.958C433.515 58.7695 435.721 61.557 435.721 64.9277C435.72 68.2983 433.515 71.085 430.387 72.8965L430.382 72.8984L422.293 77.5654L422.292 77.5645C419.164 79.3738 415.649 79.8995 412.729 78.2109C409.811 76.5227 408.507 73.2124 408.507 69.5947V60.2598C408.507 56.6422 409.811 53.3317 412.729 51.6436ZM419.373 57.3398C417.33 56.157 416.141 56.4092 415.649 56.6934C415.156 56.979 414.341 57.8891 414.341 60.2598V69.5947C414.341 71.9655 415.156 72.8755 415.649 73.1611C416.141 73.4453 417.33 73.6976 419.373 72.5146L419.378 72.5127L427.467 67.8447C429.506 66.6628 429.887 65.5041 429.888 64.9277C429.888 64.3512 429.507 63.1897 427.464 62.0068L419.378 57.3418L419.373 57.3398Z" fill="#BBBBBB"/>
<path fill-rule="evenodd" clip-rule="evenodd" d="M451.446 9.97852C457.995 9.97852 463.305 15.2873 463.305 21.8359V85.0771C463.304 91.626 457.995 96.9346 451.446 96.9346H388.206C381.657 96.9346 376.348 91.626 376.348 85.0771V21.8359C376.348 15.2873 381.657 9.97852 388.206 9.97852H451.446ZM384.253 85.0771C384.253 87.26 386.023 89.0293 388.206 89.0293H451.446C453.629 89.0293 455.399 87.26 455.399 85.0771V39.2979H384.253V85.0771ZM388.206 17.8838C386.023 17.8838 384.253 19.6532 384.253 21.8359V33.4639H403.723V17.8838H388.206ZM409.557 33.4639H430.792V17.8838H409.557V33.4639ZM436.626 33.4639H455.399V21.8359C455.399 19.6532 453.629 17.8838 451.446 17.8838H436.626V33.4639Z" fill="#BBBBBB"/>
<path d="M460.261 0.413086C461.941 0.413201 463.303 1.77547 463.304 3.45605C463.304 5.13685 461.942 6.49988 460.261 6.5H3.73926C2.05856 6.4998 0.695312 5.1368 0.695312 3.45605C0.695565 1.77552 2.05871 0.413284 3.73926 0.413086H460.261Z" fill="#BBBBBB"/>
</svg>
