<svg width="228" height="190" viewBox="0 0 228 190" fill="none" xmlns="http://www.w3.org/2000/svg">
<rect width="227.285" height="189.509" rx="8" fill="#F5F5F6"/>
<path d="M186.011 54.6514C188.808 54.6514 191.076 56.9192 191.076 59.7168C191.076 62.2268 189.25 64.3081 186.854 64.71V89.7617C189.25 90.1635 191.076 92.2458 191.076 94.7559C191.076 97.2658 189.25 99.3471 186.854 99.749V124.799C189.25 125.201 191.076 127.283 191.076 129.793C191.076 132.591 188.808 134.858 186.011 134.858C183.213 134.858 180.945 132.591 180.945 129.793C180.945 127.283 182.771 125.201 185.166 124.799V99.749C182.771 99.3468 180.945 97.2655 180.945 94.7559C180.945 92.2462 182.771 90.1639 185.166 89.7617V64.71C182.771 64.3077 180.945 62.2264 180.945 59.7168C180.945 56.9192 183.213 54.6514 186.011 54.6514Z" fill="#6B84FF"/>
<mask id="path-3-outside-1_14752_124201" maskUnits="userSpaceOnUse" x="58.875" y="52.6514" width="110" height="85" fill="black">
<rect fill="white" x="58.875" y="52.6514" width="110" height="85"/>
<path d="M61.875 54.6514C61.3227 54.6514 60.875 55.0991 60.875 55.6514L60.875 133.859C60.875 134.411 61.3227 134.859 61.875 134.859H165.411C165.963 134.859 166.411 134.411 166.411 133.859V55.6514C166.411 55.0991 165.963 54.6514 165.411 54.6514L61.875 54.6514Z"/>
</mask>
<path d="M61.875 54.6514C61.3227 54.6514 60.875 55.0991 60.875 55.6514L60.875 133.859C60.875 134.411 61.3227 134.859 61.875 134.859H165.411C165.963 134.859 166.411 134.411 166.411 133.859V55.6514C166.411 55.0991 165.963 54.6514 165.411 54.6514L61.875 54.6514Z" fill="white"/>
<path d="M60.125 55.6514C60.625 55.6514 61.125 55.6514 61.625 55.6514C61.7917 61.8142 61.9417 67.977 62.075 74.1398C62.5057 94.0461 62.7625 113.952 62.8454 133.859C62.8578 133.34 62.3974 132.874 61.875 132.882C66.0964 132.866 70.3179 132.859 74.5393 132.859C104.83 132.859 135.12 132.903 165.411 132.993C164.947 132.986 164.539 133.398 164.55 133.859C164.628 107.789 164.739 81.7204 164.884 55.6514C164.882 55.9338 165.133 56.1772 165.411 56.1693C136.538 56.0077 107.665 55.8054 78.7926 55.5625C73.1534 55.515 67.5142 55.466 61.875 55.4155C61.7506 55.4064 61.6259 55.5186 61.625 55.6514C61.125 55.6514 60.625 55.6514 60.125 55.6514C60.0982 54.7188 60.9341 53.8705 61.875 53.8872C67.5142 53.8367 73.1534 53.7877 78.7926 53.7403C107.665 53.4973 136.538 53.2951 165.411 53.1334C166.753 53.0996 167.965 54.3036 167.937 55.6514C168.082 81.7204 168.194 107.789 168.272 133.859C168.308 135.384 166.939 136.757 165.411 136.724C135.12 136.814 104.83 136.859 74.5393 136.859C70.3179 136.859 66.0964 136.851 61.875 136.835C60.2872 136.869 58.8663 135.443 58.9046 133.859C58.9875 113.952 59.2443 94.0461 59.675 74.1398C59.8083 67.977 59.9583 61.8142 60.125 55.6514ZM61.625 55.6514H60.125H61.625Z" fill="#6B84FF" mask="url(#path-3-outside-1_14752_124201)"/>
<path d="M67.4043 64.1455C67.0065 64.1357 66.6249 64.2851 66.3436 64.5665C66.0623 64.8477 65.9043 65.2378 65.9043 65.6455C65.9043 66.0532 66.0623 66.4434 66.3436 66.7245C66.6249 67.006 67.0065 67.1554 67.4043 67.1455C68.4275 67.1205 69.4507 67.0955 70.4738 67.0705C88.891 66.6205 107.308 66.1705 125.725 65.7205C126.749 65.6955 127.772 65.6705 128.795 65.6455C127.772 65.6205 126.749 65.5955 125.725 65.5705C107.308 65.1205 88.891 64.6705 70.4738 64.2205C69.4507 64.1955 68.4275 64.1705 67.4043 64.1455Z" fill="#6B84FF"/>
<path d="M67.4043 72.1455C67.0065 72.1342 66.6249 72.2823 66.3436 72.5638C66.0623 72.8449 65.9043 73.2363 65.9043 73.6455C65.9043 74.0547 66.0623 74.4461 66.3436 74.7273C66.6249 75.0088 67.0065 75.1569 67.4043 75.1455C68.2933 75.1205 69.1823 75.0955 70.0713 75.0705C86.0735 74.6205 102.076 74.1705 118.078 73.7205C118.967 73.6955 119.856 73.6705 120.745 73.6455C119.856 73.6205 118.967 73.5955 118.078 73.5705C102.076 73.1205 86.0735 72.6705 70.0713 72.2205C69.1823 72.1955 68.2933 72.1705 67.4043 72.1455Z" fill="#6B84FF"/>
<path d="M67.4043 80.1475C67.0065 80.1294 66.6249 80.2716 66.3436 80.5532C66.0623 80.8342 65.9043 81.2316 65.9043 81.6475C65.9043 82.0634 66.0623 82.4607 66.3436 82.7417C66.6249 83.0234 67.0065 83.1655 67.4043 83.1475C67.9619 83.1225 68.5195 83.0975 69.077 83.0725C79.1134 82.6225 89.1498 82.1725 99.1862 81.7225C99.7437 81.6975 100.301 81.6725 100.859 81.6475C100.301 81.6225 99.7437 81.5975 99.1862 81.5725C89.1498 81.1225 79.1134 80.6725 69.077 80.2225C68.5195 80.1975 67.9619 80.1725 67.4043 80.1475Z" fill="#6B84FF"/>
<path d="M67.4043 124.872C67.0065 124.854 66.6249 124.996 66.3436 125.278C66.0623 125.559 65.9043 125.956 65.9043 126.372C65.9043 126.788 66.0623 127.185 66.3436 127.466C66.6249 127.748 67.0065 127.89 67.4043 127.872C67.9619 127.847 68.5195 127.822 69.077 127.797C79.1134 127.347 89.1498 126.897 99.1862 126.447C99.7437 126.422 100.301 126.397 100.859 126.372C100.301 126.347 99.7437 126.322 99.1862 126.297C89.1498 125.847 79.1134 125.397 69.077 124.947C68.5195 124.922 67.9619 124.897 67.4043 124.872Z" fill="#6B84FF"/>
<path d="M153.446 104.895L146.871 95.6514L140.299 104.89V81.6475H153.446V104.895Z" fill="#6B84FF"/>
<mask id="path-10-outside-2_14752_124201" maskUnits="userSpaceOnUse" x="132.759" y="62.3486" width="29" height="28" fill="black">
<rect fill="white" x="132.759" y="62.3486" width="29" height="28"/>
<path d="M145.354 64.1112C146.152 63.1836 147.588 63.1836 148.386 64.1112L149.114 64.9574C149.628 65.555 150.445 65.7949 151.201 65.5701L152.271 65.2518C153.443 64.9028 154.652 65.6794 154.822 66.8912L154.976 67.9967C155.086 68.7772 155.643 69.4208 156.401 69.6401L157.473 69.9508C158.648 70.2913 159.245 71.5979 158.732 72.7091L158.265 73.7229C157.935 74.4387 158.056 75.2815 158.575 75.8754L159.309 76.7164C160.113 77.6382 159.909 79.06 158.877 79.7179L157.936 80.318C157.271 80.7418 156.917 81.5163 157.032 82.2961L157.195 83.4005C157.374 84.611 156.433 85.6966 155.209 85.6922L154.093 85.6882C153.305 85.6853 152.589 86.1457 152.264 86.8639L151.804 87.8809C151.299 88.9958 149.921 89.4005 148.894 88.7353L147.957 88.1284C147.296 87.6999 146.444 87.6999 145.783 88.1284L144.846 88.7353C143.819 89.4005 142.44 88.9958 141.936 87.8809L141.476 86.8639C141.151 86.1457 140.435 85.6853 139.647 85.6882L138.53 85.6922C137.307 85.6966 136.366 84.611 136.545 83.4005L136.707 82.2961C136.822 81.5163 136.469 80.7418 135.804 80.318L134.863 79.7179C133.831 79.06 133.627 77.6382 134.431 76.7164L135.165 75.8754C135.684 75.2815 135.805 74.4387 135.475 73.7229L135.007 72.7091C134.495 71.5979 135.092 70.2913 136.267 69.9508L137.339 69.6401C138.096 69.4208 138.654 68.7772 138.763 67.9967L138.918 66.8912C139.088 65.6794 140.296 64.9028 141.469 65.2518L142.539 65.5701C143.295 65.7949 144.112 65.555 144.626 64.9574L145.354 64.1112Z"/>
</mask>
<path d="M145.354 64.1112C146.152 63.1836 147.588 63.1836 148.386 64.1112L149.114 64.9574C149.628 65.555 150.445 65.7949 151.201 65.5701L152.271 65.2518C153.443 64.9028 154.652 65.6794 154.822 66.8912L154.976 67.9967C155.086 68.7772 155.643 69.4208 156.401 69.6401L157.473 69.9508C158.648 70.2913 159.245 71.5979 158.732 72.7091L158.265 73.7229C157.935 74.4387 158.056 75.2815 158.575 75.8754L159.309 76.7164C160.113 77.6382 159.909 79.06 158.877 79.7179L157.936 80.318C157.271 80.7418 156.917 81.5163 157.032 82.2961L157.195 83.4005C157.374 84.611 156.433 85.6966 155.209 85.6922L154.093 85.6882C153.305 85.6853 152.589 86.1457 152.264 86.8639L151.804 87.8809C151.299 88.9958 149.921 89.4005 148.894 88.7353L147.957 88.1284C147.296 87.6999 146.444 87.6999 145.783 88.1284L144.846 88.7353C143.819 89.4005 142.44 88.9958 141.936 87.8809L141.476 86.8639C141.151 86.1457 140.435 85.6853 139.647 85.6882L138.53 85.6922C137.307 85.6966 136.366 84.611 136.545 83.4005L136.707 82.2961C136.822 81.5163 136.469 80.7418 135.804 80.318L134.863 79.7179C133.831 79.06 133.627 77.6382 134.431 76.7164L135.165 75.8754C135.684 75.2815 135.805 74.4387 135.475 73.7229L135.007 72.7091C134.495 71.5979 135.092 70.2913 136.267 69.9508L137.339 69.6401C138.096 69.4208 138.654 68.7772 138.763 67.9967L138.918 66.8912C139.088 65.6794 140.296 64.9028 141.469 65.2518L142.539 65.5701C143.295 65.7949 144.112 65.555 144.626 64.9574L145.354 64.1112Z" fill="white"/>
<path d="M148.729 63.8163C148.5 64.0129 148.272 64.2095 148.043 64.4061C148.267 64.7048 148.49 65.0032 148.715 65.3011C149.302 66.0781 150.394 66.4716 151.391 66.211C151.707 66.1368 152.022 66.0621 152.337 65.9869C152.384 65.9756 152.432 65.9643 152.479 65.9529C153.21 65.7835 153.917 66.3735 153.93 67.0162C153.965 67.3869 154.001 67.7576 154.038 68.1281C154.152 69.2579 154.994 70.2928 156.113 70.6312C156.467 70.7466 156.821 70.8613 157.176 70.9754C157.697 71.1466 157.932 71.7961 157.688 72.2277C157.526 72.5627 157.365 72.898 157.204 73.2335C156.67 74.3316 156.859 75.738 157.674 76.6616C157.916 76.9439 158.159 77.2257 158.402 77.5072C158.532 77.6592 158.597 77.8401 158.596 78.0354C158.594 78.3066 158.458 78.5569 158.229 78.7017C157.915 78.9019 157.602 79.1022 157.288 79.3026C156.241 79.9562 155.65 81.2534 155.844 82.4713C155.899 82.8393 155.954 83.2073 156.01 83.5753C156.098 84.0361 155.689 84.5179 155.214 84.5036C154.842 84.5035 154.47 84.5036 154.097 84.5037C152.87 84.4895 151.683 85.2586 151.193 86.3797C151.042 86.7195 150.89 87.0592 150.738 87.399C150.56 87.8513 149.932 88.0493 149.519 87.7702C149.206 87.5698 148.892 87.3696 148.578 87.1693C147.566 86.5047 146.171 86.5127 145.17 87.1829C144.859 87.3875 144.549 87.5922 144.238 87.7969C143.821 88.1009 143.142 87.9221 142.928 87.4321C142.772 87.0945 142.615 86.7569 142.459 86.4193C141.974 85.3363 140.82 84.6076 139.643 84.6321C139.271 84.6372 138.899 84.6424 138.527 84.6477C137.968 84.6826 137.45 84.124 137.54 83.5472C137.59 83.1784 137.64 82.8097 137.689 82.4409C137.86 81.3003 137.296 80.1005 136.322 79.5056C136.006 79.3096 135.689 79.1137 135.373 78.9178C134.834 78.6194 134.683 77.7934 135.11 77.3086C135.35 77.0247 135.591 76.7408 135.831 76.4568C136.562 75.6192 136.727 74.3538 136.246 73.3675C136.085 73.032 135.923 72.6966 135.762 72.3612C135.436 71.7585 135.789 70.893 136.482 70.6936C136.838 70.5838 137.193 70.474 137.549 70.3641C138.568 70.066 139.349 69.1332 139.469 68.0955C139.513 67.726 139.558 67.3566 139.603 66.9871C139.66 66.2219 140.515 65.6185 141.291 65.8497C141.65 65.9486 142.009 66.0475 142.368 66.1463C143.33 66.4269 144.425 66.0809 145.045 65.3181C145.082 65.2736 145.118 65.2292 145.155 65.1847C145.355 64.9419 145.555 64.6991 145.755 64.4562C146.274 63.7675 147.449 63.7157 148.043 64.4061C148.272 64.2095 148.5 64.0129 148.729 63.8163C147.845 62.678 145.912 62.6262 144.953 63.7662C144.742 64.0002 144.532 64.2342 144.322 64.4682C144.283 64.511 144.245 64.5539 144.206 64.5968C143.835 65.0126 143.22 65.1683 142.711 64.9939C142.356 64.8805 142.002 64.7671 141.647 64.6538C140.191 64.1459 138.431 65.2228 138.234 66.7953C138.175 67.1628 138.117 67.5303 138.058 67.8979C137.98 68.3882 137.595 68.8012 137.13 68.9162C136.77 69.0134 136.411 69.1106 136.052 69.208C134.468 69.5938 133.529 71.5552 134.253 73.0571C134.403 73.3975 134.553 73.7379 134.704 74.0783C134.883 74.4843 134.794 74.9815 134.499 75.2939C134.25 75.5706 134.001 75.8473 133.753 76.1241C132.58 77.363 132.871 79.6131 134.353 80.5179C134.664 80.7222 134.975 80.9263 135.286 81.1305C135.62 81.35 135.796 81.7701 135.726 82.1514C135.667 82.5188 135.608 82.8863 135.549 83.2537C135.226 84.9918 136.742 86.7819 138.534 86.7366C138.906 86.7393 139.278 86.7418 139.65 86.7443C140.014 86.7469 140.358 86.981 140.493 87.3084C140.643 87.6489 140.794 87.9893 140.944 88.3297C141.634 90.0109 143.937 90.7077 145.453 89.6736C145.767 89.4737 146.081 89.2738 146.395 89.0738C146.678 88.8927 147.064 88.9007 147.336 89.0874C147.647 89.2918 147.958 89.4961 148.269 89.7003C149.79 90.7593 152.144 90.0817 152.869 88.3628C153.024 88.0246 153.179 87.6863 153.334 87.348C153.465 87.0586 153.775 86.865 154.089 86.8727C154.461 86.8755 154.833 86.8782 155.205 86.8808C157.08 86.9466 158.707 85.0797 158.381 83.2256C158.327 82.8574 158.274 82.4892 158.22 82.121C158.174 81.817 158.323 81.4943 158.583 81.3334C158.897 81.1337 159.211 80.9339 159.525 80.7341C160.428 80.1723 161.009 79.1153 161.008 78.054C161.018 77.2824 160.724 76.4993 160.215 75.9255C159.969 75.6463 159.722 75.3675 159.475 75.0892C159.265 74.8627 159.2 74.5065 159.326 74.2122C159.477 73.8719 159.627 73.5314 159.777 73.1906C160.582 71.5176 159.526 69.3402 157.77 68.9262C157.409 68.8332 157.048 68.7408 156.688 68.6491C156.323 68.5744 155.998 68.2635 155.915 67.8652C155.848 67.4988 155.781 67.1324 155.714 66.7662C155.471 65.0712 153.563 63.981 152.062 64.5506C152.016 64.567 151.97 64.5835 151.924 64.5999C151.619 64.7092 151.314 64.8189 151.01 64.9291C150.535 65.1236 149.919 65.0155 149.514 64.6137C149.253 64.3475 148.991 64.0817 148.729 63.8163ZM148.043 64.4061L148.729 63.8163L148.043 64.4061V64.4061Z" fill="#6B84FF" mask="url(#path-10-outside-2_14752_124201)"/>
<path d="M145.354 66.2274C146.152 65.2998 147.589 65.2998 148.387 66.2274L148.651 66.5348C149.165 67.1323 149.982 67.3722 150.738 67.1474L151.126 67.0318C152.299 66.6829 153.507 67.4595 153.677 68.6712L153.734 69.0728C153.843 69.8534 154.401 70.4969 155.158 70.7163L155.547 70.8291C156.722 71.1696 157.319 72.4762 156.807 73.5875L156.637 73.9557C156.307 74.6715 156.428 75.5143 156.946 76.1082L157.213 76.4136C158.018 77.3355 157.813 78.7573 156.782 79.4152L156.44 79.6331C155.775 80.0569 155.421 80.8315 155.536 81.6113L155.595 82.0124C155.774 83.2229 154.833 84.3085 153.61 84.3041L153.204 84.3027C152.416 84.2998 151.7 84.7602 151.375 85.4784L151.208 85.8478C150.703 86.9626 149.325 87.3673 148.298 86.7021L147.958 86.4817C147.296 86.0531 146.445 86.0531 145.783 86.4817L145.443 86.7021C144.416 87.3673 143.038 86.9626 142.533 85.8478L142.366 85.4784C142.041 84.7602 141.325 84.2998 140.537 84.3027L140.131 84.3041C138.908 84.3085 137.967 83.2229 138.146 82.0124L138.205 81.6113C138.32 80.8315 137.966 80.0569 137.301 79.6331L136.959 79.4152C135.928 78.7573 135.723 77.3355 136.528 76.4136L136.794 76.1082C137.313 75.5143 137.434 74.6715 137.104 73.9557L136.934 73.5875C136.422 72.4762 137.019 71.1696 138.194 70.8291L138.583 70.7163C139.34 70.4969 139.898 69.8534 140.007 69.0728L140.064 68.6712C140.233 67.4595 141.442 66.6829 142.615 67.0318L143.003 67.1474C143.759 67.3722 144.576 67.1323 145.09 66.5348L145.354 66.2274Z" fill="#6B84FF"/>
<path d="M67.4043 120.166C67.4166 113.443 67.4289 106.721 68.1295 106.692C68.8301 106.663 70.1559 119.831 70.8533 119.938C71.5508 120.045 71.5779 106.882 71.9987 106.495C72.4195 106.109 73.2978 112.408 73.8572 116.028C74.4165 119.648 74.6303 120.399 74.9148 120.414C75.8776 120.466 76.2379 117.98 76.9263 117.192C77.1827 116.899 77.6602 118.623 77.9744 119.44C78.2887 120.256 78.53 120.573 79.1287 119.735C79.7274 118.897 80.6761 116.896 81.2245 116.05C81.7728 115.204 81.8921 115.574 82.2604 116.433C82.6286 117.292 83.2422 118.628 83.9366 119.222C85.0813 120.202 86.4021 119.326 87.2475 119.398C87.8579 119.579 88.8365 120.053 90.1433 120.27C91.4501 120.488 93.0554 120.434 94.6946 120.379" stroke="#6B84FF" stroke-linecap="round"/>
</svg>
